<?xml version="1.0" encoding="UTF-8" standalone="no"?>
<svg width="26px" height="27px" viewBox="0 0 26 27" version="1.1" xmlns="http://www.w3.org/2000/svg" xmlns:xlink="http://www.w3.org/1999/xlink">
    <!-- Generator: Sketch 3.7.2 (28276) - http://www.bohemiancoding.com/sketch -->
    <title>phone</title>
    <desc>Created with Sketch.</desc>
    <defs>
        <rect id="path-1" x="0" y="5" width="1280" height="2716"></rect>
        <mask id="mask-2" maskContentUnits="userSpaceOnUse" maskUnits="objectBoundingBox" x="0" y="0" width="1280" height="2716" fill="white">
            <use xlink:href="#path-1"></use>
        </mask>
        <rect id="path-3" x="3" y="28" width="1280" height="2716"></rect>
        <mask id="mask-4" maskContentUnits="userSpaceOnUse" maskUnits="objectBoundingBox" x="0" y="0" width="1280" height="2716" fill="white">
            <use xlink:href="#path-3"></use>
        </mask>
        <rect id="path-5" x="38" y="38" width="1280" height="2716"></rect>
        <mask id="mask-6" maskContentUnits="userSpaceOnUse" maskUnits="objectBoundingBox" x="0" y="0" width="1280" height="2716" fill="white">
            <use xlink:href="#path-5"></use>
        </mask>
        <rect id="path-7" x="0" y="4.54747351e-13" width="1280" height="477.696956"></rect>
        <mask id="mask-8" maskContentUnits="userSpaceOnUse" maskUnits="objectBoundingBox" x="0" y="0" width="1280" height="477.696956" fill="white">
            <use xlink:href="#path-7"></use>
        </mask>
        <filter x="-50%" y="-50%" width="200%" height="200%" filterUnits="objectBoundingBox" id="filter-9">
            <feOffset dx="0" dy="2" in="SourceAlpha" result="shadowOffsetOuter1"></feOffset>
            <feGaussianBlur stdDeviation="2" in="shadowOffsetOuter1" result="shadowBlurOuter1"></feGaussianBlur>
            <feColorMatrix values="0 0 0 0 0   0 0 0 0 0   0 0 0 0 0  0 0 0 0.5 0" type="matrix" in="shadowBlurOuter1" result="shadowMatrixOuter1"></feColorMatrix>
            <feMerge>
                <feMergeNode in="shadowMatrixOuter1"></feMergeNode>
                <feMergeNode in="SourceGraphic"></feMergeNode>
            </feMerge>
        </filter>
    </defs>
    <g id="Page-1" stroke="none" stroke-width="1" fill="none" fill-rule="evenodd">
        <g id="Home-Page" transform="translate(-81.000000, -2343.000000)">
            <g id="Group-2" transform="translate(-12.000000, -36.000000)">
                <use id="Rectangle-465" stroke="#FFFFFF" mask="url(#mask-2)" stroke-width="2" fill="#FFFFFF" xlink:href="#path-1"></use>
                <use id="Rectangle-465-Copy-2" stroke="#FFFFFF" mask="url(#mask-4)" stroke-width="2" fill="#FFFFFF" xlink:href="#path-3"></use>
                <use id="Rectangle-465-Copy" stroke="#FFFFFF" mask="url(#mask-6)" stroke-width="2" fill="#FFFFFF" xlink:href="#path-5"></use>
                <g id="Footer" transform="translate(1.000000, 2243.264905)">
                    <use id="Container" stroke="#4990E2" mask="url(#mask-8)" stroke-width="2" fill="#4990E2" xlink:href="#path-7"></use>
                    <g id="phone" filter="url(#filter-9)" transform="translate(96.000000, 138.000000)" fill="#FFFFFF">
                        <g id="Group">
                            <g id="Page-1">
                                <g id="Icons-Communication">
                                    <g id="phone">
                                        <path d="M3.6,7.8 C5,10.6 7.4,12.9 10.2,14.4 L12.4,12.2 C12.7,11.9 13.1,11.8 13.4,12 C14.5,12.4 15.7,12.6 17,12.6 C17.6,12.6 18,13 18,13.6 L18,17 C18,17.6 17.6,18 17,18 C7.6,18 0,10.4 0,1 C0,0.4 0.4,0 1,0 L4.5,0 C5.1,0 5.5,0.4 5.5,1 C5.5,2.2 5.7,3.4 6.1,4.6 C6.2,4.9 6.1,5.3 5.9,5.6 L3.6,7.8 L3.6,7.8 L3.6,7.8 Z" id="Shape"></path>
                                    </g>
                                </g>
                            </g>
                        </g>
                    </g>
                </g>
            </g>
        </g>
    </g>
</svg>