<?xml version="1.0" encoding="UTF-8" standalone="no"?>
<svg width="132px" height="118px" viewBox="0 0 132 118" version="1.1" xmlns="http://www.w3.org/2000/svg" xmlns:xlink="http://www.w3.org/1999/xlink">
    <!-- Generator: Sketch 3.7.2 (28276) - http://www.bohemiancoding.com/sketch -->
    <title>Caduceus Icon</title>
    <desc>Created with Sketch.</desc>
    <defs>
        <rect id="path-1" x="0" y="5" width="1280" height="2716"></rect>
        <mask id="mask-2" maskContentUnits="userSpaceOnUse" maskUnits="objectBoundingBox" x="0" y="0" width="1280" height="2716" fill="white">
            <use xlink:href="#path-1"></use>
        </mask>
        <rect id="path-3" x="5.68434189e-13" y="-4.54747351e-13" width="345.6" height="281.575937" rx="10"></rect>
        <mask id="mask-4" maskContentUnits="userSpaceOnUse" maskUnits="objectBoundingBox" x="0" y="0" width="345.6" height="281.575937" fill="white">
            <use xlink:href="#path-3"></use>
        </mask>
    </defs>
    <g id="Page-1" stroke="none" stroke-width="1" fill="none" fill-rule="evenodd">
        <g id="Home-Page" transform="translate(-575.000000, -817.000000)">
            <g id="Group-2" transform="translate(0.000000, -5.000000)">
                <use id="Rectangle-465" stroke="#FFFFFF" mask="url(#mask-2)" stroke-width="2" fill="#FFFFFF" xlink:href="#path-1"></use>
                <g id="Discription-+-Services" transform="translate(1.000000, 749.028827)">
                    <g id="Services" transform="translate(0.000000, 0.000000)">
                        <g id="Harmony" transform="translate(469.760000, 37.464695)">
                            <use stroke="#3694F3" mask="url(#mask-4)" stroke-width="2" fill="#3694F3" xlink:href="#path-3"></use>
                            <g id="Caduceus-Icon" transform="translate(106.240000, 37.390651)">
                                <ellipse id="Caducues" stroke="#FFFFFF" stroke-width="3" fill="#3694F3" cx="64" cy="57.2343666" rx="64" ry="57.155458"></ellipse>
                                <g id="Caduceus" transform="translate(12.800000, 12.574201)" fill="#FFFFFF">
                                    <g id="layer1" transform="translate(0.000000, -0.000000)">
                                        <path d="M49.8557801,98.4477803 C49.5144467,98.1283587 49.3423725,97.161 49.2987381,95.3160846 L49.2361017,92.6467545 L47.8165773,92.1525604 C44.6622351,91.0539093 43.3514447,89.3638736 43.2793072,86.3035078 C43.2413031,84.6958851 43.3817072,84.1883344 44.1143423,83.2809384 C45.0563519,82.1143675 45.0570557,82.1174935 43.3810034,80.6880535 C41.0602887,78.7087195 40.4008467,73.8196368 42.2338419,72.182459 C42.617754,71.8397344 42.9288247,71.4299427 42.9253058,71.271937 C42.9214351,71.1139313 42.1715574,70.2383637 41.2587546,69.3261366 C38.4246323,66.4936855 38.0706309,65.7795339 37.9847698,62.7183156 C37.9154474,60.2530288 37.993567,59.8949584 38.8887753,58.5831701 C39.4275189,57.7931416 40.3213196,56.7436541 40.8744907,56.2508809 L41.8801924,55.3551364 L40.5620124,54.1288871 C39.836767,53.4545211 38.8194529,52.2035479 38.3011189,51.3490099 C37.4671395,49.9732805 37.3478488,49.4211131 37.2605801,46.528131 C37.1750708,43.6948274 37.2658584,43.0656465 37.9446543,41.7902336 C38.3753677,40.9811648 39.1826034,39.9535594 39.7385897,39.5065397 C40.7186034,38.7187847 41.0585292,37.9426812 40.419145,37.9526276 C40.2470708,37.9551852 39.2177924,37.2776932 38.1315079,36.4467423 C35.1186254,34.1414506 33.494301,30.1003696 34.6460371,27.7757534 L35.1590928,26.7399067 L33.8345787,25.9046931 C32.5350488,25.0853938 31.8087478,24.2041426 30.7266859,22.132165 L30.1840715,21.0937606 L28.4116014,21.5817027 C26.7130282,22.0491836 26.5603079,22.0457734 24.7741141,21.4995738 C23.6058392,21.1420717 22.1690722,20.9471223 20.9261966,20.9772457 C19.5316564,21.0110634 18.4337595,20.8360067 17.228888,20.3878503 C16.2865265,20.0368844 14.8110515,19.7274092 13.9506804,19.6995593 C12.9024,19.6660257 11.7288467,19.3369419 10.3955354,18.7034982 C8.97460344,18.0282796 7.97699519,17.7602951 6.90936082,17.7671155 C5.21958488,17.7781986 2.4470433,16.7412152 0.977550515,15.5487837 L0.0439862543,14.7914363 L1.99204948,14.4077893 C4.36554777,13.9403084 10.6467849,11.2800722 14.8845966,8.94721472 C16.6042832,8.00060145 20.2002474,6.01387873 22.8753155,4.53214904 C28.8437223,1.22653344 29.2944935,1.03073141 32.0364206,0.551314845 C38.3848687,-0.558987783 43.4640495,1.72783209 44.3835381,6.1107851 C44.7382433,7.79996832 44.1843684,9.29334951 42.6807423,10.7031809 C42.0445251,11.2996808 41.526543,11.9038537 41.5300619,12.045661 C41.5332289,12.1877524 42.0498034,12.6396033 42.6779271,13.0502476 C43.6009347,13.6538521 44.054521,13.7624099 45.0426282,13.6171925 C46.8953292,13.3452294 47.174378,12.9394162 47.1490419,10.5545533 C47.1321512,8.94721472 46.9428344,8.14382964 46.3696055,7.24865347 C44.8005278,4.7972917 45.6042447,2.14870698 48.2754419,0.96792699 C51.8921677,-0.630886059 55.868877,0.847149253 56.3805251,3.98055001 C56.5237443,4.85725429 56.3449842,5.58362581 55.683079,6.81328526 C54.9008275,8.26659666 54.8121512,8.76789531 54.9525553,10.9458731 L55.1126653,13.4248006 L56.7676041,13.4853316 C58.2891766,13.5410315 60.5560522,12.9121347 60.5447918,12.4369809 C60.5423285,12.3386536 60.1594722,11.8683309 59.6935698,11.3914719 C57.6156591,9.26549958 57.3591313,5.76749215 59.1196371,3.56109604 C61.3041704,0.822993706 64.3184605,-0.106000225 68.8106887,0.574049477 C72.9348399,1.19839933 74.6756399,2.00235278 84.7843849,7.95172199 C87.2043326,9.37576255 91.2647918,11.4633702 93.807901,12.5904396 C98.2082859,14.5405027 98.5207643,14.6328622 100.275992,14.500433 C101.972102,14.3722665 102.121655,14.410347 102.135027,14.972745 C102.154733,15.8065376 99.964921,17.8898825 98.3251134,18.597498 C97.5868481,18.916067 96.3622708,19.186325 95.6039478,19.1979765 C94.8456247,19.209628 93.3324976,19.5659933 92.2416385,19.98971 C90.627167,20.6169017 89.9631505,20.729154 88.6703065,20.5927462 C87.5435546,20.4739577 86.8598323,20.5478453 86.3161622,20.8476582 C85.4459381,21.3276432 83.3046873,21.7030488 80.4761952,21.8712851 C74.6545265,22.2177041 72.7022405,22.3802567 72.3880027,22.5436618 C72.1958708,22.6436942 71.82709,23.1574969 71.5684509,23.685793 C71.0465979,24.7511947 69.6460756,26.0641197 68.1874914,26.855285 C67.3095258,27.3312913 67.235277,27.5208413 67.2743368,29.179617 C67.3341581,31.7185071 66.2327423,33.688463 63.3553375,36.1889884 L61.062422,38.1813948 L62.5463423,39.5588294 C64.755156,41.6089249 65.471956,43.0247241 65.5384632,45.4704023 C65.6426227,49.2883996 64.5302983,51.4575678 61.2668701,53.7983824 L59.6253031,54.9760364 L60.7277746,55.8928105 C63.3356316,58.0611261 63.567879,58.520934 63.6181993,61.6139808 C63.6748536,65.1091464 63.1273127,66.1628966 60.1116151,68.3638933 C58.1800907,69.7737247 57.5210007,70.6609437 58.415857,70.6473029 C58.6199533,70.6441769 59.2086653,71.3705485 59.7238323,72.2614619 C61.3485086,75.0708941 60.7077168,78.0278173 57.8936522,80.7110723 C57.1557388,81.4147092 56.553655,82.0609411 56.5557663,82.1473327 C56.5575258,82.2334402 56.9660701,82.769125 57.4636426,83.3374908 C58.1955739,84.1735569 58.3760935,84.7177672 58.4105787,86.1918239 C58.4862351,89.395702 56.0740289,92.0008068 52.9876014,92.0482653 L51.9678241,92.0638954 L51.8031395,95.2527118 C51.6521787,98.1797958 51.4181718,98.8729179 50.5701168,98.9027571 C50.4490667,98.9070198 50.1274392,98.7024081 49.8557801,98.4477803 L49.8557801,98.4477803 Z M50.7826584,91.0703919 C50.684833,86.9213214 50.5067766,84.6961693 50.2731216,84.6998636 C50.0377072,84.703558 49.9831643,86.9568443 50.115123,91.2363547 C50.2298392,94.9477835 50.4497704,97.6981057 50.6246598,97.6071672 C50.7942708,97.5187863 50.8653526,94.5774932 50.7826584,91.0703919 L50.7826584,91.0703919 Z M49.1361649,87.7224331 C49.0348206,85.2119612 48.5590653,84.7140728 47.6635052,86.1804566 C47.0220096,87.2307966 47.2662213,89.1370956 48.2237141,90.5543158 L48.7965911,91.4020334 L49.0119478,90.6881659 C49.1305347,90.2954251 49.1864852,88.9609022 49.1361649,87.7224331 L49.1361649,87.7224331 Z M53.2170337,90.3579454 C53.6994749,89.5954826 53.593556,86.8292462 53.0664247,86.4191702 C52.2644674,85.7959571 52.1251189,86.0880972 52.0681127,88.5101881 C52.0265897,90.2678594 52.1275821,90.9257428 52.4386529,90.9203433 C52.6737155,90.9163648 53.023846,90.663442 53.2170337,90.3579454 L53.2170337,90.3579454 Z M56.0501003,88.9674384 C58.2406158,85.9795393 57.324646,83.7259688 52.7982845,80.9659844 C52.4231698,80.7372172 51.4614543,80.151232 50.6612564,79.6635741 C49.8610584,79.1762004 48.751901,78.2685202 48.1966186,77.646728 C47.3052811,76.6489618 47.1993622,76.3193096 47.2968357,74.840706 L47.4073292,73.1648793 L45.9265759,72.4396446 C45.1119505,72.0409359 44.1892948,71.7186725 43.8757608,71.7232194 C42.3767093,71.7465224 41.7031918,75.4167447 42.8218502,77.4682611 C43.8947629,79.4359436 47.1789526,81.653707 50.5856,82.7111516 C52.3661636,83.2638874 54.4324619,85.003371 54.742477,86.2102958 C54.9990048,87.2094829 54.8744357,88.6494377 54.4109966,90.0368187 C54.1973993,90.6770828 54.2322364,90.710048 54.7481072,90.3548194 C55.0644564,90.1371353 55.6503533,89.5127854 56.0501003,88.9674384 L56.0501003,88.9674384 Z M45.9153155,88.7722047 C45.590521,86.8684634 45.910389,85.6183428 46.9671148,84.6620673 C48.0044866,83.7234112 47.8475436,83.1274796 46.4962859,82.8756935 C45.7094598,82.7290552 45.3878323,82.8478436 44.7132591,83.5341453 C43.984143,84.2761469 43.9127093,84.587043 44.0851354,86.2600278 C44.2185017,87.5527759 44.5341471,88.4672765 45.0855588,89.1581251 C45.5289402,89.7134185 45.9501526,90.1666903 46.0219381,90.1655535 C46.0940756,90.1644168 46.0458667,89.5375093 45.9153155,88.7722047 L45.9153155,88.7722047 Z M56.1968385,79.5635417 C57.9928852,78.2048632 58.8733141,76.5997982 58.8300316,74.7622715 C58.7656357,72.0386625 56.6321265,69.7532635 52.1581966,67.6167764 C49.5760275,66.3837068 47.078312,64.6732098 46.4149993,63.6836849 C45.5972069,62.4639719 45.7066447,60.5644933 46.6630818,59.378598 C47.6167038,58.1955446 47.6437993,58.2285098 44.4247093,56.6697665 C42.2570667,55.6205632 42.1082172,55.6680218 40.6971381,57.8602087 C39.344121,59.9620255 39.2230708,62.1198264 40.3139299,64.6911133 C41.0286186,66.3754655 41.5279505,66.9912898 43.3648165,68.455116 C44.6970722,69.5165392 46.4420948,70.5475547 47.8000385,71.0752824 C52.1779024,72.7761171 54.3272467,74.9944489 53.1114667,76.5571707 C52.8046186,76.9513324 52.5829278,77.8516239 52.6012261,78.6282958 C52.656121,80.9631426 53.9141278,81.2905213 56.1968385,79.5635417 L56.1968385,79.5635417 Z M51.212668,77.792798 C51.2330777,75.4488574 50.870279,74.4581958 49.9965361,74.4715524 C49.5211326,74.4789411 49.7136165,78.2898339 50.2090777,78.675186 C50.9547326,79.2549191 51.2017595,79.0375192 51.212668,77.792798 L51.212668,77.792798 Z M48.9035656,75.1280149 C48.7522529,74.6565554 48.7321952,74.6568396 48.4883354,75.1342669 C48.3472275,75.4102085 48.3577842,75.8575124 48.5115601,76.1289071 C48.7779409,76.5983773 48.7979986,76.5980931 48.9267904,76.1223709 C49.0013911,75.8478502 48.9908344,75.4002621 48.9035656,75.1280149 L48.9035656,75.1280149 Z M57.926378,68.1675229 C60.3688467,66.9159813 61.8295423,64.6436548 61.9878928,61.8492843 C62.0945155,59.9716878 62.0023203,59.6232795 60.9762089,58.0176461 C60.3554749,57.0463089 59.4782131,55.9922745 59.0267381,55.6756947 C57.8461471,54.8473015 52.7226282,52.1467114 51.2601732,51.5820399 C50.5764509,51.318034 49.0133553,50.5879681 47.7866667,49.9593555 C45.8702735,48.9775035 45.452932,48.606929 44.8209375,47.3249799 C43.6195849,44.8881115 43.8180509,43.1909711 45.4835464,41.6552467 C46.4354089,40.7779741 46.0905567,40.3352171 43.7480247,39.426116 L41.7302873,38.6429079 L40.5226007,39.7983956 C38.6470268,41.5932948 38.0375533,43.0815607 38.0998378,45.7165047 C38.1459354,47.6711147 38.3123794,48.2528371 39.2681127,49.7936769 C40.5711615,51.8952095 42.9967395,53.8529455 45.9427629,55.1815006 C50.4040247,57.1929473 54.0172316,59.1987103 54.6675244,60.0242616 C55.0419354,60.4994154 55.3603959,61.3729937 55.3748234,61.9652309 C55.4029746,63.097984 54.4725773,64.946878 53.5516811,65.588563 C52.6343038,66.2276903 52.9598021,66.9586088 54.5464742,67.8211039 C56.3558928,68.804661 56.6286076,68.8325109 57.926378,68.1675229 L57.926378,68.1675229 Z M51.5547052,63.9309241 C51.5719478,60.0882028 51.5497787,60.004653 50.3917086,59.5434241 L49.3258337,59.1188549 L49.3962117,62.0982285 C49.4599038,64.7999554 49.5397828,65.1310285 50.2520082,65.6471047 C50.6844811,65.95999 51.152143,66.1177116 51.2921952,65.997218 C51.4318955,65.8770086 51.5501306,64.9471621 51.5547052,63.9309241 L51.5547052,63.9309241 Z M53.7744275,62.9931205 C53.8075052,61.4394925 53.0917608,61.6310318 53.0083629,63.1980163 C52.950301,64.2963833 53.0266612,64.5424857 53.3437141,64.2787639 C53.5696275,64.090919 53.763167,63.5123226 53.7744275,62.9931205 L53.7744275,62.9931205 Z M48.400011,61.3695835 C47.8799175,60.9654754 47.5083216,62.1368774 47.8556371,63.0846274 C48.128,63.8277657 48.1389086,63.8215136 48.4492756,62.7475864 C48.6597058,62.0189414 48.643167,61.5588493 48.400011,61.3695835 L48.400011,61.3695835 Z M59.3539959,52.0222392 C62.2500509,50.2358655 63.5914557,47.9041447 63.5643601,44.7028242 C63.5534515,43.4049609 63.3366873,42.525699 62.8348921,41.7464694 C62.1480027,40.6796468 59.0869113,37.9500699 58.5858199,37.9577429 C58.4521017,37.9597321 57.3147931,37.4749161 56.0585457,36.8801213 C54.777666,36.2736749 51.9319313,35.3571851 49.5802502,34.7936503 C44.8424027,33.6583396 41.6898199,32.3241009 40.0887203,30.7764407 C39.2181443,29.934691 38.9602089,29.3813868 38.806433,28.0246976 C38.6037443,26.2351978 38.8676619,25.9507308 39.9043299,26.8410758 C41.3477828,28.0809658 44.873721,27.6660588 46.3572893,26.0820233 C47.1377814,25.2485148 47.0505127,24.6528674 46.1042804,24.3533386 C43.5157773,23.5340393 40.460668,23.8568711 38.1501581,25.1936675 C35.2241924,26.8865451 34.4440522,29.6715376 36.1676096,32.271527 C37.7926378,34.723173 40.0552907,36.0321195 47.7275491,38.9594876 C54.1861388,41.4239218 55.3494873,42.0056442 56.3664495,43.2796362 C57.7634529,45.0299187 56.9762749,47.7879139 54.5506969,49.6399339 C53.1997911,50.6712337 53.0812041,51.1156958 53.9915436,51.7340778 C54.8297457,52.3035803 56.6345897,53.0265416 57.2303395,53.0316569 C57.4949608,53.0336462 58.4503423,52.5795219 59.3539959,52.0222392 L59.3539959,52.0222392 Z M41.3924729,25.2584612 C40.9483876,24.9131789 41.5061333,24.5769906 42.5494873,24.5607921 C43.1184935,24.5519825 43.587211,24.6727602 43.5907299,24.8290608 C43.5946007,24.9853614 43.37291,25.1166539 43.0987876,25.1209167 C42.8243134,25.1251794 42.3819876,25.1999195 42.1163107,25.2868795 C41.8502818,25.3741236 41.5247835,25.3613354 41.3924729,25.2584612 L41.3924729,25.2584612 Z M52.0181443,46.8214078 C52.1845883,43.1116841 52.1779024,43.0704776 51.34709,42.5728733 C50.259046,41.9212419 49.2621416,41.6771288 48.9482557,41.9857514 C48.8110186,42.1207383 48.8300206,43.9284258 48.9904825,46.0032452 C49.2726983,49.6581216 49.3096467,49.7868565 50.1707216,50.1494739 C51.7989168,50.8354914 51.8411436,50.7593304 52.0181443,46.8214078 L52.0181443,46.8214078 Z M54.8617677,48.1613302 C55.7559203,47.0126629 55.7967395,45.9043496 54.982466,44.8918059 C54.5725141,44.3822659 54.0833869,44.0455092 53.8951258,44.1435523 C53.4478735,44.3765822 53.5502735,48.8359805 54.0028041,48.8291601 C54.1917691,48.8260341 54.5784962,48.5256527 54.8617677,48.1613302 L54.8617677,48.1613302 Z M47.9597966,45.9373148 C47.9084206,43.7562109 47.7972234,43.2395664 47.3805856,43.2461026 C46.7799093,43.2551965 46.3323052,43.8900611 46.0233457,45.1714418 C45.868866,45.8114218 46.0240495,46.4681685 46.5416797,47.3664706 C47.6782845,49.3392684 48.0312302,48.9831872 47.9597966,45.9373148 L47.9597966,45.9373148 Z M59.814268,36.4799917 C63.1252014,35.0289538 65.9075959,31.6778689 66.1176742,28.8886137 C66.2373168,27.3011679 66.1658832,27.1025241 65.1024715,26.0618463 C63.3380948,24.3348667 61.475189,23.601959 58.9144852,23.6278196 C56.5811024,23.6511226 54.7407175,24.23114 54.5774405,24.9947394 C54.52149,25.2556194 54.9462213,25.8779799 55.5212096,26.3781418 C56.4322529,27.170728 56.8355189,27.2991787 58.6614763,27.3776131 C60.5236784,27.4577527 60.8755684,27.383581 61.8284866,26.7106359 C62.4179024,26.2943079 62.9981691,25.9521517 63.1178117,25.9501624 C63.4155107,25.9456155 63.0147079,28.234993 62.5941993,28.9426084 C61.3766598,30.9904305 58.1987409,33.2044995 55.3142983,34.0141366 C53.5291601,34.5154353 53.7557773,35.0477099 56.1732619,36.0318353 C58.3458309,36.9164967 58.7149636,36.9619659 59.814268,36.4799917 L59.814268,36.4799917 Z M58.6403629,24.9702997 C57.6431065,24.7762028 57.9179326,24.3246361 59.0436289,24.307301 C60.214367,24.2893975 60.761556,24.702031 59.9293361,24.9745625 C59.6267107,25.0737423 59.3518845,25.1405253 59.3188069,25.1229059 C59.2860811,25.1052866 58.9806405,25.0365143 58.6403629,24.9702997 L58.6403629,24.9702997 Z M52.303879,34.003906 C52.425633,32.9660701 52.5100866,30.9847468 52.7184055,24.2624001 C52.844734,20.1960268 53.0055478,16.7156387 53.0759258,16.528078 C53.1466557,16.3408015 53.1966241,14.6771947 53.1874749,12.8314267 L53.1709361,9.47522657 L50.7559148,9.31665251 C49.4278818,9.22912417 48.2930364,9.19786405 48.2342708,9.24702769 C48.175857,9.29647552 48.1807835,14.7166962 48.2451794,21.2924045 C48.3377265,30.6749874 48.4587766,33.2965748 48.8089072,33.4719156 C49.3926928,33.7643398 51.260877,34.2980354 51.8217897,34.3327057 C52.06389,34.3474832 52.2810062,34.1997081 52.303879,34.003906 L52.303879,34.003906 Z M56.2066914,32.8990029 C57.7979381,32.2789158 60.2667986,30.5147083 60.2548344,30.0063051 C60.2506117,29.8321009 60.009567,29.6931355 59.7196096,29.6973982 C59.4293003,29.7019452 59.2280192,29.558717 59.2720055,29.3791134 C59.3163436,29.1995098 58.8011766,28.9409033 58.1273072,28.8044955 C57.4537897,28.6678035 56.3333718,28.1667891 55.6376852,27.6913511 L54.3726405,26.8262983 L54.3089485,28.6211976 C54.2741113,29.6081648 54.3254873,30.4783329 54.4233127,30.5544939 C54.52149,30.6303707 55.3178172,30.483164 56.1933196,30.2271152 C58.3599065,29.5936715 58.2156316,30.0327341 55.9674062,30.9139853 C54.1893058,31.6113701 53.6889182,32.1970711 54.1266694,33.0686601 C54.3874199,33.5872939 54.454279,33.5818944 56.2066914,32.8990029 L56.2066914,32.8990029 Z M47.5547711,32.3905997 C47.2964838,31.879923 43.008,29.9542996 42.1581856,29.967372 C41.5476564,29.97675 41.5891794,30.0756457 42.5195766,30.8307197 C44.7129072,32.6105572 48.2149168,33.6952834 47.5547711,32.3905997 L47.5547711,32.3905997 Z M47.3154859,30.5274965 C47.55829,29.6672748 47.577644,27.0417089 47.3411739,27.0454033 C47.2173086,27.0471084 46.6190955,27.3645407 46.0120852,27.7504611 C45.404723,28.1363815 44.3705182,28.637396 43.7131876,28.8636056 L42.518521,29.2748182 L44.6224715,30.1123053 C47.2187162,31.1455943 47.1441155,31.1339428 47.3154859,30.5274965 L47.3154859,30.5274965 Z M68.4387409,24.3109954 C69.2530144,23.5982646 70.1742625,22.68689 70.486389,22.2859079 C71.0451904,21.5677777 71.0275959,21.5353809 69.3103725,20.0954261 C68.3518241,19.2914726 67.4442997,18.592951 67.2940426,18.543219 C67.1437856,18.493487 66.3164921,18.9726194 65.4557691,19.6083366 C63.1269608,21.3284957 61.6845636,21.8235424 58.8314392,21.882084 C57.4770144,21.909934 55.9716289,21.8746953 55.4860206,21.8039337 C54.6787849,21.6865662 54.6052399,21.7607379 54.6267052,22.6698391 C54.6523931,23.7656484 54.6069993,23.7574071 57.4189526,23.1756846 C59.6421938,22.7158767 62.6895615,23.353299 64.6256605,24.683275 C65.3586474,25.1868471 66.1831258,25.6006174 66.4583038,25.6028909 C66.7334818,25.6051643 67.6248192,25.0237261 68.4387409,24.3109954 L68.4387409,24.3109954 Z M37.2232797,24.8159884 C37.4414515,24.5951783 38.435189,24.1163301 39.4317416,23.7520076 C40.9181251,23.2083657 41.6398515,23.1131644 43.4534928,23.2220065 C44.6692729,23.2947573 45.9635244,23.4780553 46.3301938,23.6292406 C47.1624137,23.9728177 47.436888,23.7531443 47.4136632,22.7624827 L47.3953649,21.9869475 L44.4929759,22.038953 C42.2697347,22.0790228 41.2080825,21.95654 39.955354,21.5154881 C38.4358928,20.9806558 36.0564124,19.2397513 35.1221443,17.979116 C34.7501966,17.4775331 34.6038103,17.5437477 33.1195381,18.8808283 C32.2387574,19.674267 31.5223093,20.4887352 31.5268838,20.6905051 C31.545534,21.4791127 33.0421223,23.2737277 34.4771299,24.228014 C36.1194007,25.3201289 36.6190845,25.4272658 37.2232797,24.8159884 L37.2232797,24.8159884 Z M76.3801952,21.0261251 C77.2176935,20.7516044 77.0445636,20.4426976 75.6894351,19.7947606 C75.0116948,19.470792 73.7058309,18.3292293 72.787046,17.2581439 C71.2957361,15.5192287 70.9955739,15.3126277 69.9828344,15.3279736 C67.5146777,15.3660541 67.4221306,16.5695687 69.7389746,18.4954763 C71.500888,19.9595867 72.8451079,20.6342369 74.6474887,20.9596263 C75.2309223,21.064774 75.7348289,21.1636696 75.7679065,21.1790155 C75.8006323,21.1946456 76.0761622,21.1258733 76.3801952,21.0261251 L76.3801952,21.0261251 Z M46.1714914,20.3690942 C47.123354,20.2000054 47.3260426,19.5009154 47.2637581,16.6053758 L47.2134378,14.2654137 L45.1101911,14.475709 L43.0069443,14.6860044 L41.3900096,13.4290634 C39.3810694,11.8671941 39.2688165,11.048179 40.9065127,9.89752237 C42.4822763,8.79034576 43.1832412,7.52004815 43.1434777,5.84280062 C43.1149746,4.62678195 42.9351588,4.29315121 41.7633649,3.28231261 C39.9789306,1.74289378 37.6729952,1.09808276 34.3761375,1.21658704 C32.220811,1.29388479 31.4779711,1.4749093 28.9521045,2.53860593 C27.3422076,3.21638217 25.1453581,4.26643802 24.0699821,4.8720318 C22.9946062,5.47762558 20.8062021,6.70984268 19.2068619,7.61013413 C12.8707299,11.1769138 9.57774296,12.7288367 3.4179079,15.0503269 L2.0268866,15.5749285 L3.03364399,15.9813101 C4.87578832,16.7250168 7.60152852,16.7201857 10.0299216,15.9688061 C14.1315519,14.6996452 25.0457732,8.92135408 26.0483079,7.48821967 C26.8692674,6.31454425 27.3235574,6.60753683 27.3643766,8.33678983 C27.4424962,11.6472365 31.2481869,14.4944651 35.5152055,14.4347867 C36.144033,14.425977 36.6616632,14.5467548 36.6651821,14.7030554 C36.6690529,14.859356 36.492756,14.9897959 36.2738804,14.9932061 C35.6359038,15.0031525 36.1992797,17.1282723 37.0994144,18.1095559 C38.1399533,19.2434457 40.3561567,20.3111209 42.2007643,20.5677381 C43.5611711,20.7567197 44.1558653,20.7271647 46.1714914,20.3690942 L46.1714914,20.3690942 Z M84.6541856,19.9411148 C84.6506667,19.7885085 84.2072852,19.4565829 83.6692454,19.2036601 C81.1282474,18.0092393 79.3614076,16.9901594 78.0168357,15.9432296 C75.0753869,13.6527153 75.1978447,13.7024473 73.9862873,14.3060518 C73.3996866,14.5979077 72.9246351,15.04578 72.9306172,15.300692 C72.9478598,16.0310421 77.0262653,18.869461 79.0929155,19.5898647 C81.004734,20.2562736 84.6672055,20.4875985 84.6541856,19.9411148 L84.6541856,19.9411148 Z M29.0682282,19.9223587 C29.7512467,19.6299345 31.0479615,18.8364958 31.9495038,18.1595721 C34.6199973,16.1540933 34.7097292,15.5081456 32.3619189,15.1895765 C31.0740014,15.014804 30.96949,15.0673779 28.710356,17.0197145 C27.4312357,18.125186 25.9543533,19.2641911 25.4289814,19.5506474 C24.3251024,20.152831 24.2279808,20.482199 25.1031313,20.6564031 C26.003266,20.8354384 27.6451849,20.5316468 29.0682282,19.9223587 L29.0682282,19.9223587 Z M60.8980893,19.9857315 C62.9489045,19.5350174 65.0489842,17.9808211 65.7598021,16.3879758 C66.2225375,15.3507082 66.2454103,15.025603 65.8801485,14.6837309 C65.632066,14.4512693 65.4877911,14.2557515 65.5595766,14.2494995 C65.6317141,14.2429632 66.9016852,14.1915261 68.3820866,14.1349737 C70.7781058,14.0434668 71.2387299,13.931783 72.5815423,13.116178 C74.9159808,11.6978211 76.1236674,9.28738167 75.5029333,7.2847447 C75.203123,6.31823863 76.3791395,6.93775737 76.9358296,8.03981869 C77.5474144,9.25043789 80.364646,11.1933964 86.2074282,14.4333658 C90.9477388,17.0620577 96.6726378,18.091084 99.0971601,16.7503091 C100.405135,16.0270635 100.284085,15.5806122 98.6819299,15.2196999 C95.2379821,14.4435964 88.5942983,11.3099114 81.2496495,6.99686742 C71.7954199,1.4450701 68.5246021,0.428263645 63.1945237,1.38482332 C62.0730502,1.58602482 59.9525608,3.23570661 59.4212069,4.32071696 C58.4471753,6.30829223 59.1639753,8.60818451 61.2876316,10.3093034 L62.6276289,11.3826623 L61.8601567,12.331549 C60.2931904,14.2688239 58.2677113,14.902836 55.5732893,14.2995156 L54.6003134,14.0815474 L54.6675244,16.9455427 L54.7350873,19.8095381 L55.884712,20.0587665 C57.4837003,20.4049013 59.097468,20.3815983 60.8980893,19.9857315 L60.8980893,19.9857315 Z M90.4132179,19.1050486 C91.0054488,18.9112359 91.1676701,18.1291645 90.6137952,18.13769 C89.932888,18.1482048 82.8405443,14.2719499 80.2960275,12.4986485 C77.5702873,10.59917 76.9111973,10.3570461 76.5652893,11.1288869 C76.0497704,12.2789752 76.4322749,13.0209767 78.2779381,14.452406 C82.5826089,17.7909869 88.0390158,19.8831414 90.4132179,19.1050486 L90.4132179,19.1050486 Z M23.046334,19.0416759 C23.9116316,18.6685437 25.8301361,17.6037103 27.3098337,16.6752848 L30.000033,14.9872383 L28.8454818,14.0613704 C28.2106722,13.5521146 27.5656577,13.1374917 27.4122337,13.1397652 C27.2588096,13.1420387 26.3143368,13.764115 25.3132096,14.5220309 C22.992143,16.2799863 20.4300316,17.8410031 18.5446048,18.6466616 C16.771079,19.4042932 16.6781801,19.7654897 18.2219216,19.8993399 C19.9124014,20.0459783 21.2823093,19.8024335 23.046334,19.0416759 L23.046334,19.0416759 Z M17.200033,17.5980267 C19.0745512,16.8392583 26.7640522,12.7336678 26.758422,12.49467 C26.7485691,12.0706691 25.5127313,9.75827275 25.2977265,9.76139876 C25.1471175,9.76367222 23.014312,11.0308438 20.5577677,12.577083 C16.6757168,15.0213402 11.8791038,17.3576079 10.7066062,17.3757956 C9.87192302,17.3885839 10.4201677,17.9498451 11.494488,18.1825909 C13.5291162,18.6233586 15.0524481,18.4673422 17.200033,17.5980267 L17.200033,17.5980267 Z M54.1231505,7.053704 C56.5782873,4.5844387 54.6168522,1.35242647 50.6996124,1.41267324 C49.1819107,1.43597624 48.7987024,1.56868966 47.779277,2.42379604 C46.7739271,3.26753509 46.6102983,3.6017342 46.6377457,4.75921119 C46.6662488,5.97466149 46.819321,6.22104807 48.1593182,7.21227806 C49.5739162,8.25807117 49.7396564,8.30552971 51.424154,8.14866075 C52.8852014,8.01253713 53.3616605,7.81929276 54.1231505,7.053704 L54.1231505,7.053704 Z M50.767879,6.85562851 C50.64331,6.69961209 50.8674639,6.48306472 51.2661553,6.37422266 C52.3394199,6.0809459 53.2318131,4.34458832 52.6680852,3.64578255 C51.7654873,2.52638607 52.6138942,2.04043329 53.7571849,3.02228524 C54.6038323,3.74950931 54.5387326,5.16701366 53.6185402,6.03121389 C52.7697814,6.82834695 51.1257512,7.30378496 50.767879,6.85562851 L50.767879,6.85562851 Z" id="path16479"></path>
                                    </g>
                                </g>
                            </g>
                        </g>
                    </g>
                </g>
            </g>
        </g>
    </g>
</svg>