<?xml version="1.0" encoding="UTF-8" standalone="no"?>
<svg width="191px" height="191px" viewBox="0 0 191 191" version="1.1" xmlns="http://www.w3.org/2000/svg" xmlns:xlink="http://www.w3.org/1999/xlink">
    <!-- Generator: Sketch 3.7.2 (28276) - http://www.bohemiancoding.com/sketch -->
    <title>Caduceus Icon Copy</title>
    <desc>Created with Sketch.</desc>
    <defs></defs>
    <g id="Page-1" stroke="none" stroke-width="1" fill="none" fill-rule="evenodd">
        <g id="ABOUT-Page--MINDFULNESS" transform="translate(-405.000000, -102.000000)">
            <g id="Hero" transform="translate(112.000000, 102.000000)">
                <g id="Caduceus-Icon-Copy" transform="translate(295.000000, 2.000000)">
                    <ellipse id="Caducues" stroke="#FFFFFF" stroke-width="3" fill="#3694F3" cx="93.5" cy="93.3543958" rx="93.5" ry="93.2256886"></ellipse>
                    <g id="Caduceus" transform="translate(18.700000, 20.509652)" fill="#FFFFFF">
                        <g id="layer1" transform="translate(0.000000, 0.000000)">
                            <path d="M72.8361787,160.577177 C72.337512,160.056172 72.0861223,158.478323 72.0223753,155.4691 L71.9308674,151.115183 L69.8570309,150.309108 C65.248734,148.517109 63.3337512,145.760509 63.2283629,140.768777 C63.1728412,138.1466 63.3779629,137.31874 64.4482969,135.838695 C65.8245141,133.935913 65.8255423,133.941012 63.3769347,131.609467 C59.9865155,128.380995 59.023112,120.406462 61.7010034,117.736078 C62.2618749,117.177063 62.7163299,116.508656 62.711189,116.250935 C62.705534,115.993213 61.6100096,114.565084 60.2764619,113.077159 C56.1359863,108.457177 55.6188124,107.292332 55.4933746,102.299209 C55.392099,98.2781051 55.5062268,97.69406 56.8140701,95.5544154 C57.6011409,94.2658079 58.9069278,92.5539995 59.7150763,91.7502422 L61.1843436,90.2892023 L59.2585649,88.2890796 C58.1990268,87.189128 56.7127945,85.1486783 55.9555409,83.75485 C54.7371491,81.5109116 54.5628729,80.610277 54.4353787,75.8915633 C54.310455,71.2701905 54.44309,70.2439398 55.4347684,68.1636267 C56.0640137,66.8439629 57.2433347,65.1678461 58.0555959,64.4387168 C59.4873347,63.1538176 59.983945,61.887923 59.0498447,61.9041464 C58.798455,61.9083182 57.2947436,60.8032678 55.7077498,59.4479123 C51.3061168,55.6877742 48.9330804,49.096408 50.6156948,45.30475 L51.3652371,43.615191 L49.4302048,42.2528826 C47.5316729,40.9165317 46.4705924,39.4791318 44.8897677,36.0995502 L44.0970419,34.4058193 L41.5075739,35.2016967 C39.0260646,35.9642 38.8029498,35.9586377 36.1934323,35.0677371 C34.4866557,34.4846191 32.3876289,34.166639 30.5718653,34.2157729 C28.5345292,34.2709327 26.9305704,33.9853996 25.1703285,33.2544161 C23.7935973,32.6819592 21.6380206,32.1771774 20.3810722,32.1317516 C18.8496,32.0770553 17.135112,31.5402901 15.1872275,30.5070865 C13.1113347,29.4057443 11.6538914,28.9686375 10.0941443,28.9797622 C7.62548729,28.9978397 3.57497732,27.3064266 1.42814021,25.3614636 L0.0642611684,24.1261619 L2.91025979,23.5003993 C6.37779244,22.7378959 15.5542873,18.3988116 21.7454653,14.5937113 C24.2578199,13.0497 29.511299,9.80917669 33.4194062,7.3923424 C42.1388756,2.00058627 42.7974241,1.68121557 46.8032082,0.899244059 C56.0778942,-0.911759311 63.4982598,2.81824942 64.8415753,9.96723969 C65.3597773,12.7224493 64.5506007,15.1582883 62.3538969,17.45785 C61.4244234,18.430795 60.6676838,19.4162552 60.6728247,19.6475556 C60.6774515,19.8793196 61.4321347,20.6163289 62.3497842,21.2861266 C63.6982405,22.2706598 64.3609017,22.4477275 65.8044646,22.2108647 C68.511145,21.7672686 68.9188179,21.1053508 68.8818034,17.2154249 C68.8571271,14.5937113 68.5805471,13.283318 67.7430955,11.8232053 C65.4507711,7.8248139 66.6249512,3.50473419 70.5274034,1.57877591 C75.8112137,-1.02903186 81.6209375,1.38177657 82.3684234,6.49263481 C82.5776577,7.92261828 82.3165003,9.1073955 81.3494983,11.1130806 C80.2066777,13.4835621 80.0771271,14.3012252 80.2822488,17.8537028 L80.5161595,21.8970564 L82.9339216,21.9957878 C85.156844,22.0866393 88.4686076,21.0608521 88.4521567,20.2858335 C88.4485581,20.1254529 87.8892289,19.3583142 87.2085746,18.5805145 C84.172877,15.1128625 83.7981058,9.40729803 86.3700948,5.80846768 C89.5615615,1.3423767 93.9652509,-0.172895894 100.528115,0.936326288 C106.553243,1.95469701 109.096443,3.26601734 123.864687,12.9699732 C127.40008,15.2927113 133.332157,18.697787 137.04748,20.5361386 C143.476168,23.7168668 143.932679,23.8675133 146.496957,23.6515093 C148.974867,23.4424583 149.193355,23.504571 149.212891,24.4218926 C149.24168,25.7818834 146.042502,29.1800062 143.646845,30.3341906 C142.568286,30.8538053 140.779255,31.2946203 139.671392,31.313625 C138.56353,31.3326296 136.352946,31.9138935 134.759269,32.6050136 C132.400627,33.6280196 131.43054,33.8111131 129.541776,33.5886197 C127.895662,33.3948651 126.896786,33.5153823 126.102518,34.0044042 C124.831175,34.7873028 121.702942,35.3996231 117.570691,35.6740316 C109.065597,36.2390721 106.21343,36.50421 105.754348,36.7707385 C105.473655,36.9339003 104.934889,37.7719587 104.557034,38.633657 C103.794639,40.371423 101.748564,42.5129217 99.6176632,43.8033833 C98.3350103,44.5797925 98.2265375,44.8889656 98.2836014,47.5945777 C98.3709966,51.7357357 96.7618969,54.9489108 92.5581883,59.0274925 L89.2083821,62.2772864 L91.3762969,64.5240059 C94.6032357,67.867896 95.6504357,70.1771918 95.7475986,74.1663126 C95.8997691,80.3938095 94.2747326,83.9319177 89.507068,87.7499967 L87.1088412,89.6708562 L88.7194832,91.1661971 C92.5293993,94.7029147 92.8686983,95.4529028 92.9422131,100.49794 C93.0249814,106.198869 92.2250584,107.917631 87.8193127,111.507654 C84.9974763,113.807216 84.0345869,115.25435 85.3419162,115.2321 C85.640088,115.227002 86.5001595,116.411779 87.2527863,117.864939 C89.6263368,122.447375 88.6901801,127.270383 84.5790076,131.647013 C83.5009622,132.794708 82.6213553,133.84877 82.6244399,133.989682 C82.6270103,134.130131 83.223868,135.003881 83.9507904,135.930937 C85.0200962,137.294636 85.2838241,138.182292 85.3342048,140.586611 C85.444734,145.812424 81.9206515,150.061584 77.4115739,150.138993 L75.921743,150.164487 L75.6811491,155.365733 C75.4606048,160.140071 75.1187354,161.270615 73.8797801,161.319285 C73.7029333,161.326238 73.2330557,160.992498 72.8361787,160.577177 L72.8361787,160.577177 Z M74.19029,148.543994 C74.0473732,141.776487 73.787244,138.147064 73.4458887,138.15309 C73.1019629,138.159116 73.022279,141.834428 73.2150625,148.814694 C73.3826557,154.868368 73.7039615,159.354391 73.9594639,159.206062 C74.207255,159.061905 74.311101,154.264391 74.19029,148.543994 L74.19029,148.543994 Z M71.784866,143.083172 C71.6368082,138.988367 70.9417595,138.176266 69.6334021,140.56807 C68.6962172,142.281269 69.0529952,145.390614 70.4518323,147.702227 L71.2887698,149.084931 L71.6033924,147.920549 C71.7766405,147.279953 71.8583808,145.103227 71.784866,143.083172 L71.784866,143.083172 Z M77.7467601,147.38193 C78.4515766,146.138284 78.2968357,141.626304 77.5267299,140.957433 C76.3551203,139.940917 76.1515409,140.417423 76.0682584,144.368071 C76.0075959,147.234991 76.1551395,148.308058 76.6095945,148.299251 C76.9530062,148.292762 77.4645251,147.880222 77.7467601,147.38193 L77.7467601,147.38193 Z M81.8856935,145.113888 C85.0858997,140.240356 83.7477251,136.56458 77.1349938,132.062797 C76.5869746,131.689657 75.1819684,130.733863 74.0129292,129.938449 C72.84389,129.143499 71.2234804,127.662991 70.4122474,126.648792 C69.1100591,125.021345 68.9553182,124.483653 69.097721,122.071917 L69.259145,119.338494 L67.095857,118.155571 C65.9057402,117.505241 64.5577979,116.9796 64.0997443,116.987017 C61.9097237,117.025026 60.9257567,123.011488 62.5600467,126.357696 C64.1275052,129.567163 68.925501,133.184535 73.9024,134.909322 C76.5036921,135.810883 79.5224247,138.648137 79.9753375,140.61674 C80.3501086,142.246504 80.168121,144.5952 79.4910653,146.858143 C79.1790131,147.902471 79.2299079,147.956241 79.9835629,147.376831 C80.4457292,147.021768 81.301688,146.003398 81.8856935,145.113888 L81.8856935,145.113888 Z M67.0794062,144.795444 C66.6049017,141.690271 67.0722089,139.651212 68.6160192,138.091441 C70.1315546,136.560408 69.9022708,135.58839 67.9281677,135.177704 C66.7786639,134.938524 66.3087863,135.132279 65.323277,136.251698 C64.2580838,137.46197 64.1537237,137.969069 64.4056275,140.697858 C64.6004674,142.806446 65.0616055,144.298079 65.8671835,145.424915 C66.5149361,146.330648 67.130301,147.069975 67.2351753,147.068121 C67.3405636,147.066267 67.2701333,146.043725 67.0794062,144.795444 L67.0794062,144.795444 Z M82.1000687,129.775287 C84.7239808,127.55916 86.0102323,124.941155 85.9469993,121.943984 C85.852921,117.501533 82.7359973,113.773842 76.1998653,110.289039 C72.4274777,108.277792 68.7784715,105.487818 67.8094131,103.873813 C66.6146694,101.884352 66.7745512,98.7861316 68.171846,96.8518299 C69.5650282,94.9221634 69.6046131,94.9759326 64.9017237,92.4334822 C61.7349333,90.7221374 61.5174735,90.7995465 59.4559753,94.3752005 C57.4793017,97.8034526 57.302455,101.32302 58.896132,105.51702 C59.9402474,108.264349 60.6697402,109.268814 63.3532866,111.656446 C65.2996289,113.387723 67.8489979,115.069402 69.8328687,115.930173 C76.2286543,118.704388 79.368712,122.322686 77.5925333,124.871626 C77.1442474,125.514539 76.8203711,126.982995 76.8471038,128.249817 C76.9273017,132.058162 78.7651711,132.592146 82.1000687,129.775287 L82.1000687,129.775287 Z M74.8185072,126.887045 C74.8483244,123.063867 74.3182983,121.448009 73.0418144,121.469795 C72.3472797,121.481847 72.6284866,127.697755 73.3523244,128.326299 C74.4416797,129.271896 74.8025704,128.917297 74.8185072,126.887045 L74.8185072,126.887045 Z M71.4450529,122.540544 C71.2239945,121.771551 71.1946914,121.772015 70.8384275,122.550742 C70.6322777,123.000827 70.6477003,123.73042 70.8723574,124.173089 C71.261523,124.938837 71.2908261,124.938374 71.4789828,124.162428 C71.5879698,123.71466 71.5725471,122.984604 71.4450529,122.540544 L71.4450529,122.540544 Z M84.6268179,111.187356 C88.195112,109.145979 90.3290969,105.439611 90.5604371,100.881741 C90.7162062,97.8192125 90.5815148,97.2509273 89.0824302,94.6319949 C88.1755766,93.0476567 86.8939519,91.3284318 86.2343753,90.8120618 C84.5096055,89.460878 77.0244646,85.0559727 74.8879093,84.1349429 C73.8890337,83.7043255 71.6054488,82.5135224 69.8133333,81.4881988 C67.0136027,79.88671 66.4038928,79.2822696 65.4805883,77.1912954 C63.7254873,73.216544 64.0154337,70.4483556 66.4486186,67.943451 C67.8392302,66.5125405 67.3354227,65.7903641 63.9131299,64.3075384 L60.9653416,63.0300556 L59.2009869,64.9147599 C56.4608907,67.8424019 55.570488,70.2698974 55.6614818,74.5677277 C55.7288275,77.7558724 55.9719918,78.7047139 57.3682584,81.217962 C59.2719313,84.6457506 62.8155491,87.838994 67.1195052,90.0059868 C73.6371299,93.286837 78.9157993,96.5584167 79.8658364,97.9049652 C80.4128275,98.6799838 80.8780784,100.104868 80.899156,101.07086 C80.9402832,102.918483 79.5810309,105.934195 78.2356591,106.980841 C76.8954282,108.023315 77.3709608,109.215509 79.6889897,110.622316 C82.3324371,112.226586 82.7308564,112.272011 84.6268179,111.187356 L84.6268179,111.187356 Z M75.3182021,104.277083 C75.3433924,98.0092589 75.3110048,97.8729817 73.6191368,97.120676 L72.0619601,96.4281654 L72.164778,101.287792 C72.2578282,105.694551 72.3745265,106.234561 73.4150433,107.076328 C74.0468591,107.586672 74.7300838,107.84393 74.9346914,107.647394 C75.1387849,107.451322 75.3115189,105.934658 75.3182021,104.277083 L75.3182021,104.277083 Z M78.5610777,102.747441 C78.6094021,100.213334 77.5637443,100.525752 77.4419052,103.081644 C77.3570804,104.87318 77.4686378,105.274595 77.9318323,104.844441 C78.2618777,104.538049 78.5446268,103.594306 78.5610777,102.747441 L78.5610777,102.747441 Z M70.7093911,100.099306 C69.949567,99.4401695 69.4066887,101.350831 69.9140948,102.896697 C70.312,104.108822 70.3279368,104.098625 70.7813636,102.346953 C71.088789,101.158467 71.0646268,100.408016 70.7093911,100.099306 L70.7093911,100.099306 Z M86.7124784,84.8529475 C90.9434337,81.9392114 92.9031423,78.1359652 92.8635574,72.9143238 C92.8476206,70.7973921 92.5309416,69.3632368 91.7978502,68.0922434 C90.7943478,66.3521598 86.3222845,61.8999747 85.5902213,61.9124899 C85.3948674,61.9157346 83.7333306,61.1249561 81.8980316,60.1547923 C80.0267464,59.1656238 75.8693058,57.6707464 72.4336467,56.7515707 C65.5119478,54.8997769 60.9062213,52.7235135 58.5671148,50.1991408 C57.2952577,48.8261712 56.9184302,47.9236825 56.6937732,45.7108005 C56.3976577,42.7919655 56.7832247,42.3279741 58.297732,43.7802069 C60.4065265,45.802579 65.5577017,45.1258283 67.7251024,42.542124 C68.8653526,41.1825967 68.7378584,40.2110423 67.3554722,39.722484 C63.5738309,38.3861331 59.1105072,38.9127008 55.7349966,41.0931359 C51.4603436,43.8543714 50.3206076,48.3969444 52.8386172,52.6377609 C55.2126818,56.6366158 58.5182763,58.7716251 69.7269663,63.5464257 C79.1625622,67.5661393 80.8621416,68.5149809 82.3478598,70.5929763 C84.3887945,73.4478444 83.2387766,77.9463823 79.6951588,80.9671934 C77.7215698,82.6493361 77.5483216,83.3742936 78.8782708,84.3829303 C80.1028316,85.3118401 82.7395959,86.491055 83.6099491,86.4993985 C83.9965443,86.5026432 85.3922969,85.7619257 86.7124784,84.8529475 L86.7124784,84.8529475 Z M60.4718158,41.1988202 C59.8230351,40.6356339 60.6378667,40.0872804 62.1621416,40.0608593 C62.9934241,40.0464899 63.6781911,40.2434893 63.683332,40.4984296 C63.6889869,40.7533699 63.3651107,40.9675198 62.9646351,40.9744727 C62.5636454,40.9814256 61.9174351,41.1033335 61.5292976,41.245173 C61.140646,41.3874761 60.6651134,41.3666173 60.4718158,41.1988202 L60.4718158,41.1988202 Z M75.9952577,76.3699241 C76.238422,70.3190313 76.2286543,70.2518198 75.0148893,69.4401825 C73.4253251,68.3773131 71.96891,67.9791426 71.5103423,68.4825339 C71.3098474,68.7027096 71.3376082,71.6512104 71.572033,75.0354273 C71.9843326,80.9968592 72.038312,81.2068373 73.2962887,81.7982989 C75.6749801,82.9172552 75.7366708,82.7930297 75.9952577,76.3699241 L75.9952577,76.3699241 Z M80.1496137,78.555458 C81.4559148,76.6818783 81.5155491,74.8741196 80.3259464,73.2225699 C79.7270323,72.3914644 79.0124481,71.8421839 78.7374103,72.002101 C78.0840027,72.3821938 78.2336027,79.6558731 78.8947216,79.6447484 C79.1707876,79.6396496 79.7357718,79.1497007 80.1496137,78.555458 L80.1496137,78.555458 Z M70.0662653,74.9278889 C69.9912082,71.3703125 69.828756,70.5276188 69.2200742,70.53828 C68.3425237,70.5531129 67.6886021,71.5886341 67.2372316,73.6786813 C67.0115464,74.722546 67.2382598,75.7937589 67.9944852,77.2589705 C69.6549938,80.476781 70.1706254,79.8959805 70.0662653,74.9278889 L70.0662653,74.9278889 Z M87.3849072,59.502145 C92.2219739,57.1353718 96.2868784,51.6694512 96.5937897,47.1199252 C96.7685801,44.5306585 96.6642199,44.2066525 95.1106419,42.5092135 C92.5329979,39.6923547 89.8114089,38.4969163 86.0703808,38.5390973 C82.6614543,38.5771066 79.972767,39.523167 79.7342296,40.7686664 C79.6524893,41.1941849 80.2729952,42.209311 81.1130172,43.02512 C82.4439945,44.3178992 83.0331409,44.5274138 85.7007505,44.6553475 C88.4213113,44.7860624 88.9354007,44.6650816 90.3275546,43.5674476 C91.1886543,42.8883793 92.0363876,42.3302917 92.211178,42.327047 C92.6460976,42.3196306 92.0605498,46.0538111 91.4462131,47.2079955 C89.6674639,50.5481773 85.024723,54.1595229 80.8107326,55.4801138 C78.2027574,56.2977769 78.5338309,57.1659646 82.0656247,58.7711616 C85.2396124,60.2141238 85.7788921,60.2882883 87.3849072,59.502145 L87.3849072,59.502145 Z M85.6699052,40.728803 C84.2129759,40.4122134 84.6144797,39.6756676 86.2590515,39.6473924 C87.9694268,39.6181902 88.7688357,40.2912327 87.5530144,40.7357559 C87.1108976,40.8975271 86.7093938,41.0064561 86.6610694,40.9777174 C86.6132591,40.9489787 86.1670296,40.836805 85.6699052,40.728803 L85.6699052,40.728803 Z M76.4126983,55.4634267 C76.5905732,53.770623 76.7139546,50.5389067 77.0182955,39.574155 C77.2028536,32.9415348 77.4377924,27.264709 77.5406103,26.9587807 C77.6439423,26.6533158 77.716943,23.9398237 77.7035766,20.9292102 L77.6794144,15.4549461 L74.1512192,15.1962975 C72.211046,15.053531 70.5531079,15.0025429 70.467255,15.0827332 C70.3819162,15.1633871 70.3891134,24.004254 70.4831918,34.7298253 C70.6183973,50.0336613 70.795244,54.3097059 71.3067629,54.5957026 C72.1596371,55.0726728 74.8889375,55.9431781 75.7083959,55.9997285 C76.0620893,56.0238319 76.3792825,55.7827974 76.4126983,55.4634267 L76.4126983,55.4634267 Z M82.1144632,53.6612304 C84.4391753,52.6498126 88.0460261,49.7722316 88.0285471,48.9429803 C88.022378,48.6588377 87.6702268,48.4321726 87.2466172,48.4391255 C86.8224935,48.4465419 86.5284344,48.2129239 86.5926955,47.9199743 C86.6574708,47.6270247 85.904844,47.2052143 84.9203629,46.9827209 C83.9363959,46.759764 82.2995354,45.9425644 81.2831808,45.1670823 L79.4350296,43.7561034 L79.3419794,46.6837454 C79.2910845,48.2935777 79.3661416,49.7129 79.5090584,49.8371255 C79.6524893,49.9608875 80.8158735,49.72078 82.0949278,49.3031414 C85.2601759,48.2699378 85.0493993,48.9860884 81.7648825,50.4234883 C79.167189,51.5609856 78.436154,52.5163166 79.0756811,53.9379565 C79.4566213,54.7838949 79.5542983,54.7750879 82.1144632,53.6612304 L82.1144632,53.6612304 Z M69.4745485,52.8319791 C69.0972069,51.9990195 62.832,48.8581547 61.5904742,48.8794769 C60.6985292,48.8947734 60.7591918,49.0560811 62.118444,50.2876746 C65.3227629,53.1907496 70.4389801,54.9600355 69.4745485,52.8319791 L69.4745485,52.8319791 Z M69.1249677,49.7930904 C69.4796893,48.3899915 69.5079643,44.1074576 69.1624962,44.1134834 C68.9815368,44.1162646 68.1075849,44.6340252 67.2207808,45.2634961 C66.3334625,45.8929669 64.822554,46.7101665 63.8622351,47.0791347 L62.1169017,47.7498595 L65.1906419,49.1158762 C68.9835931,50.8012635 68.8746062,50.7822588 69.1249677,49.7930904 L69.1249677,49.7930904 Z M99.984723,39.6534183 C101.174326,38.4908904 102.520212,37.0043566 102.976209,36.3503187 C103.792583,35.1789838 103.766878,35.1261416 101.258122,32.777446 C99.857743,31.4661256 98.5319065,30.3267741 98.3123904,30.2456568 C98.0928742,30.1645394 96.8842502,30.9460474 95.6267876,31.9829592 C92.2245443,34.7886934 90.1172921,35.5961589 85.9490557,35.6916456 C83.9703258,35.7370714 81.7710515,35.6795939 81.0616082,35.5641755 C79.8822873,35.3727385 79.7748426,35.4937192 79.8062021,36.9765449 C79.8437306,38.7639083 79.7774131,38.750466 83.885501,37.8016245 C87.1335175,37.0516364 91.5855313,38.0913294 94.4140509,40.2606398 C95.484899,41.0820112 96.6894103,41.7569078 97.0914282,41.760616 C97.493446,41.7643242 98.7956344,40.8159462 99.984723,39.6534183 L99.984723,39.6534183 Z M54.3808852,40.4771073 C54.6996206,40.1169462 56.1514089,39.3359017 57.60731,38.741659 C59.7788234,37.8549302 60.8332206,37.6996484 63.4828371,37.8771795 C65.2590158,37.9958427 67.1498364,38.2948181 67.6855175,38.541415 C68.9013388,39.1018202 69.3023285,38.7435131 69.2683986,37.127655 L69.241666,35.8626874 L65.001457,35.947513 C61.7534405,36.0128705 60.202433,35.8130899 58.3722749,35.0936947 C56.1524371,34.2213353 52.6761649,31.3817636 51.3112577,29.3255539 C50.7678653,28.5074273 50.5540041,28.6154292 48.3855753,30.7963279 C47.0988096,32.0904977 46.0521237,33.4189685 46.0588069,33.7480733 C46.0860536,35.0343631 48.2724756,37.9615416 50.368932,39.5180682 C52.7681869,41.2994058 53.4981938,41.4741558 54.3808852,40.4771073 L54.3808852,40.4771073 Z M111.586691,34.2954997 C112.810224,33.8477318 112.557292,33.343877 110.577534,32.2870335 C109.587398,31.7586117 107.679612,29.8966203 106.337325,28.1495837 C104.158614,25.3132567 103.720096,24.976272 102.240547,25.0013025 C98.6347244,25.0634152 98.4995189,27.0264557 101.884283,30.1677841 C104.458329,32.5558796 106.42215,33.6562948 109.055315,34.1870342 C109.907676,34.3585395 110.643852,34.5198472 110.692176,34.5448777 C110.739986,34.5703717 111.142518,34.458198 111.586691,34.2954997 L111.586691,34.2954997 Z M67.4536632,33.2238233 C68.8442749,32.9480242 69.1403904,31.8077457 69.0493966,27.0848602 L68.9758818,23.2681718 L65.9031698,23.6111824 L62.8304577,23.954193 L60.4682172,21.9040093 C57.5332811,19.3564601 57.3692866,18.0205728 59.7618584,16.1437485 C62.0639505,14.3378439 63.0880165,12.2658744 63.0299244,9.53013291 C62.9882832,7.54669718 62.7255835,7.00251546 61.013666,5.35374685 C58.4067189,2.8428164 55.0378914,1.79107167 50.2213883,1.98436279 C47.0725911,2.11044237 45.9873485,2.40570962 42.2972151,4.14069442 C39.9452564,5.24620838 36.7357966,6.95894384 35.1647395,7.94672173 C33.5936825,8.93449961 30.3965608,10.9443564 28.0600247,12.4128127 C18.803332,18.230551 13.9924838,20.7618766 4.99334983,24.5484358 L2.96115464,25.4041082 L4.43196426,26.066953 C7.12322199,27.2800055 11.1053581,27.2721255 14.6530887,26.0465578 C20.6453141,23.9764424 36.5903093,14.5515303 38.0549498,12.2139593 C39.2543203,10.2995892 39.9180096,10.7774864 39.977644,13.5980535 C40.0917718,18.9976896 45.6516481,23.6417753 51.8854955,23.5444344 C52.8041732,23.530065 53.5603986,23.7270644 53.5655395,23.9820047 C53.5711945,24.236945 53.3136357,24.4497043 52.9938722,24.4552667 C52.0618282,24.4714901 52.8848852,27.9377515 54.1999258,29.5383132 C55.720088,31.3877894 58.9578227,33.1292636 61.652679,33.5478293 C63.6401485,33.8560753 64.5089595,33.8078684 67.4536632,33.2238233 L67.4536632,33.2238233 Z M123.674474,32.5257503 C123.669333,32.2768359 123.021581,31.7354353 122.235538,31.3228955 C118.523299,29.3746879 115.942056,27.712477 113.977721,26.0048403 C109.680448,22.2688057 109.859351,22.3499231 108.089342,23.3344563 C107.232355,23.8104994 106.538334,24.5410193 106.547074,24.9568038 C106.572264,26.1480704 112.530559,30.7777867 115.549806,31.9528299 C118.342854,33.0398027 123.693496,33.4171144 123.674474,32.5257503 L123.674474,32.5257503 Z M42.4668646,32.4951575 C43.464712,32.0181873 45.3591313,30.7240175 46.6762282,29.6198941 C50.5776522,26.348778 50.708745,25.2951791 47.2787409,24.7755644 C45.3971739,24.4904948 45.2444893,24.5762474 41.9440357,27.7606839 C40.075321,29.5638073 37.917688,31.4216269 37.1501526,31.888863 C35.5374543,32.8710786 35.3955656,33.4083074 36.6741058,33.69245 C37.9891464,33.9844725 40.3878873,33.4889612 42.4668646,32.4951575 L42.4668646,32.4951575 Z M88.9683024,32.5985242 C91.9644151,31.863369 95.0325003,29.3283351 96.0709608,26.7302614 C96.7469883,25.0383847 96.7804041,24.5081088 96.2467794,23.9504848 C95.8843464,23.571319 95.6735698,23.2524118 95.778444,23.2422142 C95.8838323,23.2315531 97.7391808,23.1476545 99.9019546,23.0554125 C103.402389,22.9061565 104.075332,22.7239901 106.037097,21.3936651 C109.447566,19.0801975 111.21192,15.1485542 110.305067,11.8820733 C109.867063,10.305615 111.585149,11.3161058 112.398438,13.1136668 C113.291926,15.0882956 117.407725,18.2574356 125.943665,23.5421168 C132.868962,27.8297495 141.232682,29.5081839 144.774757,27.3212594 C146.685627,26.141581 146.508781,25.4133788 144.168132,24.8246984 C139.13674,23.5588038 129.430733,18.447482 118.70066,11.4125196 C104.888621,2.3570392 100.110161,0.698536493 92.3232495,2.25877129 C90.6848467,2.58694902 87.5869443,5.27772828 86.8106694,7.04747767 C85.3876701,10.2893916 86.4348701,14.0407226 89.5373993,16.8154004 L91.4950515,18.5661451 L90.3738227,20.1138647 C88.0845828,23.2737341 85.1254845,24.3078648 81.1891024,23.3237951 L79.7676454,22.9682693 L79.8658364,27.6397031 L79.9645416,32.3111369 L81.6440715,32.7176509 C83.9800935,33.2822278 86.3377072,33.2442185 88.9683024,32.5985242 L88.9683024,32.5985242 Z M132.08806,31.1620513 C132.953273,30.8459253 133.190268,29.5702967 132.381091,29.5842025 C131.386329,29.601353 121.024858,23.2788329 117.307478,20.3864191 C113.325342,17.2881988 112.362452,16.8932731 111.857102,18.1522147 C111.103962,20.028112 111.662777,21.2383833 114.359175,23.5731731 C120.64803,29.0186985 128.6195,32.4311906 132.08806,31.1620513 L132.08806,31.1620513 Z M33.6692536,31.0586846 C34.9333993,30.4500725 37.7362144,28.7132336 39.8979601,27.1988881 L43.8281732,24.4455326 L42.141446,22.9353588 C41.2140289,22.1047169 40.2717031,21.4284297 40.0475601,21.4321379 C39.8234172,21.4358461 38.4436014,22.4505086 36.9810172,23.6867375 C33.5900838,26.5541208 29.8469993,29.1002794 27.0925086,30.4143809 C24.5014983,31.6501462 24.3657787,32.2392901 26.6210887,32.4576117 C29.0907739,32.6967921 31.0921237,32.2995487 33.6692536,31.0586846 L33.6692536,31.0586846 Z M25.1281732,28.7039631 C27.8667271,27.4663437 39.1006076,20.7697566 39.0923821,20.3799297 C39.0779876,19.6883461 37.2725058,15.9166198 36.9583973,15.9217187 C36.738367,15.9254269 33.6224715,17.9922976 30.0336137,20.5143527 C24.3621801,24.5011559 17.3546282,28.3118185 15.6416825,28.3414843 C14.4222625,28.362343 15.2232137,29.2778106 16.7927285,29.6574399 C19.7651931,30.3763716 21.9906859,30.1218948 25.1281732,28.7039631 L25.1281732,28.7039631 Z M79.0705402,11.5052251 C82.6573416,7.47763153 79.7918076,2.20592911 74.0689649,2.30419702 C71.8516976,2.3422063 71.2918543,2.55867382 69.8025375,3.95342916 C68.3337842,5.3296434 68.0947326,5.87475217 68.1348316,7.76270116 C68.1764729,9.74520984 68.4001017,10.1470885 70.357754,11.7638737 C72.4243931,13.4696562 72.6665292,13.5470654 75.1274749,13.291198 C77.2619739,13.0691682 77.9580509,12.7539692 79.0705402,11.5052251 L79.0705402,11.5052251 Z M74.1686983,11.1821462 C73.9867107,10.9276694 74.3141856,10.5744612 74.8966488,10.39693 C76.4646213,9.91856927 77.7683519,7.08641401 76.9447808,5.94659899 C75.6261416,4.12076272 76.865611,3.32813007 78.5358873,4.92961885 C79.7727863,6.11578666 79.6776797,8.42786365 78.3333361,9.83745189 C77.0933526,11.1376476 74.6915271,11.9131297 74.1686983,11.1821462 L74.1686983,11.1821462 Z" id="path16479"></path>
                        </g>
                    </g>
                </g>
            </g>
            <g id="Navbar" transform="translate(0.000000, -1.000000)">
                <g id="Tabs" transform="translate(421.000000, 14.391304)">
                    <g id="Group-2" transform="translate(0.000000, 4.778696)"></g>
                </g>
            </g>
        </g>
    </g>
</svg>