<?xml version="1.0" encoding="UTF-8" standalone="no"?>
<svg width="188px" height="187px" viewBox="0 0 188 187" version="1.1" xmlns="http://www.w3.org/2000/svg" xmlns:xlink="http://www.w3.org/1999/xlink">
    <!-- Generator: Sketch 3.7.2 (28276) - http://www.bohemiancoding.com/sketch -->
    <title>Icon Copy</title>
    <desc>Created with Sketch.</desc>
    <defs></defs>
    <g id="Page-1" stroke="none" stroke-width="1" fill="none" fill-rule="evenodd">
        <g id="ABOUT-Page--LASER-THERAPY" transform="translate(-406.000000, -104.000000)">
            <g id="Hero" transform="translate(112.000000, 104.000000)">
                <g id="Icon-Copy" transform="translate(294.000000, 0.000000)">
                    <g id="Laser-Prism" transform="translate(0.610000, 0.083821)">
                        <g id="Group">
                            <g id="Artboard"></g>
                            <g id="Multicolor">
                                <ellipse id="Oval" fill="#367AF3" cx="93.5" cy="93.2831666" rx="93.5" ry="93.2831666"></ellipse>
                                <g id="Group" transform="translate(45.900000, 39.009324)">
                                    <rect id="Rectangle-path" fill="#D2E2FF" x="27.2" y="33.9211515" width="40.8" height="40.7053818"></rect>
                                    <polygon id="Shape" fill="#FFFFFF" points="68 33.9211515 95.2 16.9605757 68 0 27.2 0 0 16.9605757 27.2 33.9211515"></polygon>
                                    <polygon id="Shape" fill="#A1BFF4" points="0 16.9605757 0 91.587109 27.2 74.6265333 27.2 33.9211515"></polygon>
                                    <polygon id="Shape" fill="#A1BFF4" points="95.2 91.587109 95.2 16.9605757 68 33.9211515 68 74.6265333"></polygon>
                                    <rect id="Rectangle-path" fill="#FFFFFF" x="27.2" y="74.6265333" width="40.8" height="33.9211515"></rect>
                                    <polygon id="Shape" fill="#C2DEF8" points="27.2 74.6265333 0 91.587109 27.2 108.547685"></polygon>
                                    <polygon id="Shape" fill="#C2DEF8" points="68 108.547685 95.2 91.587109 68 74.6265333"></polygon>
                                </g>
                            </g>
                        </g>
                    </g>
                </g>
            </g>
            <g id="Navbar" transform="translate(0.000000, -1.000000)">
                <g id="Tabs" transform="translate(421.000000, 14.391304)">
                    <g id="Group-2" transform="translate(0.000000, 4.778696)"></g>
                </g>
            </g>
        </g>
    </g>
</svg>