<?xml version="1.0" encoding="UTF-8" standalone="no"?>
<svg width="132px" height="119px" viewBox="0 0 132 119" version="1.1" xmlns="http://www.w3.org/2000/svg" xmlns:xlink="http://www.w3.org/1999/xlink">
    <!-- Generator: Sketch 3.7.2 (28276) - http://www.bohemiancoding.com/sketch -->
    <title>Caduceus Icon Copy 3</title>
    <desc>Created with Sketch.</desc>
    <defs>
        <linearGradient x1="0.000116195301%" y1="49.9997681%" x2="100.000039%" y2="49.9997681%" id="linearGradient-1" offset="50%">
            <stop stop-color="#FFFFFF"></stop>
            <stop stop-color="#EBEBEB"></stop>
        </linearGradient>
    </defs>
    <g id="Page-1" stroke="none" stroke-width="1" fill="none" fill-rule="evenodd">
        <g id="ABOUT-Page--SLEEP-THERAPY" transform="translate(-125.000000, -138.000000)">
            <g id="Hero" transform="translate(112.000000, 95.000000)"></g>
            <g id="Caduceus-Icon-Copy-3" transform="translate(127.000000, 140.000000)">
                <ellipse id="Caducues" stroke="#FFFFFF" stroke-width="3" fill="#2EC0F9" cx="64" cy="57.4104573" rx="64" ry="57.3313059"></ellipse>
                <path d="M76.7416563,88.3000006 L66.7765355,88.3000006 L66.7765355,42.6971563 C70.7222384,41.7725251 73.794967,38.9193939 74.6640928,35.3176832 L86.3520711,35.3176832 L73.3976065,57.7946632 L75.3712597,57.7946632 L88.3257243,35.3176832 L90.0610896,35.3176832 L103.016837,57.7946632 L104.987604,57.7946632 L92.0331392,35.3176832 L102.9822,35.3176832 C104.278833,35.3176832 105.325954,34.3757638 105.325954,33.2096739 C105.325954,32.0424315 104.278833,31.0990714 102.9822,31.0990714 L74.6503022,31.0990714 C73.7622545,27.523293 70.7017129,24.6949416 66.7765355,23.7726155 L66.7765355,20.1242266 C66.7765355,19.5393088 66.2473629,19.0641711 65.5937546,19.0641711 L62.4742023,19.0641711 C61.8205941,19.0641711 61.2914215,19.5395969 61.2914215,20.1242266 L61.2914215,23.7677172 C57.3524535,24.6825517 54.2797249,27.5134964 53.3900736,31.0990714 L24.9568311,31.0990714 C23.6576323,31.0990714 22.6092292,32.0424315 22.6092292,33.2096739 C22.6092292,34.3757638 23.6576323,35.3176832 24.9568311,35.3176832 L36.0335349,35.3176832 L23.0777875,57.7946632 L25.0485543,57.7946632 L38.0043017,35.3176832 L39.7393463,35.3176832 L52.6963765,57.7946632 L54.6671434,57.7946632 L41.7126788,35.3176832 L53.3733967,35.3176832 C54.246371,38.928038 57.334173,41.7846268 61.2911008,42.7034953 L61.2911008,88.3000006 L51.32598,88.3000006 C49.69228,88.3000006 48.3709522,89.4894296 48.3709522,90.9546055 C48.3709522,92.4197814 49.69228,93.6094985 51.32598,93.6094985 L76.7413355,93.6094985 C78.3737527,93.6094985 79.6963633,92.4200695 79.6963633,90.9546055 C79.696684,89.4894296 78.3740734,88.3000006 76.7416563,88.3000006 L76.7416563,88.3000006 Z M57.8280674,33.2341656 C57.8280674,30.1620504 60.6006108,27.6734123 64.0200276,27.6734123 C67.4368787,27.6734123 70.2094221,30.1620504 70.2094221,33.2341656 C70.2094221,36.3062807 67.4368787,38.7972239 64.0200276,38.7972239 C60.6009315,38.797512 57.8280674,36.3062807 57.8280674,33.2341656 L57.8280674,33.2341656 Z M43.2867266,69.3224427 L34.4588457,69.3224427 C27.9391192,69.3224427 22.6528459,64.5707777 22.6528459,58.7155486 L22.6528459,58.6982604 L55.0895193,58.6982604 L55.0895193,58.7155486 C55.08984,64.5707777 49.8090187,69.3224427 43.2867266,69.3224427 L43.2867266,69.3224427 Z M105.412225,58.7155486 C105.412225,64.5704896 100.128838,69.3224427 93.6062249,69.3224427 L84.7786647,69.3224427 C78.2589383,69.3224427 72.9726649,64.5707777 72.9726649,58.7155486 C72.9726649,58.7094978 72.9752306,58.7031588 72.9752306,58.6982604 L105.410621,58.6982604 C105.410942,58.7034469 105.412225,58.7094978 105.412225,58.7155486 L105.412225,58.7155486 Z" id="_x31_3" fill="url(#linearGradient-1)"></path>
            </g>
            <g id="Navbar" transform="translate(0.000000, -1.000000)"></g>
        </g>
    </g>
</svg>