<?xml version="1.0" encoding="UTF-8" standalone="no"?>
<svg width="191px" height="191px" viewBox="0 0 191 191" version="1.1" xmlns="http://www.w3.org/2000/svg" xmlns:xlink="http://www.w3.org/1999/xlink">
    <!-- Generator: Sketch 3.7.2 (28276) - http://www.bohemiancoding.com/sketch -->
    <title>Caducues</title>
    <desc>Created with Sketch.</desc>
    <defs>
        <linearGradient x1="0.000116195301%" y1="49.9997681%" x2="100.000039%" y2="49.9997681%" id="linearGradient-1" offset="50%">
            <stop stop-color="#FFFFFF"></stop>
            <stop stop-color="#EBEBEB"></stop>
        </linearGradient>
    </defs>
    <g id="Page-1" stroke="none" stroke-width="1" fill="none" fill-rule="evenodd">
        <g id="ABOUT-Page--MINDFULNESS" transform="translate(-112.000000, -104.000000)">
            <g id="Hero" transform="translate(112.000000, 102.000000)">
                <g id="Caduceus-Icon-Copy-3" transform="translate(0.000000, 2.000000)">
                    <ellipse id="Caducues" stroke="#FFFFFF" stroke-width="3" fill="#2EC0F9" cx="95.5" cy="95.3543958" rx="93.5" ry="93.2256886"></ellipse>
                    <path d="M114.114324,145.583479 L99.5559863,145.583479 L99.5559863,71.4292889 C105.32038,69.9257582 109.809419,65.2863188 111.079151,59.429624 L128.154462,59.429624 L109.228904,95.9791481 L112.112272,95.9791481 L131.03783,59.429624 L133.573076,59.429624 L152.500508,95.9791481 L155.379659,95.9791481 L136.454101,59.429624 L152.449906,59.429624 C154.344195,59.429624 155.873964,57.8979811 155.873964,56.0018176 C155.873964,54.1037799 154.344195,52.5697944 152.449906,52.5697944 L111.059004,52.5697944 C109.761628,46.7552678 105.290393,42.1561225 99.5559863,40.65634 L99.5559863,34.7237424 C99.5559863,33.7726152 98.7829026,33 97.8280271,33 L93.2705814,33 C92.3157059,33 91.5426222,33.7730837 91.5426222,34.7237424 L91.5426222,40.6483749 C85.7880681,42.1359754 81.2990286,46.7393376 79.9993109,52.5697944 L38.4603513,52.5697944 C36.5623137,52.5697944 35.0306708,54.1037799 35.0306708,56.0018176 C35.0306708,57.8979811 36.5623137,59.429624 38.4603513,59.429624 L54.6426334,59.429624 L35.7152013,95.9791481 L38.5943525,95.9791481 L57.5217846,59.429624 L60.0565621,59.429624 L78.9858684,95.9791481 L81.8650196,95.9791481 L62.9394616,59.429624 L79.974947,59.429624 C81.2503009,65.3003749 85.7613615,69.9454367 91.5421536,71.4395967 L91.5421536,145.583479 L76.9838159,145.583479 C74.5970956,145.583479 72.6667289,147.517594 72.6667289,149.900098 C72.6667289,152.282601 74.5970956,154.217185 76.9838159,154.217185 L114.113856,154.217185 C116.498702,154.217185 118.430942,152.28307 118.430942,149.900098 C118.431411,147.517594 116.49917,145.583479 114.114324,145.583479 L114.114324,145.583479 Z M86.4829064,56.0416431 C86.4829064,51.0461167 90.5333965,46.9993748 95.5289229,46.9993748 C100.520701,46.9993748 104.571191,51.0461167 104.571191,56.0416431 C104.571191,61.0371696 100.520701,65.0876597 95.5289229,65.0876597 C90.533865,65.0881282 86.4829064,61.0371696 86.4829064,56.0416431 L86.4829064,56.0416431 Z M65.2390343,114.72432 L52.3421237,114.72432 C42.8172637,114.72432 35.0943917,106.997699 35.0943917,97.4765878 L35.0943917,97.4484757 L82.482081,97.4484757 L82.482081,97.4765878 C82.4825495,106.997699 74.7676425,114.72432 65.2390343,114.72432 L65.2390343,114.72432 Z M156,97.4765878 C156,106.997231 148.281345,114.72432 138.752268,114.72432 L125.855826,114.72432 C116.330966,114.72432 108.608094,106.997699 108.608094,97.4765878 C108.608094,97.4667486 108.611842,97.4564408 108.611842,97.4484757 L155.997657,97.4484757 C155.998126,97.4569093 156,97.4667486 156,97.4765878 L156,97.4765878 Z" id="_x31_3" fill="url(#linearGradient-1)"></path>
                </g>
            </g>
            <g id="Navbar" transform="translate(0.000000, -1.000000)"></g>
        </g>
    </g>
</svg>