<?xml version="1.0" encoding="UTF-8" standalone="no"?>
<svg width="197px" height="196px" viewBox="0 0 197 196" version="1.1" xmlns="http://www.w3.org/2000/svg" xmlns:xlink="http://www.w3.org/1999/xlink">
    <!-- Generator: Sketch 3.7.2 (28276) - http://www.bohemiancoding.com/sketch -->
    <title>international copy</title>
    <desc>Created with Sketch.</desc>
    <defs>
        <ellipse id="path-1" cx="93.5" cy="93.6515174" rx="93.5" ry="92.4220189"></ellipse>
        <mask id="mask-2" maskContentUnits="userSpaceOnUse" maskUnits="objectBoundingBox" x="-5" y="-5" width="197" height="194.844038">
            <rect x="-5" y="-3.77050154" width="197" height="194.844038" fill="white"></rect>
            <use xlink:href="#path-1" fill="black"></use>
        </mask>
    </defs>
    <g id="Page-1" stroke="none" stroke-width="1" fill="none" fill-rule="evenodd">
        <g id="ABOUT-Page--DR.-CELESTE" transform="translate(-58.000000, -79.000000)">
            <g id="Navbar" transform="translate(0.000000, -1.000000)"></g>
            <g id="international-copy" transform="translate(63.000000, 83.000000)">
                <g id="Layer_1">
                    <g id="globe-2">
                        <polygon id="Shape" fill="#515151" points="77.437931 35.7964255 77.437931 35.8313339 77.4587739 35.8054758"></polygon>
                        <g id="Caducues-Copy">
                            <use fill="#FFFFFF" fill-rule="evenodd" xlink:href="#path-1"></use>
                            <use stroke="#FFFFFF" mask="url(#mask-2)" stroke-width="10" xlink:href="#path-1"></use>
                        </g>
                        <path d="M93.3632184,1.79307539 C42.4869732,1.79307539 1.08773946,42.8750696 1.08773946,93.3758626 C1.08773946,143.876655 42.4869732,184.95865 93.3632184,184.95865 C144.245977,184.95865 185.645211,143.88312 185.645211,93.3758626 C185.645211,42.8750696 144.245977,1.79307539 93.3632184,1.79307539 L93.3632184,1.79307539 Z M177.666284,93.3758626 C177.666284,94.9790623 177.522989,96.543475 177.425287,98.1272813 C176.832567,96.6404428 175.933716,94.7010882 175.718774,93.8671657 C175.40613,92.6001207 173.497701,88.1848568 173.497701,88.1848568 C173.497701,88.1848568 171.589272,85.6636959 170.319157,85.0301734 C169.055556,84.3966509 168.098084,82.8193092 165.870498,81.5651933 C163.642912,80.2981483 162.698467,79.6710903 160.796552,79.6710903 C158.881609,79.6710903 156.986207,77.1434648 154.752107,75.8828844 C152.524521,74.6287684 152.211877,75.2558264 152.211877,75.2558264 C152.211877,75.2558264 154.752107,79.0375678 154.752107,79.981387 C154.752107,80.9252062 157.604981,82.502548 160.477395,81.8690255 C160.477395,81.8690255 162.37931,85.3404701 163.330268,86.2842894 C164.281226,87.2281086 163.011111,88.1783923 161.109195,89.4389728 C159.200766,90.6930888 159.519923,90.382792 158.555939,91.3266112 C157.604981,92.2704305 154.43295,93.8607012 153.475479,94.4812947 C152.524521,95.1083527 148.714176,97.0024556 146.812261,95.1083527 C145.880843,94.196856 146.167433,92.276895 145.542146,91.00985 C144.903831,89.7492695 138.2341,79.9749225 135.055556,75.5661231 C134.501916,74.7903813 133.147126,72.3985107 132.202682,71.7843817 C131.251724,71.1443947 134.430268,71.1443947 134.430268,71.1443947 C134.430268,71.1443947 134.430268,68.9335305 134.111111,67.3626533 C133.785441,65.7853116 134.430268,63.5809119 134.430268,63.5809119 C134.430268,63.5809119 131.251724,65.4685503 130.287739,66.1020728 C129.343295,66.7355953 128.385824,64.8479569 127.122222,63.2641507 C125.852107,61.6932735 124.575479,59.792706 124.262835,58.2153643 C123.943678,56.6444871 125.852107,56.0109646 125.852107,56.0109646 L128.704981,54.4400874 C128.704981,54.4400874 132.202682,53.8130294 134.430268,54.1233261 C136.651341,54.4400874 140.142529,54.7568486 140.142529,54.7568486 C140.142529,54.7568486 141.093487,52.5459844 139.823372,51.6021652 C138.55977,50.658346 135.687356,49.0810043 134.417241,49.3977655 C133.15364,49.7080622 135.049042,47.8204238 136.631801,46.5598433 L133.114559,45.9263208 C133.114559,45.9263208 129.916475,47.5036625 128.959004,47.8204238 C128.008046,48.1307205 126.35364,48.764243 125.077011,50.3415847 C123.81341,51.9189264 125.585057,54.1233261 124.314943,54.7568486 C123.051341,55.3903711 122.191571,55.7006678 121.2341,56.0109646 C120.283142,56.3277258 117.26092,56.0109646 117.26092,56.0109646 C113.978161,56.0109646 116.081992,58.9846416 116.935249,60.0383576 L114.395019,56.9612483 L112.512644,52.5524489 C112.512644,52.5524489 109.803065,50.6648105 108.53295,50.0377525 C107.262835,49.40423 103.348276,47.1998303 103.348276,47.1998303 L103.621839,50.0377525 L107.301916,53.7354552 L107.627586,53.8194939 L109.542529,56.3406549 L105.315326,56.6574161 L105.315326,54.1621132 C101.329119,53.205365 102.371264,52.2227587 101.921839,51.9189264 C100.977395,51.2918685 98.7693487,49.7080622 98.7693487,49.7080622 C98.7693487,49.7080622 95.0306513,50.3415847 94.0731801,50.658346 C93.1157088,50.9751072 92.848659,51.9189264 90.9532567,52.5459844 C89.0383142,53.1795069 88.1785441,54.1233261 87.5467433,55.0671454 C86.9149425,56.0109646 84.8436782,58.8488868 83.58659,60.1094672 C82.3099617,61.3765122 79.9521073,61.0532865 79.0011494,61.0532865 C78.0436782,61.0532865 73.4582375,59.792706 73.4582375,59.792706 L73.4582375,54.4465519 C73.4582375,54.4465519 74.0770115,51.4470168 73.7643678,50.5031976 L76.5455939,50.0377525 L81.1896552,49.0874688 L82.5509579,48.137185 L84.5049808,45.6160241 C84.5049808,45.6160241 82.3099617,44.0386824 83.8927203,41.8342827 C84.6547893,40.7741022 87.3969349,40.5737022 88.6670498,39.629883 C89.9306513,38.6860638 91.8521073,38.0525413 91.8521073,38.0525413 C91.8521073,38.0525413 94.0796935,36.1649028 96.3007663,33.9540386 C96.3007663,33.9540386 97.8900383,33.0037549 99.791954,32.3702324 C99.791954,32.3702324 105.198084,37.1022575 106.155556,37.1022575 C107.113027,37.1022575 110.604215,34.8978579 110.604215,34.8978579 C110.604215,34.8978579 111.555172,32.0664002 111.242529,31.1161164 C110.923372,30.1722972 109.3341,27.0176138 109.3341,27.0176138 C109.3341,27.0176138 108.383142,28.5949555 107.432184,29.855536 C106.481226,31.1161164 105.842912,32.6934582 105.842912,32.6934582 C105.842912,32.6934582 101.394253,32.3896259 101.081609,31.4458067 C100.755939,30.495523 100.130651,28.9375748 99.8049808,28.0002201 C99.4988506,27.0499364 96.9521073,27.0822589 95.056705,27.7157814 C93.1417625,28.3493039 95.3628352,24.3154464 95.3628352,24.3154464 C95.3628352,24.3154464 97.2777778,21.9365048 98.5413793,21.9365048 C99.8049808,21.9365048 102.677395,20.320376 103.934483,20.0100793 C105.211111,19.693318 109.034483,18.2517312 110.610728,18.2517312 C112.2,18.2517312 114.108429,18.9305053 115.0659,18.9305053 L119.827203,18.9305053 L126.490421,18.400415 C126.490421,18.400415 132.215709,20.5013824 130.300766,21.7684274 C130.300766,21.7684274 132.534866,23.1324401 133.485824,24.0762594 C134.378161,24.9683625 136.683908,23.2552659 138.00613,22.5247757 C161.773563,37.3285156 177.666284,63.5162668 177.666284,93.3758626 L177.666284,93.3758626 Z M26.0927203,44.0386824 C26.0927203,45.2992628 24.3601533,45.6030951 26.0927203,48.7707075 C28.3072797,52.8692102 26.405364,54.7633131 26.405364,54.7633131 C26.405364,54.7633131 20.9992337,58.5450545 20.0482759,59.178577 C19.097318,59.8120995 16.5570881,63.2770797 18.1398467,62.3267959 C19.7291188,61.3829767 21.6310345,60.4391575 20.0482759,62.9603184 C18.4590038,65.4879439 15.5996169,69.579982 14.9678161,71.1637883 C14.3360153,72.7475945 11.1574713,76.5228714 11.1574713,78.4169743 C11.1574713,80.3110773 9.88735632,84.0992832 10.2065134,85.6766249 C10.4214559,86.7755925 9.71800766,90.0143147 9.16436782,91.3460048 C9.59425287,73.620304 15.6061303,57.2844741 25.532567,43.9223211 C25.8582375,43.9546437 26.0927203,44.0386824 26.0927203,44.0386824 L26.0927203,44.0386824 Z M36.2992337,31.9500389 C44.0697318,24.8326077 53.1754789,19.1567633 63.2191571,15.3168412 C62.2291188,16.5774217 61.0306513,17.8703248 61.0306513,17.8703248 C61.0306513,17.8703248 58.8095785,17.8638602 54.6735632,22.2855887 C50.5505747,26.7008525 51.5015326,25.4402721 50.5505747,26.694388 C49.5996169,27.948504 49.9122605,28.2717297 47.6846743,29.855536 C45.4701149,31.4264132 44.5126437,33.3205161 44.5126437,33.3205161 L41.0149425,34.5810966 L38.162069,33.3205161 C38.162069,33.3205161 35.6088123,34.2707999 35.9279693,33.0037549 C36.0191571,32.6676001 36.1559387,32.3185163 36.2992337,31.9500389 L36.2992337,31.9500389 Z M74.3766284,39.3066572 L73.1130268,37.4190188 L74.3766284,34.5810966 L77.437931,35.7964255 L77.437931,30.1658327 L80.3624521,28.5949555 L82.791954,32.0599357 L86.5306513,36.1649028 L84.0490421,38.0525413 L77.4314176,39.3131218 L77.4314176,35.9709674 L74.3766284,39.3066572 L74.3766284,39.3066572 Z M115.684674,68.9464595 C116.427203,68.3646532 118.856705,69.8902788 118.856705,69.8902788 C118.856705,69.8902788 126.796552,71.4676205 128.066667,72.4114397 C129.343295,73.3617234 131.564368,73.9952459 132.202682,74.9455297 C132.840996,75.8893489 135.055556,78.7272711 135.368199,79.6710903 C135.69387,80.6149095 137.283142,84.0928187 137.602299,85.3469347 C137.921456,86.6075151 138.872414,89.7621986 139.823372,91.3395403 C140.77433,92.9233465 146.18046,99.8533068 148.082375,103.00799 L153.814176,102.064171 C153.814176,102.064171 153.169349,104.895629 152.537548,105.845912 C151.905747,106.789732 149.997318,109.310893 149.04636,110.571473 C148.088889,111.832054 146.825287,113.726156 144.916858,115.297034 C143.014943,116.867911 143.001916,118.445253 142.057471,119.712298 C141.106513,120.972878 139.829885,123.8108 139.829885,123.8108 C139.829885,123.8108 140.468199,130.120167 140.780843,131.380748 C141.093487,132.641328 138.55977,136.106308 138.55977,136.106308 L135.69387,138.950695 L131.863985,143.986552 L132.176628,148.712113 C132.176628,148.712113 129.284674,150.929442 127.688889,152.183558 C126.112644,153.437674 126.360153,154.387957 125.090038,155.655002 C123.826437,156.909118 118.856705,159.119982 117.58659,159.436744 C116.316475,159.753505 109.308046,160.697324 109.308046,160.697324 L109.308046,157.865866 L109.164751,154.711183 C109.164751,154.711183 108.200766,150.929442 107.243295,149.668861 C106.285824,148.408281 106.702682,146.507713 105.11341,144.936836 C103.524138,143.359494 102.937931,142.105378 102.618774,141.14863 C102.299617,140.204811 102.963985,137.373353 102.963985,137.373353 C102.963985,137.373353 104.247126,133.901909 104.878927,132.641328 C105.517241,131.380748 104.885441,129.493109 104.247126,128.226064 C103.608812,126.959019 103.302682,123.804336 103.302682,122.866981 C103.302682,121.923162 100.749425,120.339356 99.7984674,119.395536 C98.8475096,118.451717 99.1666667,117.184672 99.1666667,115.937021 C99.1666667,114.663511 98.2157088,111.832054 98.5283525,109.621189 C98.8475096,107.41679 95.6754789,108.987667 93.7670498,109.621189 C91.8586207,110.254712 90.5950192,108.987667 90.5950192,107.093564 C90.5950192,105.199461 87.1038314,106.783267 84.8762452,108.037383 C82.6421456,109.297964 80.1084291,109.297964 77.5551724,110.248247 C75.0214559,111.192067 73.7578544,109.304428 73.7578544,109.304428 C73.7578544,109.304428 71.5237548,107.41679 69.9475096,106.466506 C68.3517241,105.522687 66.7624521,103.635048 65.4858238,102.057707 C64.2222222,100.4739 61.0371648,95.7418751 60.7310345,93.8607012 C60.4118774,91.9601337 60.7310345,90.6930888 60.7310345,88.4886891 C60.7310345,86.2842894 60.7310345,85.0237089 61.0436782,83.4463672 C61.3628352,81.8690255 62.3137931,79.9749225 63.2712644,78.3975808 C64.2222222,76.8202391 67.7199234,74.9326006 68.6643678,74.2990781 C69.6153257,73.6720202 71.8429119,71.7843817 71.8429119,70.5173367 C71.8429119,69.2567563 73.1195402,68.6296983 73.7448276,67.3626533 C74.3896552,66.1020728 76.610728,62.9538539 79.4701149,64.2144344 C79.4701149,64.2144344 82.0038314,63.9041377 82.9547893,63.5873764 C83.9057471,63.2706152 86.445977,62.3332605 87.7030651,61.699738 C88.9731801,61.0662155 92.1386973,60.7688478 92.1386973,60.7688478 C92.1386973,60.7688478 94.6398467,61.7579186 95.5908046,61.7579186 C96.5417625,61.7579186 99.6421456,61.2084348 99.6421456,61.2084348 C99.6421456,61.2084348 101.075096,65.7788471 101.075096,66.7291308 C101.075096,67.6794146 102.026054,68.6167693 103.621839,69.2502918 C105.191571,69.8902788 112.50613,71.474085 115.684674,68.9464595 L115.684674,68.9464595 Z M152.218391,130.75369 C152.218391,131.697509 151.899234,134.225134 151.580077,135.485715 C151.247893,136.746295 150.622605,138.957159 150.309962,140.204811 C149.990805,141.471856 148.401533,143.993017 147.457088,144.626539 C146.50613,145.260062 144.910345,147.154165 143.9659,147.464461 C143.014943,147.781223 142.370115,145.253597 142.689272,143.993017 C143.014943,142.732436 144.597701,139.267456 144.597701,139.267456 C144.597701,139.267456 144.916858,137.379818 145.229502,136.112773 C145.555172,134.858657 149.365517,133.281315 149.365517,133.281315 L151.912261,128.54929 C151.899234,128.542825 152.218391,129.816335 152.218391,130.75369 L152.218391,130.75369 Z M11.2356322,111.967808 C11.645977,112.071241 12.2321839,112.368608 13.059387,113.099099 C14.2578544,114.133421 14.9678161,114.663511 16.5570881,115.303498 C18.1398467,115.943485 18.7781609,116.874375 20.68659,117.824659 C22.5950192,118.774943 21.9632184,118.147885 24.4969349,120.979343 C27.0436782,123.8108 26.7245211,123.8108 27.3563218,125.394606 C27.9881226,126.978413 28.9455939,128.542825 29.583908,129.499574 C30.2222222,130.443393 32.1241379,131.070451 33.0750958,131.703973 C34.0260536,132.337496 35.6153257,132.964554 36.5662835,132.964554 C37.5237548,132.964554 40.3831418,135.802476 41.9724138,136.112773 C43.5616858,136.435998 43.5616858,139.590682 43.5616858,139.590682 L41.9724138,143.999481 L40.6957854,148.725042 L41.9724138,152.506783 C41.9724138,152.506783 40.0574713,154.09059 38.8003831,154.09059 C37.6279693,154.09059 37.2306513,154.827544 35.9475096,154.47846 C23.832567,143.249598 15.045977,128.562219 11.2356322,111.967808 L11.2356322,111.967808 Z" id="Shape" fill="#36A8F3"></path>
                    </g>
                </g>
            </g>
        </g>
    </g>
</svg>