<?xml version="1.0" encoding="UTF-8" standalone="no"?>
<svg width="138px" height="126px" viewBox="0 0 138 126" version="1.1" xmlns="http://www.w3.org/2000/svg" xmlns:xlink="http://www.w3.org/1999/xlink">
    <!-- Generator: Sketch 3.7.2 (28276) - http://www.bohemiancoding.com/sketch -->
    <title>international</title>
    <desc>Created with Sketch.</desc>
    <defs>
        <rect id="path-1" x="0" y="0" width="270" height="221.041761" rx="10"></rect>
        <mask id="mask-2" maskContentUnits="userSpaceOnUse" maskUnits="objectBoundingBox" x="0" y="0" width="270" height="221.041761" fill="white">
            <use xlink:href="#path-1"></use>
        </mask>
        <ellipse id="path-3" cx="64" cy="58.0939894" rx="64" ry="57.3313059"></ellipse>
        <mask id="mask-4" maskContentUnits="userSpaceOnUse" maskUnits="objectBoundingBox" x="-5" y="-5" width="138" height="124.662612">
            <rect x="-5" y="-4.23731647" width="138" height="124.662612" fill="white"></rect>
            <use xlink:href="#path-3" fill="black"></use>
        </mask>
    </defs>
    <g id="Page-1" stroke="none" stroke-width="1" fill="none" fill-rule="evenodd">
        <g id="Home-Page--About-Nav-ACTIVE" transform="translate(-153.000000, -624.000000)">
            <g id="Discription-+-Services" transform="translate(0.000000, 587.000000)">
                <g id="Services">
                    <g id="Sleep" transform="translate(73.000000, 29.000000)">
                        <use stroke="#36A8F3" mask="url(#mask-2)" stroke-width="6" xlink:href="#path-1"></use>
                        <g id="international" transform="translate(85.000000, 13.000000)">
                            <g id="Layer_1">
                                <g id="globe-2">
                                    <polygon id="Shape" fill="#515151" points="53.0056426 22.2052693 53.0056426 22.2322693 53.0216426 22.2122693"></polygon>
                                    <g id="Caducues-Copy">
                                        <use fill="#FFFFFF" fill-rule="evenodd" xlink:href="#path-3"></use>
                                        <use stroke="#FFFFFF" mask="url(#mask-4)" stroke-width="10" xlink:href="#path-3"></use>
                                    </g>
                                    <path d="M63.9063741,1.11228206 C29.0819923,1.11228206 0.744548938,26.5962999 0.744548938,57.922995 C0.744548938,89.24969 29.0819923,114.733708 63.9063741,114.733708 C98.7352142,114.733708 127.072658,89.2537001 127.072658,57.922995 C127.072658,26.5962999 98.7352142,1.11228206 63.9063741,1.11228206 L63.9063741,1.11228206 Z M121.611146,57.922995 C121.611146,58.9174932 121.513062,59.887931 121.446186,60.8703991 C121.040474,59.9480821 120.425218,58.7450601 120.278091,58.2277606 C120.064089,57.4417861 118.757785,54.7029059 118.757785,54.7029059 C118.757785,54.7029059 117.45148,53.1389771 116.582097,52.7459899 C115.717172,52.3530027 115.06179,51.3745448 113.537025,50.5965905 C112.012261,49.810616 111.365796,49.4216389 110.06395,49.4216389 C108.753187,49.4216389 107.455799,47.8537001 105.926576,47.0717358 C104.401811,46.2937815 104.187809,46.6827586 104.187809,46.6827586 C104.187809,46.6827586 105.926576,49.0286517 105.926576,49.6141224 C105.926576,50.1995932 107.879345,51.1780511 109.845489,50.7850639 C109.845489,50.7850639 111.147335,52.9384735 111.798258,53.5239442 C112.449181,54.109415 111.579798,54.6988958 110.277952,55.4808601 C108.971648,56.2588144 109.190108,56.0663309 108.530268,56.6518016 C107.879345,57.2372724 105.708116,58.2237505 105.052734,58.6087176 C104.401811,58.9976947 101.793661,60.1726463 100.491815,58.9976947 C99.8542668,58.4322743 100.050435,57.2412824 99.6224312,56.455308 C99.1855103,55.6733437 94.6201324,49.6101124 92.4444444,46.8752422 C92.0654824,46.3940333 91.13814,44.9103061 90.4916754,44.5293491 C89.8407524,44.1323518 92.0164403,44.1323518 92.0164403,44.1323518 C92.0164403,44.1323518 92.0164403,42.7609066 91.7979798,41.7864587 C91.575061,40.8080008 92.0164403,39.4405657 92.0164403,39.4405657 C92.0164403,39.4405657 89.8407524,40.6115072 89.1809126,41.0044944 C88.5344479,41.3974816 87.8790665,40.2265401 87.0141414,39.2440721 C86.1447579,38.2696242 85.2709161,37.0906625 85.056914,36.1122046 C84.8384535,35.1377567 86.1447579,34.7447695 86.1447579,34.7447695 L88.097527,33.7703216 C88.097527,33.7703216 90.4916754,33.3813444 92.0164403,33.573828 C93.5367468,33.7703216 95.9264368,33.9668152 95.9264368,33.9668152 C95.9264368,33.9668152 96.5773598,32.59537 95.7079763,32.0098993 C94.8430512,31.4244285 92.876907,30.4459706 92.0075235,30.6424642 C91.1425984,30.8349477 92.4399861,29.6640062 93.5233716,28.8820418 L91.1158481,28.4890546 C91.1158481,28.4890546 88.9267851,29.4675126 88.2714037,29.6640062 C87.6204807,29.8564897 86.4880529,30.2494769 85.6142111,31.2279349 C84.749286,32.2063929 85.9619645,33.573828 85.092581,33.9668152 C84.2276559,34.3598024 83.6391501,34.5522859 82.9837687,34.7447695 C82.3328457,34.9412631 80.2641588,34.7447695 80.2641588,34.7447695 C78.0171369,34.7447695 79.4571926,36.5894033 80.04124,37.2430453 L78.302473,35.3342503 L77.0140021,32.5993801 C77.0140021,32.5993801 75.1593173,31.4284386 74.2899338,31.0394614 C73.4205503,30.6464742 70.7410658,29.2790391 70.7410658,29.2790391 L70.9283177,31.0394614 L73.4473006,33.3332236 L73.6702194,33.3853545 L74.9809822,34.9492832 L72.0874956,35.1457768 L72.0874956,33.5978884 C69.358969,33.0043975 70.0723093,32.3948663 69.7646813,32.2063929 C69.1182166,31.8174157 67.6068269,30.8349477 67.6068269,30.8349477 C67.6068269,30.8349477 65.0477186,31.2279349 64.3923372,31.4244285 C63.7369558,31.6209221 63.5541623,32.2063929 62.2567746,32.59537 C60.9460118,32.9883572 60.3575061,33.573828 59.9250435,34.1592987 C59.492581,34.7447695 58.0748171,36.5051918 57.2143504,37.2871561 C56.3405085,38.0731306 54.7265761,37.8726269 54.0756531,37.8726269 C53.4202717,37.8726269 50.2815744,37.0906625 50.2815744,37.0906625 L50.2815744,33.7743317 C50.2815744,33.7743317 50.7051202,31.9136575 50.4911181,31.3281867 L52.394845,31.0394614 L55.5736677,30.4499806 L56.5054685,29.8604998 L57.8429815,28.2965711 C57.8429815,28.2965711 56.3405085,27.3181131 57.4238941,25.950678 C57.9455242,25.293026 59.8225009,25.1687137 60.6918844,24.5832429 C61.5568095,23.9977722 62.8720307,23.604785 62.8720307,23.604785 C62.8720307,23.604785 64.3967955,22.4338435 65.9171021,21.0623983 C65.9171021,21.0623983 67.004946,20.4729175 68.3067921,20.0799303 C68.3067921,20.0799303 72.0072449,23.0153041 72.6626263,23.0153041 C73.3180077,23.0153041 75.7076977,21.647869 75.7076977,21.647869 C75.7076977,21.647869 76.3586207,19.8914568 76.1446186,19.301976 C75.9261581,18.7165052 74.8383142,16.7595893 74.8383142,16.7595893 C74.8383142,16.7595893 74.1873912,17.7380473 73.5364681,18.5200116 C72.8855451,19.301976 72.4486242,20.2804339 72.4486242,20.2804339 C72.4486242,20.2804339 69.4035528,20.0919605 69.1895507,19.5064897 C68.9666318,18.9170089 68.5386277,17.9505812 68.3157088,17.3691205 C68.1061651,16.7796397 66.3629397,16.79969 65.0655521,17.1926773 C63.7547893,17.5856645 65.2750958,15.0833785 65.2750958,15.0833785 C65.2750958,15.0833785 66.5858586,13.6076714 67.4507837,13.6076714 C68.3157088,13.6076714 70.281853,12.605153 71.1423197,12.4126695 C72.0161616,12.2161759 74.6332288,11.3219295 75.712156,11.3219295 C76.8,11.3219295 78.1063044,11.7429872 78.7616858,11.7429872 L82.0207593,11.7429872 L86.5816789,11.4141612 C86.5816789,11.4141612 90.5005921,12.7174351 89.1898293,13.5034095 C89.1898293,13.5034095 90.7190526,14.3495351 91.3699756,14.9350058 C91.9807732,15.488396 93.5590387,14.4257265 94.4640892,13.9725881 C110.732706,23.1556567 121.611146,39.4004649 121.611146,57.922995 L121.611146,57.922995 Z M17.8602577,27.3181131 C17.8602577,28.1000775 16.6743295,28.2885509 17.8602577,30.253487 C19.3761059,32.7958737 18.0742598,33.9708253 18.0742598,33.9708253 C18.0742598,33.9708253 14.373807,36.3167183 13.722884,36.7097055 C13.071961,37.1026928 11.333194,39.2520922 12.4165796,38.6626114 C13.5044235,38.0771406 14.8062696,37.4916699 13.722884,39.0555986 C12.6350401,40.6235374 10.6778126,43.161914 10.2453501,44.144382 C9.8128875,45.1268501 7.63719958,47.468733 7.63719958,48.6436846 C7.63719958,49.8186362 6.76781609,52.1685393 6.98627656,53.1469973 C7.133403,53.8287098 6.65189829,55.8377567 6.27293626,56.6638318 C6.56718913,45.66821 10.682271,35.534754 17.4768373,27.2459318 C17.6997562,27.2659822 17.8602577,27.3181131 17.8602577,27.3181131 L17.8602577,27.3181131 Z M24.8465343,19.8192755 C30.1653779,15.4041844 36.3981888,11.8833398 43.2730059,9.50135606 C42.5953326,10.2833204 41.7749913,11.0853351 41.7749913,11.0853351 C41.7749913,11.0853351 40.2546848,11.0813251 37.4236155,13.8242154 C34.6014629,16.5630957 35.2523859,15.7811313 34.6014629,16.5590856 C33.9505399,17.3370399 34.164542,17.5375436 32.6397771,18.5200116 C31.1239289,19.4944595 30.4685475,20.6694111 30.4685475,20.6694111 L28.0743992,21.4513754 L26.1216301,20.6694111 C26.1216301,20.6694111 24.3739464,21.2588919 24.5924068,20.4729175 C24.6548241,20.2643936 24.74845,20.0478497 24.8465343,19.8192755 L24.8465343,19.8192755 Z M50.9102055,24.3827392 L50.0452804,23.2117978 L50.9102055,21.4513754 L53.0056426,22.2052693 L53.0056426,18.7124952 L55.0074538,17.7380473 L56.6704284,19.8874467 L59.2295367,22.4338435 L57.5308952,23.604785 L53.0011843,24.3867493 L53.0011843,22.3135413 L50.9102055,24.3827392 L50.9102055,24.3827392 Z M79.1852316,42.7689268 C79.6934866,42.4080201 81.3564612,43.3543975 81.3564612,43.3543975 C81.3564612,43.3543975 86.7912226,44.3328555 87.6606061,44.9183262 C88.5344479,45.5078071 90.0547544,45.9007943 90.4916754,46.4902751 C90.9285963,47.0757458 92.4444444,48.8361682 92.6584465,49.4216389 C92.8813654,50.0071096 93.9692093,52.1645293 94.1876698,52.9424835 C94.4061303,53.7244479 95.0570533,55.6813638 95.7079763,56.6598218 C96.3588993,57.6422898 100.059352,61.9410887 101.361198,63.8980046 L105.28457,63.3125339 C105.28457,63.3125339 104.843191,65.0689461 104.410728,65.658427 C103.978265,66.2438977 102.671961,67.8078264 102.021038,68.5897908 C101.365657,69.3717551 100.500731,70.5467067 99.194427,71.5211546 C97.892581,72.4956025 97.8836642,73.4740604 97.2371996,74.2600349 C96.5862766,75.0419992 95.7124347,76.8024215 95.7124347,76.8024215 C95.7124347,76.8024215 96.1493556,80.7162534 96.3633577,81.4982177 C96.5773598,82.2801821 94.8430512,84.4295816 94.8430512,84.4295816 L92.8813654,86.1940139 L90.2598398,89.3178613 L90.4738419,92.2492251 C90.4738419,92.2492251 88.4943225,93.6246804 87.4020202,94.4026346 C86.323093,95.1805889 86.4925113,95.7700697 85.6231278,96.5560442 C84.7582027,97.3339985 81.3564612,98.7054436 80.4870777,98.9019372 C79.6176942,99.0984308 74.8204807,99.6839016 74.8204807,99.6839016 L74.8204807,97.9274893 L74.7223964,95.9705734 C74.7223964,95.9705734 74.0625566,93.6246804 73.4071752,92.842716 C72.7517938,92.0607516 73.0371299,90.88179 71.949286,89.9073421 C70.861442,88.9288842 70.4601881,88.1509299 70.2417276,87.557439 C70.0232672,86.9719682 70.4780216,85.215556 70.4780216,85.215556 C70.4780216,85.215556 71.3563218,83.0621465 71.7887844,82.2801821 C72.2257053,81.4982177 71.7932428,80.3272762 71.3563218,79.5413018 C70.9194009,78.7553274 70.7098572,76.7984115 70.7098572,76.2169508 C70.7098572,75.63148 68.9621735,74.649012 68.3112504,74.0635413 C67.6603274,73.4780705 67.8787879,72.6920961 67.8787879,71.9181519 C67.8787879,71.1281674 67.2278649,69.3717551 67.4418669,68.00031 C67.6603274,66.6328749 65.4890979,67.6073227 64.1827935,68.00031 C62.876489,68.3932972 62.0115639,67.6073227 62.0115639,66.4323712 C62.0115639,65.2574196 59.6218739,66.2398876 58.097109,67.0178419 C56.5678858,67.7998063 54.8335772,67.7998063 53.0858934,68.3892871 C51.3515848,68.9747578 50.4866597,67.8038164 50.4866597,67.8038164 C50.4866597,67.8038164 48.9574364,66.6328749 47.8785092,66.043394 C46.7862069,65.4579233 45.6983629,64.2869818 44.8245211,63.3085238 C43.959596,62.3260558 41.7794497,59.3906819 41.569906,58.2237505 C41.3514455,57.0447888 41.569906,56.2588144 41.569906,54.8913793 C41.569906,53.5239442 41.569906,52.7419799 41.783908,51.7635219 C42.0023685,50.7850639 42.6532915,49.6101124 43.3086729,48.6316544 C43.959596,47.6531964 46.3537443,46.4822549 47.000209,46.0892677 C47.651132,45.7002906 49.1758969,44.5293491 49.1758969,43.7433747 C49.1758969,42.9614103 50.0497388,42.5724332 50.4777429,41.7864587 C50.9191223,41.0044944 52.4394288,39.0515885 54.3966562,39.8335529 C54.3966562,39.8335529 56.1309648,39.6410694 56.7818878,39.4445757 C57.4328109,39.2480821 59.1715778,38.6666215 60.0320446,38.2736343 C60.9014281,37.880647 63.0681992,37.6961836 63.0681992,37.6961836 C63.0681992,37.6961836 64.780216,38.3097249 65.431139,38.3097249 C66.082062,38.3097249 68.2042494,37.9688687 68.2042494,37.9688687 C68.2042494,37.9688687 69.1850923,40.8039907 69.1850923,41.3934715 C69.1850923,41.9829523 69.8360153,42.564413 70.9283177,42.9574002 C72.0027865,43.3543975 77.0095437,44.3368656 79.1852316,42.7689268 L79.1852316,42.7689268 Z M104.192268,81.1092406 C104.192268,81.6947114 103.973807,83.2626501 103.755347,84.0446145 C103.527969,84.8265788 103.099965,86.198024 102.885963,86.9719682 C102.667503,87.7579427 101.579659,89.3218714 100.933194,89.7148586 C100.282271,90.1078458 99.1899687,91.2827974 98.543504,91.4752809 C97.892581,91.6717745 97.4512017,90.1038357 97.6696621,89.3218714 C97.892581,88.539907 98.9759666,86.3905076 98.9759666,86.3905076 C98.9759666,86.3905076 99.194427,85.2195661 99.4084291,84.4335916 C99.631348,83.6556373 102.239498,82.6771794 102.239498,82.6771794 L103.982724,79.7418055 C103.973807,79.7377954 104.192268,80.5277799 104.192268,81.1092406 L104.192268,81.1092406 Z M7.6907001,69.4559667 C7.97157785,69.5201279 8.37283177,69.7045912 8.93904563,70.1577296 C9.75938697,70.7993413 10.2453501,71.1281674 11.333194,71.5251647 C12.4165796,71.922162 12.8535005,72.4996126 14.1598049,73.0890934 C15.4661094,73.6785742 15.0336468,73.2895971 16.7679554,75.0460093 C18.5111808,76.8024215 18.2927203,76.8024215 18.7251829,77.7848896 C19.1576454,78.7673576 19.8130268,79.7377954 20.2499478,80.3312863 C20.6868687,80.9167571 21.9887147,81.3057342 22.6396378,81.6987214 C23.2905608,82.0917086 24.3784047,82.4806858 25.0293278,82.4806858 C25.6847092,82.4806858 27.6419366,84.2411081 28.7297806,84.4335916 C29.8176245,84.6340953 29.8176245,86.5910112 29.8176245,86.5910112 L28.7297806,89.3258814 L27.8559387,92.2572453 L28.7297806,94.6031383 C28.7297806,94.6031383 27.4190178,95.5856064 26.558551,95.5856064 C25.7560432,95.5856064 25.4840822,96.0427547 24.605782,95.8262108 C16.313201,88.8607129 10.2988506,79.7498256 7.6907001,69.4559667 L7.6907001,69.4559667 Z" id="Shape" fill="#36A8F3"></path>
                                </g>
                            </g>
                        </g>
                    </g>
                </g>
            </g>
        </g>
    </g>
</svg>