<?xml version="1.0" encoding="UTF-8" standalone="no"?>
<svg width="219px" height="197px" viewBox="0 0 219 197" version="1.1" xmlns="http://www.w3.org/2000/svg" xmlns:xlink="http://www.w3.org/1999/xlink">
    <!-- Generator: Sketch 3.7.2 (28276) - http://www.bohemiancoding.com/sketch -->
    <title>Learn Copy</title>
    <desc>Created with Sketch.</desc>
    <defs>
        <path d="M104.069565,187 C161.545599,187 208.13913,145.138624 208.13913,93.5 C208.13913,41.8613759 161.545599,0 104.069565,0 C46.5935314,0 0,41.8613759 0,93.5 C0,145.138624 46.5935314,187 104.069565,187 Z" id="path-1"></path>
        <mask id="mask-2" maskContentUnits="userSpaceOnUse" maskUnits="objectBoundingBox" x="-5" y="-5" width="218.13913" height="197">
            <rect x="-5" y="-5" width="218.13913" height="197" fill="white"></rect>
            <use xlink:href="#path-1" fill="black"></use>
        </mask>
    </defs>
    <g id="Page-1" stroke="none" stroke-width="1" fill="none" fill-rule="evenodd">
        <g id="ABOUT-Page--DR.-CELESTE" transform="translate(-634.000000, -99.000000)">
            <g id="Navbar" transform="translate(0.000000, -1.000000)">
                <g id="Tabs" transform="translate(421.000000, 14.391304)"></g>
            </g>
            <g id="Learn-Copy" transform="translate(639.000000, 104.000000)">
                <g id="Layer_1">
                    <g id="Light">
                        <use fill="#367AF3" fill-rule="evenodd" xlink:href="#path-1"></use>
                        <use stroke="#FFFFFF" mask="url(#mask-2)" stroke-width="10" xlink:href="#path-1"></use>
                    </g>
                    <g id="Group" transform="translate(43.904348, 32.521739)" fill="#FFFFFF">
                        <path d="M114.059132,0 L6.27130302,0 C2.97572254,0 0.283022094,2.69638403 0.283022094,5.98889485 C0.283022094,9.28201961 2.97510861,11.9765618 6.27068909,11.9765618 L7.6587866,11.9765618 L7.6587866,71.2601746 C7.6587866,75.5527787 11.1514389,79.045431 15.4452708,79.045431 L104.882708,79.045431 C109.174084,79.045431 112.666737,75.5533926 112.666737,71.2601746 L112.666737,11.9771758 L114.059132,11.9771758 C117.351029,11.9771758 120.047413,9.28263354 120.047413,5.98950878 C120.047413,2.69638403 117.351029,0 114.059132,0 L114.059132,0 Z M105.480063,71.2607886 C105.480063,71.5806465 105.20318,71.8605989 104.883322,71.8605989 L15.4458847,71.8605989 C15.1223432,71.8605989 14.8448465,71.5806465 14.8448465,71.2607886 L14.8448465,11.9771758 L105.479449,11.9771758 L105.479449,71.2607886 L105.480063,71.2607886 Z" id="Shape"></path>
                        <path d="M90.3865744,23.2986735 C87.0989751,23.2986735 84.420395,25.972956 84.420395,29.2611693 C84.420395,30.514202 84.8090132,31.6849681 85.4732863,32.6396304 L71.67335,48.5238618 C70.8776957,48.122351 69.9764453,47.9001081 69.021783,47.9001081 C67.9682777,47.9001081 66.9859885,48.1733073 66.1277132,48.6515594 L59.9122779,42.1138104 C60.4838475,41.1972117 60.8202815,40.1154657 60.8202815,38.9539086 C60.8202815,35.6644674 58.145999,32.9889571 54.8565579,32.9889571 C51.5689585,32.9889571 48.8928342,35.6644674 48.8928342,38.9539086 C48.8928342,39.5420543 48.9763287,40.1007313 49.1310393,40.6373068 L34.1241151,49.6203421 C33.051578,48.5539444 31.5738466,47.8994941 29.9414046,47.8994941 C26.655647,47.8994941 23.9764531,50.5737767 23.9764531,53.86199 C23.9764531,57.1495894 26.655647,59.8238719 29.9414046,59.8238719 C33.229004,59.8238719 35.9063562,57.1495894 35.9063562,53.86199 C35.9063562,53.2726164 35.8234755,52.7139394 35.659556,52.17675 L50.676917,43.1949425 C51.7469984,44.2613403 53.2247298,44.9157905 54.8559439,44.9157905 C55.9069934,44.9157905 56.8911245,44.6395217 57.7487858,44.1631114 L63.9574679,50.7002464 C63.3834426,51.6168451 63.0562175,52.6985911 63.0562175,53.86199 C63.0562175,57.1495894 65.7268164,59.8238719 69.021169,59.8238719 C72.3069266,59.8238719 74.9836649,57.1495894 74.9836649,53.86199 C74.9836649,52.6015901 74.5895213,51.4381912 73.9252482,50.4780035 L87.7227287,34.5992975 C88.5208388,35.0008083 89.4306842,35.2255069 90.3859605,35.2255069 C93.6717181,35.2255069 96.3496842,32.5487687 96.3496842,29.2605554 C96.3496842,25.9723421 93.6717181,23.2986735 90.3865744,23.2986735 L90.3865744,23.2986735 Z M32.9251083,53.86199 C32.9251083,55.5017991 31.5904227,56.842624 29.9414046,56.842624 C28.2960701,56.842624 26.957701,55.5017991 26.957701,53.86199 C26.957701,52.2154276 28.2960701,50.8807421 29.9414046,50.8807421 C30.4718408,50.8807421 30.9654412,51.014579 31.3872116,51.2527841 C32.288462,51.7525238 32.8993232,52.7059583 32.9251083,53.8098059 L32.9251083,53.86199 L32.9251083,53.86199 Z M54.8559439,41.9351565 C54.3279634,41.9351565 53.8294516,41.7994778 53.4027697,41.5631145 C52.5015193,41.0553937 51.8875886,40.0927502 51.8734681,38.9974977 L51.8734681,38.9539086 C51.8734681,37.3061184 53.2093815,35.9714328 54.8559439,35.9714328 C56.4975949,35.9714328 57.8384197,37.3061184 57.8384197,38.9539086 C57.8384197,39.2424561 57.7936028,39.5340732 57.711336,39.802361 C57.4135796,40.8098214 56.5841591,41.6060896 55.5484579,41.8528898 C55.3237592,41.9050739 55.0953769,41.9351565 54.8559439,41.9351565 L54.8559439,41.9351565 Z M72.0030309,53.86199 C72.0030309,55.5017991 70.6597503,56.842624 69.021783,56.842624 C67.3739927,56.842624 66.041149,55.5017991 66.041149,53.86199 C66.041149,53.5716007 66.0841241,53.2891925 66.156568,53.0209048 C66.4543244,51.9980961 67.2929539,51.2079672 68.3255854,50.9623949 C68.5521259,50.9114386 68.781736,50.8807421 69.0223969,50.8807421 C69.2145572,50.8807421 69.4005783,50.8960903 69.5823018,50.9316983 C70.6321234,51.1336815 71.4946962,51.8857468 71.8403392,52.8852261 C71.9434796,53.1897358 72.0030309,53.5194166 72.0030309,53.86199 L72.0030309,53.86199 Z M90.3865744,32.244259 C90.1913445,32.244259 89.9979563,32.2215436 89.8199163,32.190847 C88.767639,31.9827245 87.9105916,31.2220642 87.5661764,30.2311799 C87.4611942,29.9242146 87.4047126,29.5957616 87.4047126,29.2605554 C87.4047126,27.613993 88.7449235,26.2793075 90.3859605,26.2793075 C92.0325229,26.2793075 93.3678224,27.613993 93.3678224,29.2605554 C93.3684363,30.9009784 92.0325229,32.244259 90.3865744,32.244259 L90.3865744,32.244259 Z" id="Shape"></path>
                        <path d="M100.043092,113.153584 C99.0583469,113.153584 98.1460457,113.450112 97.3841576,113.955377 L62.261791,96.1501567 L62.261791,79.0466588 L58.0686437,79.0466588 L58.0686437,96.1501567 L22.9462772,113.955377 C22.1843891,113.450726 21.2708601,113.153584 20.2873429,113.153584 C17.6284087,113.153584 15.4716698,115.312165 15.4716698,117.971099 C15.4716698,120.627577 17.6284087,122.786772 20.2873429,122.786772 C22.9462772,122.786772 25.1017882,120.627577 25.1017882,117.971099 C25.1017882,117.836648 25.0925792,117.704653 25.0839842,117.573886 L58.0686437,100.851025 L58.0686437,113.640431 C56.4589172,114.420123 55.3458607,116.063616 55.3458607,117.971713 C55.3458607,120.628191 57.5025996,122.787386 60.1652174,122.787386 C62.8241516,122.787386 64.9796626,120.628191 64.9796626,117.971713 C64.9796626,116.06423 63.8684479,114.420123 62.261791,113.640431 L62.261791,100.850411 L95.2458366,117.573272 C95.233558,117.704653 95.2237351,117.836648 95.2237351,117.970485 C95.2237351,120.626963 97.3847715,122.786158 100.043706,122.786158 C102.70264,122.786158 104.858151,120.626963 104.858151,117.970485 C104.857537,115.311551 102.702026,113.153584 100.043092,113.153584 L100.043092,113.153584 Z" id="Shape"></path>
                    </g>
                </g>
            </g>
        </g>
    </g>
</svg>