<?xml version="1.0" encoding="UTF-8" standalone="no"?>
<svg width="128px" height="115px" viewBox="0 0 128 115" version="1.1" xmlns="http://www.w3.org/2000/svg" xmlns:xlink="http://www.w3.org/1999/xlink">
    <!-- Generator: Sketch 3.7.2 (28276) - http://www.bohemiancoding.com/sketch -->
    <title>Learn</title>
    <desc>Created with Sketch.</desc>
    <defs>
        <rect id="path-1" x="0" y="0" width="270" height="221.041761" rx="10"></rect>
        <mask id="mask-2" maskContentUnits="userSpaceOnUse" maskUnits="objectBoundingBox" x="0" y="0" width="270" height="221.041761" fill="white">
            <use xlink:href="#path-1"></use>
        </mask>
        <path d="M64,115 C99.346224,115 128,89.2563731 128,57.5 C128,25.7436269 99.346224,0 64,0 C28.653776,0 0,25.7436269 0,57.5 C0,89.2563731 28.653776,115 64,115 Z" id="path-3"></path>
        <mask id="mask-4" maskContentUnits="userSpaceOnUse" maskUnits="objectBoundingBox" x="0" y="0" width="128" height="115" fill="white">
            <use xlink:href="#path-3"></use>
        </mask>
    </defs>
    <g id="Page-1" stroke="none" stroke-width="1" fill="none" fill-rule="evenodd">
        <g id="Home-Page--About-Nav-ACTIVE" transform="translate(-732.000000, -633.000000)">
            <g id="Discription-+-Services" transform="translate(0.000000, 587.000000)">
                <g id="Services" stroke-width="2" stroke="#367AF3">
                    <g id="Laser" transform="translate(661.000000, 29.410405)">
                        <use mask="url(#mask-2)" xlink:href="#path-1"></use>
                    </g>
                </g>
                <g id="Learn" transform="translate(732.000000, 46.000000)">
                    <g id="Layer_1">
                        <use id="Light" stroke="#367AF3" mask="url(#mask-4)" stroke-width="10" fill="#367AF3" xlink:href="#path-3"></use>
                        <g id="Group" transform="translate(27.000000, 20.000000)" fill="#FFFFFF">
                            <path d="M70.1433163,0 L3.85668367,0 C1.8299898,0 0.17405102,1.65820408 0.17405102,3.6830102 C0.17405102,5.70819388 1.82961224,7.36526531 3.85630612,7.36526531 L4.70994898,7.36526531 L4.70994898,43.823102 C4.70994898,46.4629388 6.85783673,48.6108265 9.49842857,48.6108265 L64.5000612,48.6108265 C67.1391429,48.6108265 69.2870306,46.4633163 69.2870306,43.823102 L69.2870306,7.36564286 L70.1433163,7.36564286 C72.1677449,7.36564286 73.825949,5.70857143 73.825949,3.68338776 C73.825949,1.65820408 72.1677449,0 70.1433163,0 L70.1433163,0 Z M64.8674184,43.8234796 C64.8674184,44.0201837 64.6971429,44.1923469 64.5004388,44.1923469 L9.49880612,44.1923469 C9.29983673,44.1923469 9.12918367,44.0201837 9.12918367,43.8234796 L9.12918367,7.36564286 L64.8670408,7.36564286 L64.8670408,43.8234796 L64.8674184,43.8234796 Z" id="Shape"></path>
                            <path d="M55.5853265,14.3280612 C53.5635408,14.3280612 51.9162857,15.9726735 51.9162857,17.9948367 C51.9162857,18.7654184 52.1552755,19.4854082 52.5637857,20.0725 L44.0771939,29.8408776 C43.5878878,29.5939592 43.0336429,29.4572857 42.446551,29.4572857 C41.7986735,29.4572857 41.1945918,29.6252959 40.6667755,29.9194082 L36.844449,25.8988673 C37.195949,25.3351837 37.4028469,24.6699388 37.4028469,23.9556122 C37.4028469,21.9326939 35.7582347,20.2873265 33.7353163,20.2873265 C31.7135306,20.2873265 30.0677857,21.9326939 30.0677857,23.9556122 C30.0677857,24.3173061 30.1191327,24.6608776 30.2142755,24.9908571 L20.9854184,30.5151837 C20.3258367,29.8593776 19.4170714,29.4569082 18.4131633,29.4569082 C16.3925102,29.4569082 14.7448776,31.1015204 14.7448776,33.1236837 C14.7448776,35.1454694 16.3925102,36.7900816 18.4131633,36.7900816 C20.434949,36.7900816 22.081449,35.1454694 22.081449,33.1236837 C22.081449,32.7612347 22.0304796,32.4176633 21.9296735,32.0873061 L31.164949,26.5637347 C31.8230204,27.2195408 32.7317857,27.6220102 33.7349388,27.6220102 C34.3813061,27.6220102 34.9865204,27.4521122 35.5139592,27.1591327 L39.3321327,31.1792959 C38.9791224,31.7429796 38.7778878,32.4082245 38.7778878,33.1236837 C38.7778878,35.1454694 40.4202347,36.7900816 42.4461735,36.7900816 C44.4668265,36.7900816 46.112949,35.1454694 46.112949,33.1236837 C46.112949,32.3485714 45.8705612,31.6331122 45.462051,31.0426224 L53.9471327,21.2776429 C54.437949,21.5245612 54.9974796,21.6627449 55.584949,21.6627449 C57.605602,21.6627449 59.2524796,20.0166224 59.2524796,17.9944592 C59.2524796,15.9722959 57.605602,14.3280612 55.5853265,14.3280612 L55.5853265,14.3280612 Z M20.2480612,33.1236837 C20.2480612,34.1321224 19.4272653,34.9566939 18.4131633,34.9566939 C17.4013265,34.9566939 16.5782653,34.1321224 16.5782653,33.1236837 C16.5782653,32.1110918 17.4013265,31.2902959 18.4131633,31.2902959 C18.7393673,31.2902959 19.0429184,31.372602 19.3022959,31.5190918 C19.8565408,31.8264184 20.2322041,32.4127551 20.2480612,33.0915918 L20.2480612,33.1236837 L20.2480612,33.1236837 Z M33.7349388,25.789 C33.4102449,25.789 33.1036735,25.7055612 32.8412755,25.5602041 C32.2870306,25.2479694 31.9094796,24.6559694 31.9007959,23.9824184 L31.9007959,23.9556122 C31.9007959,22.9422653 32.7223469,22.1214694 33.7349388,22.1214694 C34.7445102,22.1214694 35.5690816,22.9422653 35.5690816,23.9556122 C35.5690816,24.1330612 35.5415204,24.312398 35.4909286,24.4773878 C35.3078163,25.096949 34.7977449,25.5866327 34.1608163,25.7384082 C34.0226327,25.7705 33.8821837,25.789 33.7349388,25.789 L33.7349388,25.789 Z M44.2799388,33.1236837 C44.2799388,34.1321224 43.4538571,34.9566939 42.446551,34.9566939 C41.4332041,34.9566939 40.6135408,34.1321224 40.6135408,33.1236837 C40.6135408,32.945102 40.6399694,32.7714286 40.6845204,32.6064388 C40.8676327,31.9774388 41.3833673,31.4915306 42.0184082,31.3405102 C42.1577245,31.3091735 42.2989286,31.2902959 42.4469286,31.2902959 C42.565102,31.2902959 42.6795,31.2997347 42.7912551,31.3216327 C43.4368673,31.4458469 43.9673265,31.9083469 44.1798878,32.523 C44.2433163,32.7102653 44.2799388,32.9130102 44.2799388,33.1236837 L44.2799388,33.1236837 Z M55.5853265,19.8293571 C55.4652653,19.8293571 55.3463367,19.8153878 55.2368469,19.7965102 C54.5897245,19.6685204 54.0626633,19.2007347 53.8508571,18.5913673 C53.7862959,18.4025918 53.7515612,18.200602 53.7515612,17.9944592 C53.7515612,16.9818673 54.5757551,16.1610714 55.584949,16.1610714 C56.5975408,16.1610714 57.4187143,16.9818673 57.4187143,17.9944592 C57.4190918,19.0032755 56.5975408,19.8293571 55.5853265,19.8293571 L55.5853265,19.8293571 Z" id="Shape"></path>
                            <path d="M61.5238265,69.5864286 C60.9182347,69.5864286 60.3571939,69.7687857 59.8886531,70.0795102 L38.2893367,59.1297755 L38.2893367,48.6115816 L35.7106633,48.6115816 L35.7106633,59.1297755 L14.1113469,70.0795102 C13.6428061,69.7691633 13.0810102,69.5864286 12.4761735,69.5864286 C10.841,69.5864286 9.51466327,70.913898 9.51466327,72.5490714 C9.51466327,74.1827347 10.841,75.5105816 12.4761735,75.5105816 C14.1113469,75.5105816 15.4369286,74.1827347 15.4369286,72.5490714 C15.4369286,72.4663878 15.4312653,72.3852143 15.4259796,72.3047959 L35.7106633,62.0206837 L35.7106633,69.8858265 C34.7207245,70.3653163 34.0362245,71.3760204 34.0362245,72.549449 C34.0362245,74.1831122 35.3625612,75.5109592 37,75.5109592 C38.6351735,75.5109592 39.9607551,74.1831122 39.9607551,72.549449 C39.9607551,71.376398 39.2773878,70.3653163 38.2893367,69.8858265 L38.2893367,62.0203061 L58.5736429,72.3044184 C58.5660918,72.3852143 58.560051,72.4663878 58.560051,72.5486939 C58.560051,74.1823571 59.8890306,75.5102041 61.5242041,75.5102041 C63.1593776,75.5102041 64.4849592,74.1823571 64.4849592,72.5486939 C64.4845816,70.9135204 63.159,69.5864286 61.5238265,69.5864286 L61.5238265,69.5864286 Z" id="Shape"></path>
                        </g>
                    </g>
                </g>
            </g>
        </g>
    </g>
</svg>