<?xml version="1.0" encoding="UTF-8" standalone="no"?>
<svg width="138px" height="126px" viewBox="0 0 138 126" version="1.1" xmlns="http://www.w3.org/2000/svg" xmlns:xlink="http://www.w3.org/1999/xlink">
    <!-- Generator: Sketch 3.7.2 (28276) - http://www.bohemiancoding.com/sketch -->
    <title>Caduceus Icon</title>
    <desc>Created with Sketch.</desc>
    <defs>
        <rect id="path-1" x="0" y="0" width="270" height="221.041761" rx="10"></rect>
        <mask id="mask-2" maskContentUnits="userSpaceOnUse" maskUnits="objectBoundingBox" x="0" y="0" width="270" height="221.041761" fill="white">
            <use xlink:href="#path-1"></use>
        </mask>
        <ellipse id="path-3" cx="64" cy="57.4104573" rx="64" ry="57.3313059"></ellipse>
        <mask id="mask-4" maskContentUnits="userSpaceOnUse" maskUnits="objectBoundingBox" x="-5" y="-5" width="138" height="124.662612">
            <rect x="-5" y="-4.92084857" width="138" height="124.662612" fill="white"></rect>
            <use xlink:href="#path-3" fill="black"></use>
        </mask>
    </defs>
    <g id="Page-1" stroke="none" stroke-width="1" fill="none" fill-rule="evenodd">
        <g id="Home-Page--About-Nav-ACTIVE" transform="translate(-434.000000, -625.000000)">
            <g id="Discription-+-Services" transform="translate(0.000000, 587.000000)">
                <g id="Services">
                    <g id="Harmony" transform="translate(367.000000, 29.410405)">
                        <use stroke="#3694F3" mask="url(#mask-2)" stroke-width="2" xlink:href="#path-1"></use>
                        <g id="Caduceus-Icon" transform="translate(72.000000, 14.352279)">
                            <g id="Caducues">
                                <use fill="#3694F3" fill-rule="evenodd" xlink:href="#path-3"></use>
                                <use stroke="#FFFFFF" mask="url(#mask-4)" stroke-width="10" xlink:href="#path-3"></use>
                            </g>
                            <g id="Caduceus" transform="translate(12.800000, 12.612887)" fill="#FFFFFF">
                                <g id="layer1" transform="translate(0.000000, 0.000000)">
                                    <path d="M49.8557801,98.7506705 C49.5144467,98.4302662 49.3423725,97.4599313 49.2987381,95.6093397 L49.2361017,92.931797 L47.8165773,92.4360825 C44.6622351,91.3340512 43.3514447,89.6388157 43.2793072,86.5690343 C43.2413031,84.9564654 43.3817072,84.4473532 44.1143423,83.5371654 C45.0563519,82.3670054 45.0570557,82.3701411 43.3810034,80.9363031 C41.0602887,78.9508794 40.4008467,74.0467546 42.2338419,72.4045398 C42.617754,72.0607608 42.9288247,71.6497083 42.9253058,71.4912164 C42.9214351,71.3327246 42.1715574,70.4544632 41.2587546,69.5394295 C38.4246323,66.6982639 38.0706309,65.9819151 37.9847698,62.9112785 C37.9154474,60.4384069 37.993567,60.0792348 38.8887753,58.7634105 C39.4275189,57.9709514 40.3213196,56.918235 40.8744907,56.4239457 L41.8801924,55.5254453 L40.5620124,54.2954233 C39.836767,53.6189824 38.8194529,52.3641605 38.3011189,51.5069933 C37.4671395,50.1270312 37.3478488,49.573165 37.2605801,46.6712822 C37.1750708,43.8292615 37.2658584,43.1981448 37.9446543,41.9188079 C38.3753677,41.1072499 39.1826034,40.0764829 39.7385897,39.6280879 C40.7186034,38.8379092 41.0585292,38.0594179 40.419145,38.0693949 C40.2470708,38.0719604 39.2177924,37.3923839 38.1315079,36.5588765 C35.1186254,34.2464922 33.494301,30.1929782 34.6460371,27.8612099 L35.1590928,26.8221763 L33.8345787,25.984393 C32.5350488,25.162573 31.8087478,24.2786105 30.7266859,22.2002581 L30.1840715,21.158659 L28.4116014,21.6481022 C26.7130282,22.1170214 26.5603079,22.1136007 24.7741141,21.5657207 C23.6058392,21.2071187 22.1690722,21.0115694 20.9261966,21.0417855 C19.5316564,21.0757073 18.4337595,20.900112 17.228888,20.4505768 C16.2865265,20.0985311 14.8110515,19.7881037 13.9506804,19.7601681 C12.9024,19.7265314 11.7288467,19.3964351 10.3955354,18.7610425 C8.97460344,18.0837465 7.97699519,17.8149375 6.90936082,17.8217789 C5.21958488,17.8328961 2.4470433,16.7927222 0.977550515,15.596622 L0.0439862543,14.8369445 L1.99204948,14.4521172 C4.36554777,13.983198 10.6467849,11.3147772 14.8845966,8.97474225 C16.6042832,8.02521658 20.2002474,6.03238139 22.8753155,4.54609292 C28.8437223,1.23030706 29.2944935,1.03390262 32.0364206,0.553011052 C38.3848687,-0.560707598 43.4640495,1.73314804 44.3835381,6.12958591 C44.7382433,7.82396616 44.1843684,9.32194198 42.6807423,10.736111 C42.0445251,11.3344461 41.526543,11.9404778 41.5300619,12.0827214 C41.5332289,12.22525 42.0498034,12.678491 42.6779271,13.0903987 C43.6009347,13.6958603 44.054521,13.8047522 45.0426282,13.6590879 C46.8953292,13.3862882 47.174378,12.9792264 47.1490419,10.587026 C47.1321512,8.97474225 46.9428344,8.16888543 46.3696055,7.27095511 C44.8005278,4.81205133 45.6042447,2.15531782 48.2754419,0.970904971 C51.8921677,-0.632827081 55.868877,0.849755643 56.3805251,3.99279681 C56.5237443,4.87219841 56.3449842,5.60080472 55.683079,6.83424741 C54.9008275,8.29203016 54.8121512,8.79487113 54.9525553,10.9795498 L55.1126653,13.4661042 L56.7676041,13.5268214 C58.2891766,13.5826926 60.5560522,12.9518609 60.5447918,12.4752452 C60.5423285,12.3766154 60.1594722,11.9048457 59.6935698,11.4265196 C57.6156591,9.29400637 57.3591313,5.78523676 59.1196371,3.57205232 C61.3041704,0.825525777 64.3184605,-0.106326352 68.8106887,0.575815632 C72.9348399,1.2020864 74.6756399,2.00851334 84.7843849,7.97618673 C87.2043326,9.40460858 91.2647918,11.4986391 93.807901,12.6291761 C98.2082859,14.5852389 98.5207643,14.6778825 100.275992,14.5450458 C101.972102,14.416485 102.121655,14.4546827 102.135027,15.018811 C102.154733,15.8551689 99.964921,17.9449236 98.3251134,18.6547161 C97.5868481,18.9742653 96.3622708,19.2453547 95.6039478,19.2570421 C94.8456247,19.2687294 93.3324976,19.6261912 92.2416385,20.0512116 C90.627167,20.6803329 89.9631505,20.7929305 88.6703065,20.656103 C87.5435546,20.5369491 86.8598323,20.611064 86.3161622,20.9117994 C85.4459381,21.3932611 83.3046873,21.7698217 80.4761952,21.9385756 C74.6545265,22.2860604 72.7022405,22.4491131 72.3880027,22.613021 C72.1958708,22.7133612 71.82709,23.2287447 71.5684509,23.7586661 C71.0465979,24.8273457 69.6460756,26.1443101 68.1874914,26.9379095 C67.3095258,27.4153804 67.235277,27.6055136 67.2743368,29.2693927 C67.3341581,31.8160941 66.2327423,33.7921109 63.3553375,36.3003296 L61.062422,38.2988659 L62.5463423,39.6805384 C64.755156,41.7369414 65.471956,43.1570966 65.5384632,45.6102992 C65.6426227,49.4400433 64.5302983,51.6158852 61.2668701,53.9639017 L59.6253031,55.1451789 L60.7277746,56.0647736 C63.3356316,58.2397604 63.567879,58.700983 63.6181993,61.803546 C63.6748536,65.3094651 63.1273127,66.3664573 60.1116151,68.5742257 C58.1800907,69.9883947 57.5210007,70.8783434 58.415857,70.8646606 C58.6199533,70.861525 59.2086653,71.5901313 59.7238323,72.4837858 C61.3485086,75.3018617 60.7077168,78.2678823 57.8936522,80.9593928 C57.1557388,81.6651945 56.553655,82.3134147 56.5557663,82.4000721 C56.5575258,82.4864444 56.9660701,83.0237773 57.4636426,83.5938918 C58.1955739,84.4325302 58.3760935,84.9784149 58.4105787,86.4570068 C58.4862351,89.6707421 56.0740289,92.2838619 52.9876014,92.3314665 L51.9678241,92.3471446 L51.8031395,95.5457719 C51.6521787,98.4818615 51.4181718,99.1771162 50.5701168,99.2070472 C50.4490667,99.211323 50.1274392,99.0060818 49.8557801,98.7506705 L49.8557801,98.7506705 Z M50.7826584,91.3505845 C50.684833,87.1887487 50.5067766,84.9567505 50.2731216,84.9604563 C50.0377072,84.964162 49.9831643,87.2243809 50.115123,91.5170579 C50.2298392,95.2399055 50.4497704,97.9986895 50.6246598,97.9074712 C50.7942708,97.8188184 50.8653526,94.8684759 50.7826584,91.3505845 L50.7826584,91.3505845 Z M49.1361649,87.9923251 C49.0348206,85.4741294 48.5590653,84.9747091 47.6635052,86.4456045 C47.0220096,87.4991761 47.2662213,89.4113401 48.2237141,90.8329205 L48.7965911,91.6832463 L49.0119478,90.9671825 C49.1305347,90.5732334 49.1864852,89.2346046 49.1361649,87.9923251 L49.1361649,87.9923251 Z M53.2170337,90.635946 C53.6994749,89.8711374 53.593556,87.0963902 53.0664247,86.6850526 C52.2644674,86.059922 52.1251189,86.3529609 52.0681127,88.7825038 C52.0265897,90.5455828 52.1275821,91.2054903 52.4386529,91.2000743 C52.6737155,91.1960835 53.023846,90.9423825 53.2170337,90.635946 L53.2170337,90.635946 Z M56.0501003,89.2411609 C58.2406158,86.244069 57.324646,83.9835651 52.7982845,81.2150891 C52.4231698,80.985618 51.4614543,80.39783 50.6612564,79.9086718 C49.8610584,79.4197986 48.751901,78.5093258 48.1966186,77.8856205 C47.3052811,76.8847845 47.1993622,76.5541181 47.2968357,75.0709653 L47.4073292,73.3899827 L45.9265759,72.6625167 C45.1119505,72.2625813 44.1892948,71.9393264 43.8757608,71.9438873 C42.3767093,71.967262 41.7031918,75.6487763 42.8218502,77.7066046 C43.8947629,79.6803409 47.1789526,81.9049277 50.5856,82.9656257 C52.3661636,83.520062 54.4324619,85.2648974 54.742477,86.4755355 C54.9990048,87.4777968 54.8744357,88.9221818 54.4109966,90.3138313 C54.1973993,90.9560653 54.2322364,90.9891319 54.7481072,90.6328103 C55.0644564,90.4144565 55.6503533,89.7881857 56.0501003,89.2411609 L56.0501003,89.2411609 Z M45.9153155,89.0453266 C45.590521,87.1357281 45.910389,85.8817613 46.9671148,84.9225436 C48.0044866,83.9809996 47.8475436,83.3832345 46.4962859,83.1306738 C45.7094598,82.9835843 45.3878323,83.1027382 44.7132591,83.7911514 C43.984143,84.5354359 43.9127093,84.8472885 44.0851354,86.5254205 C44.2185017,87.8221459 44.5341471,88.7394601 45.0855588,89.4324343 C45.5289402,89.9894361 45.9501526,90.4441024 46.0219381,90.4429622 C46.0940756,90.441822 46.0458667,89.8129857 45.9153155,89.0453266 L45.9153155,89.0453266 Z M56.1968385,79.8083316 C57.9928852,78.445473 58.8733141,76.8354696 58.8300316,74.9922895 C58.7656357,72.2603009 56.6321265,69.9678705 52.1581966,67.8248102 C49.5760275,66.5879468 47.078312,64.8721872 46.4149993,63.8796179 C45.5972069,62.6561522 45.7066447,60.7508296 46.6630818,59.5612857 C47.6167038,58.3745924 47.6437993,58.4076591 44.4247093,56.8441201 C42.2570667,55.7916888 42.1082172,55.8392933 40.6971381,58.0382249 C39.344121,60.1465083 39.2230708,62.3109479 40.3139299,64.8901459 C41.0286186,66.5796801 41.5279505,67.1973992 43.3648165,68.665729 C44.6970722,69.7304178 46.4420948,70.7646055 47.8000385,71.2939568 C52.1779024,73.0000244 54.3272467,75.2251813 53.1114667,76.7927111 C52.8046186,77.1880854 52.5829278,78.0911468 52.6012261,78.8702082 C52.656121,81.2122386 53.9141278,81.5406245 56.1968385,79.8083316 L56.1968385,79.8083316 Z M51.212668,78.0321399 C51.2330777,75.6809878 50.870279,74.6872783 49.9965361,74.7006759 C49.5211326,74.7080874 49.7136165,78.5307051 50.2090777,78.9172427 C50.9547326,79.4987595 51.2017595,79.2806907 51.212668,78.0321399 L51.212668,78.0321399 Z M48.9035656,75.3591582 C48.7522529,74.8862482 48.7321952,74.8865333 48.4883354,75.3654294 C48.3472275,75.64222 48.3577842,76.0909001 48.5115601,76.3631298 C48.7779409,76.8340444 48.7979986,76.8337593 48.9267904,76.3565735 C49.0013911,76.0812082 48.9908344,75.632243 48.9035656,75.3591582 L48.9035656,75.3591582 Z M57.926378,68.3772511 C60.3688467,67.121859 61.8295423,64.8425413 61.9878928,62.0395734 C62.0945155,60.1562002 62.0023203,59.80672 60.9762089,58.1961466 C60.3554749,57.2218209 59.4782131,56.1645436 59.0267381,55.8469899 C57.8461471,55.016048 52.7226282,52.307149 51.2601732,51.7407403 C50.5764509,51.4759221 49.0133553,50.74361 47.7866667,50.1130634 C45.8702735,49.1281906 45.452932,48.756476 44.8209375,47.4705828 C43.6195849,45.0262169 43.8180509,43.323855 45.4835464,41.7834057 C46.4354089,40.903434 46.0905567,40.4593148 43.7480247,39.5474167 L41.7302873,38.7617989 L40.5226007,39.9208417 C38.6470268,41.7212632 38.0375533,43.214108 38.0998378,45.8571588 C38.1459354,47.8177825 38.3123794,48.4012947 39.2681127,49.946875 C40.5711615,52.0548733 42.9967395,54.0186327 45.9427629,55.3512753 C50.4040247,57.3689105 54.0172316,59.3808445 54.6675244,60.2089358 C55.0419354,60.6855515 55.3603959,61.5618175 55.3748234,62.1558768 C55.4029746,63.2921149 54.4725773,65.1466974 53.5516811,65.7903566 C52.6343038,66.4314504 52.9598021,67.1646176 54.5464742,68.0297663 C56.3558928,69.0163495 56.6286076,69.0442851 57.926378,68.3772511 L57.926378,68.3772511 Z M51.5547052,64.1276177 C51.5719478,60.2730737 51.5497787,60.1892668 50.3917086,59.7266189 L49.3258337,59.3007434 L49.3962117,62.2892836 C49.4599038,64.9993228 49.5397828,65.3314145 50.2520082,65.8490784 C50.6844811,66.1629264 51.152143,66.3211332 51.2921952,66.2002689 C51.4318955,66.0796897 51.5501306,65.1469824 51.5547052,64.1276177 L51.5547052,64.1276177 Z M53.7744275,63.1869288 C53.8075052,61.6285209 53.0917608,61.8206495 53.0083629,63.3924551 C52.950301,64.4942013 53.0266612,64.7410609 53.3437141,64.4765278 C53.5696275,64.288105 53.763167,63.7077284 53.7744275,63.1869288 L53.7744275,63.1869288 Z M48.400011,61.5583968 C47.8799175,61.1530454 47.5083216,62.3280513 47.8556371,63.2787173 C48.128,64.0241419 48.1389086,64.0178707 48.4492756,62.9406394 C48.6597058,62.2097526 48.643167,61.7482449 48.400011,61.5583968 L48.400011,61.5583968 Z M59.3539959,52.1822939 C62.2500509,50.3904241 63.5914557,48.0515294 63.5643601,44.8403596 C63.5534515,43.5385031 63.3366873,42.656536 62.8348921,41.8749091 C62.1480027,40.8048042 59.0869113,38.0668294 58.5858199,38.0745259 C58.4521017,38.0765213 57.3147931,37.5902136 56.0585457,36.9935888 C54.777666,36.3852767 51.9319313,35.4659671 49.5802502,34.9006985 C44.8424027,33.7618949 41.6898199,32.4235511 40.0887203,30.8711294 C39.2181443,30.0267898 38.9602089,29.4717833 38.806433,28.1109201 C38.6037443,26.3159146 38.8676619,26.0305723 39.9043299,26.9236566 C41.3477828,28.1673614 44.873721,27.7511778 46.3572893,26.1622688 C47.1377814,25.3261959 47.0505127,24.7287159 46.1042804,24.4282655 C43.5157773,23.6064455 40.460668,23.9302705 38.1501581,25.2711798 C35.2241924,26.9692658 34.4440522,29.7628268 36.1676096,32.3708155 C37.7926378,34.8300044 40.0552907,36.142978 47.7275491,39.0793527 C54.1861388,41.5513691 55.3494873,42.1348813 56.3664495,43.4127929 C57.7634529,45.1684605 56.9762749,47.934941 54.5506969,49.7926591 C53.1997911,50.8271318 53.0812041,51.2729613 53.9915436,51.8932459 C54.8297457,52.4645006 56.6345897,53.1896862 57.2303395,53.1948173 C57.4949608,53.1968127 58.4503423,52.7412912 59.3539959,52.1822939 L59.3539959,52.1822939 Z M41.3924729,25.3361729 C40.9483876,24.9898283 41.5061333,24.6526056 42.5494873,24.6363573 C43.1184935,24.6275206 43.587211,24.7486699 43.5907299,24.9054514 C43.5946007,25.0622328 43.37291,25.1939293 43.0987876,25.1982052 C42.8243134,25.202481 42.3819876,25.2774511 42.1163107,25.3646786 C41.8502818,25.4521912 41.5247835,25.4393636 41.3924729,25.3361729 L41.3924729,25.3361729 Z M52.0181443,46.9654613 C52.1845883,43.2443241 52.1779024,43.2029908 51.34709,42.7038555 C50.259046,42.0502193 49.2621416,41.8053551 48.9482557,42.1149273 C48.8110186,42.2503295 48.8300206,44.0635786 48.9904825,46.1447815 C49.2726983,49.8109027 49.3096467,49.9400337 50.1707216,50.3037667 C51.7989168,50.9918949 51.8411436,50.9154995 52.0181443,46.9654613 L52.0181443,46.9654613 Z M54.8617677,48.3095062 C55.7559203,47.1573048 55.7967395,46.0455816 54.982466,45.0299226 C54.5725141,44.518815 54.0833869,44.1810222 53.8951258,44.2793669 C53.4478735,44.5131139 53.5502735,48.9862321 54.0028041,48.9793907 C54.1917691,48.9762551 54.5784962,48.6749496 54.8617677,48.3095062 L54.8617677,48.3095062 Z M47.9597966,46.0786482 C47.9084206,43.8908339 47.7972234,43.3725998 47.3805856,43.3791561 C46.7799093,43.388278 46.3323052,44.0250959 46.0233457,45.310419 C45.868866,45.9523679 46.0240495,46.6111352 46.5416797,47.5122011 C47.6782845,49.4910685 48.0312302,49.1338918 47.9597966,46.0786482 L47.9597966,46.0786482 Z M59.814268,36.5922282 C63.1252014,35.1367259 65.9075959,31.7753309 66.1176742,28.9774941 C66.2373168,27.3851643 66.1658832,27.1859093 65.1024715,26.1420297 C63.3380948,24.4097368 61.475189,23.6745742 58.9144852,23.7005144 C56.5811024,23.7238891 54.7407175,24.3056909 54.5774405,25.0716397 C54.52149,25.3333223 54.9462213,25.9575976 55.5212096,26.4592984 C56.4322529,27.2543231 56.8355189,27.3831689 58.6614763,27.4618447 C60.5236784,27.5422309 60.8755684,27.4678309 61.8284866,26.7928154 C62.4179024,26.3752065 62.9981691,26.0319976 63.1178117,26.0300022 C63.4155107,26.0254413 63.0147079,28.3218624 62.5941993,29.031655 C61.3766598,31.0857775 58.1987409,33.3066584 55.3142983,34.1187865 C53.5291601,34.6216275 53.7557773,35.1555397 56.1732619,36.142693 C58.3458309,37.0300762 58.7149636,37.0756853 59.814268,36.5922282 L59.814268,36.5922282 Z M58.6403629,25.0471248 C57.6431065,24.8524307 57.9179326,24.3994748 59.0436289,24.3820863 C60.214367,24.3641277 60.761556,24.7780308 59.9293361,25.0514007 C59.6267107,25.1508857 59.3518845,25.2178741 59.3188069,25.2002006 C59.2860811,25.182527 58.9806405,25.1135432 58.6403629,25.0471248 L58.6403629,25.0471248 Z M52.303879,34.1085245 C52.425633,33.0674954 52.5100866,31.0800763 52.7184055,24.3370472 C52.844734,20.2581631 53.0055478,16.7670671 53.0759258,16.5789293 C53.1466557,16.3910766 53.1966241,14.7223515 53.1874749,12.8709047 L53.1709361,9.50437861 L50.7559148,9.34531667 C49.4278818,9.25751904 48.2930364,9.22616274 48.2342708,9.27547765 C48.175857,9.32507761 48.1807835,14.7619744 48.2451794,21.357914 C48.3377265,30.7693639 48.4587766,33.399017 48.8089072,33.5748973 C49.3926928,33.8682212 51.260877,34.4035587 51.8217897,34.4383357 C52.06389,34.4531587 52.2810062,34.3049289 52.303879,34.1085245 L52.303879,34.1085245 Z M56.2066914,33.0002219 C57.7979381,32.378227 60.2667986,30.6085916 60.2548344,30.0986242 C60.2506117,29.9238841 60.009567,29.7844911 59.7196096,29.788767 C59.4293003,29.7933279 59.2280192,29.6496591 59.2720055,29.4695029 C59.3163436,29.2893467 58.8011766,29.0299446 58.1273072,28.8931171 C57.4537897,28.7560046 56.3333718,28.2534487 55.6376852,27.7765479 L54.3726405,26.9088337 L54.3089485,28.7092552 C54.2741113,29.699259 54.3254873,30.5721043 54.4233127,30.6484996 C54.52149,30.7246099 55.3178172,30.5769503 56.1933196,30.3201137 C58.3599065,29.6847211 58.2156316,30.1251345 55.9674062,31.0090971 C54.1893058,31.7086275 53.6889182,32.2961305 54.1266694,33.1704011 C54.3874199,33.6906306 54.454279,33.6852145 56.2066914,33.0002219 L56.2066914,33.0002219 Z M47.5547711,32.4902545 C47.2964838,31.9780066 43.008,30.0464588 42.1581856,30.0595714 C41.5476564,30.0689783 41.5891794,30.1681782 42.5195766,30.9255753 C44.7129072,32.7108888 48.2149168,33.7989523 47.5547711,32.4902545 L47.5547711,32.4902545 Z M47.3154859,30.6214192 C47.55829,29.7585509 47.577644,27.1249071 47.3411739,27.1286128 C47.2173086,27.1303231 46.6190955,27.4487321 46.0120852,27.8358398 C45.404723,28.2229476 44.3705182,28.7255035 43.7131876,28.952409 L42.518521,29.3648869 L44.6224715,30.2049506 C47.2187162,31.2414187 47.1441155,31.2297314 47.3154859,30.6214192 L47.3154859,30.6214192 Z M68.4387409,24.385792 C69.2530144,23.6708684 70.1742625,22.7566899 70.486389,22.3544741 C71.0451904,21.6341344 71.0275959,21.6016379 69.3103725,20.1572529 C68.3518241,19.3508259 67.4442997,18.6501552 67.2940426,18.6002702 C67.1437856,18.5503852 66.3164921,19.0309917 65.4557691,19.6686647 C63.1269608,21.3941162 61.6845636,21.890686 58.8314392,21.9494077 C57.4770144,21.9773434 55.9716289,21.9419963 55.4860206,21.871017 C54.6787849,21.7532884 54.6052399,21.8276883 54.6267052,22.7395864 C54.6523931,23.8387672 54.6069993,23.8305005 57.4189526,23.2469883 C59.6421938,22.7857657 62.6895615,23.4251491 64.6256605,24.759217 C65.3586474,25.2643384 66.1831258,25.6793818 66.4583038,25.6816622 C66.7334818,25.6839427 67.6248192,25.1007156 68.4387409,24.385792 L68.4387409,24.385792 Z M37.2232797,24.8923387 C37.4414515,24.6708493 38.435189,24.1905278 39.4317416,23.8250844 C40.9181251,23.2797699 41.6398515,23.1842757 43.4534928,23.2934527 C44.6692729,23.3664273 45.9635244,23.5502892 46.3301938,23.7019397 C47.1624137,24.0465739 47.436888,23.8262246 47.4136632,22.8325151 L47.3953649,22.0545939 L44.4929759,22.1067593 C42.2697347,22.1469524 41.2080825,22.0240927 39.955354,21.5816839 C38.4358928,21.0452062 36.0564124,19.2989455 35.1221443,18.0344316 C34.7501966,17.5313055 34.6038103,17.5977239 33.1195381,18.9389182 C32.2387574,19.734798 31.5223093,20.5517721 31.5268838,20.7541627 C31.545534,21.5451966 33.0421223,23.3453331 34.4771299,24.3025553 C36.1194007,25.3980303 36.6190845,25.5054969 37.2232797,24.8923387 L37.2232797,24.8923387 Z M76.3801952,21.0908153 C77.2176935,20.81545 77.0445636,20.5055928 75.6894351,19.8556623 C75.0116948,19.530697 73.7058309,18.3856221 72.787046,17.3112413 C71.2957361,15.5669761 70.9955739,15.3597395 69.9828344,15.3751325 C67.5146777,15.4133302 67.4221306,16.6205476 69.7389746,18.5523806 C71.500888,20.0209955 72.8451079,20.6977214 74.6474887,21.0241119 C75.2309223,21.1295831 75.7348289,21.228783 75.7679065,21.2441761 C75.8006323,21.2598543 76.0761622,21.1908704 76.3801952,21.0908153 L76.3801952,21.0908153 Z M46.1714914,20.431763 C47.123354,20.2621539 47.3260426,19.5609131 47.2637581,16.6564649 L47.2134378,14.3093035 L45.1101911,14.5202459 L43.0069443,14.7311882 L41.3900096,13.47038 C39.3810694,11.9037054 39.2688165,11.0821705 40.9065127,9.92797368 C42.4822763,8.81739066 43.1832412,7.54318478 43.1434777,5.86077693 C43.1149746,4.64101698 42.9351588,4.30635978 41.7633649,3.29241116 C39.9789306,1.74825607 37.6729952,1.10146119 34.3761375,1.22033006 C32.220811,1.29786563 31.4779711,1.47944709 28.9521045,2.54641636 C27.3422076,3.22627788 25.1453581,4.2795644 24.0699821,4.88702138 C22.9946062,5.49447837 20.8062021,6.73048658 19.2068619,7.63354792 C12.8707299,11.2113014 9.57774296,12.767999 3.4179079,15.0966316 L2.0268866,15.6228473 L3.03364399,16.0304791 C4.87578832,16.776474 7.60152852,16.771628 10.0299216,16.0179366 C14.1315519,14.744871 25.0457732,8.94880204 26.0483079,7.51125837 C26.8692674,6.33397195 27.3235574,6.62786597 27.3643766,8.3624393 C27.4424962,11.6830711 31.2481869,14.5390596 35.5152055,14.4791976 C36.144033,14.4703609 36.6616632,14.5915102 36.6651821,14.7482917 C36.6690529,14.9050731 36.492756,15.0359144 36.2738804,15.0393351 C35.6359038,15.0493121 36.1992797,17.1809702 37.0994144,18.1652728 C38.1399533,19.3026512 40.3561567,20.3736113 42.2007643,20.631018 C43.5611711,20.8205811 44.1558653,20.7909351 46.1714914,20.431763 L46.1714914,20.431763 Z M84.6541856,20.0024668 C84.6506667,19.849391 84.2072852,19.5164442 83.6692454,19.2627432 C81.1282474,18.0646476 79.3614076,17.0424324 78.0168357,15.9922815 C75.0753869,13.6947201 75.1978447,13.7446051 73.9862873,14.3500667 C73.3996866,14.6428205 72.9246351,15.0920707 72.9306172,15.347767 C72.9478598,16.0803642 77.0262653,18.9275159 79.0929155,19.650136 C81.004734,20.3185953 84.6672055,20.5506319 84.6541856,20.0024668 L84.6541856,20.0024668 Z M29.0682282,19.983653 C29.7512467,19.6903291 31.0479615,18.8944493 31.9495038,18.2154429 C34.6199973,16.2037939 34.7097292,15.5558588 32.3619189,15.2363097 C31.0740014,15.0609995 30.96949,15.113735 28.710356,17.0720783 C27.4312357,18.180951 25.9543533,19.3234604 25.4289814,19.6107981 C24.3251024,20.2148344 24.2279808,20.5452158 25.1031313,20.7199559 C26.003266,20.8995419 27.6451849,20.5948157 29.0682282,19.983653 L29.0682282,19.983653 Z M60.8980893,20.0472208 C62.9489045,19.59512 65.0489842,18.0361419 65.7598021,16.4383961 C66.2225375,15.3979371 66.2454103,15.0718316 65.8801485,14.7289078 C65.632066,14.4957309 65.4877911,14.2996116 65.5595766,14.2933403 C65.6317141,14.286784 66.9016852,14.2351886 68.3820866,14.1784622 C70.7781058,14.0866738 71.2387299,13.9746463 72.5815423,13.156532 C74.9159808,11.7338113 76.1236674,9.31595577 75.5029333,7.30715738 C75.203123,6.33767769 76.3791395,6.95910249 76.9358296,8.06455448 C77.5474144,9.27889833 80.364646,11.2278347 86.2074282,14.4777723 C90.9477388,17.1145518 96.6726378,18.1467441 99.0971601,16.801844 C100.405135,16.0763734 100.284085,15.6285484 98.6819299,15.2665257 C95.2379821,14.4880344 88.5942983,11.3447082 81.2496495,7.01839439 C71.7954199,1.44951608 68.5246021,0.429581266 63.1945237,1.38908395 C62.0730502,1.59090448 59.9525608,3.24566177 59.4212069,4.33401033 C58.4471753,6.32770069 59.1639753,8.63466896 61.2876316,10.3410216 L62.6276289,11.4176828 L61.8601567,12.369489 C60.2931904,14.3127242 58.2677113,14.9486869 55.5732893,14.3435104 L54.6003134,14.1248715 L54.6675244,16.9976784 L54.7350873,19.8704853 L55.884712,20.1204805 C57.4837003,20.4676802 59.097468,20.4443055 60.8980893,20.0472208 L60.8980893,20.0472208 Z M90.4132179,19.1638284 C91.0054488,18.9694193 91.1676701,18.1849418 90.6137952,18.1934935 C89.932888,18.2040406 82.8405443,14.3158598 80.2960275,12.5371026 C77.5702873,10.63178 76.9111973,10.3889112 76.5652893,11.1631267 C76.0497704,12.3167534 76.4322749,13.0610378 78.2779381,14.4968712 C82.5826089,17.8457237 88.0390158,19.9443151 90.4132179,19.1638284 L90.4132179,19.1638284 Z M23.046334,19.1002606 C23.9116316,18.7259804 25.8301361,17.6578709 27.3098337,16.7265889 L30.000033,15.0333489 L28.8454818,14.1046324 C28.2106722,13.5938098 27.5656577,13.1779113 27.4122337,13.1801918 C27.2588096,13.1824722 26.3143368,13.8064625 25.3132096,14.5667102 C22.992143,16.3300743 20.4300316,17.8958937 18.5446048,18.704031 C16.771079,19.4639936 16.6781801,19.8263014 18.2219216,19.9605634 C19.9124014,20.1076529 21.2823093,19.8633588 23.046334,19.1002606 L23.046334,19.1002606 Z M17.200033,17.6521698 C19.0745512,16.891067 26.7640522,12.772845 26.758422,12.5331118 C26.7485691,12.1078064 25.5127313,9.78829563 25.2977265,9.79143126 C25.1471175,9.79371171 23.014312,11.064782 20.5577677,12.6157784 C16.6757168,15.0675558 11.8791038,17.4110114 10.7066062,17.429255 C9.87192302,17.4420826 10.4201677,18.0050707 11.494488,18.2385326 C13.5291162,18.6806563 15.0524481,18.5241599 17.200033,17.6521698 L17.200033,17.6521698 Z M54.1231505,7.07540584 C56.5782873,4.59854345 54.6168522,1.35658742 50.6996124,1.41701956 C49.1819107,1.44039425 48.7987024,1.57351598 47.779277,2.43125323 C46.7739271,3.27758819 46.6102983,3.6128155 46.6377457,4.77385366 C46.6662488,5.99304349 46.819321,6.24018812 48.1593182,7.23446778 C49.5739162,8.28347844 49.7396564,8.331083 51.424154,8.1737314 C52.8852014,8.03718898 53.3616605,7.84335005 54.1231505,7.07540584 L54.1231505,7.07540584 Z M50.767879,6.87672094 C50.64331,6.72022452 50.8674639,6.5030109 51.2661553,6.39383397 C52.3394199,6.0996549 53.2318131,4.35795514 52.6680852,3.65699938 C51.7654873,2.53415889 52.6138942,2.04671101 53.7571849,3.03158378 C54.6038323,3.76104527 54.5387326,5.1829108 53.6185402,6.04976988 C52.7697814,6.84935545 51.1257512,7.32625621 50.767879,6.87672094 L50.767879,6.87672094 Z" id="path16479"></path>
                                </g>
                            </g>
                        </g>
                    </g>
                </g>
            </g>
        </g>
    </g>
</svg>