<?xml version="1.0" encoding="UTF-8" standalone="no"?>
<svg width="52px" height="52px" viewBox="0 0 52 52" version="1.1" xmlns="http://www.w3.org/2000/svg" xmlns:xlink="http://www.w3.org/1999/xlink">
    <!-- Generator: Sketch 3.7.2 (28276) - http://www.bohemiancoding.com/sketch -->
    <title>Facebook</title>
    <desc>Created with Sketch.</desc>
    <defs>
        <rect id="path-1" x="0" y="5" width="1280" height="2716"></rect>
        <mask id="mask-2" maskContentUnits="userSpaceOnUse" maskUnits="objectBoundingBox" x="0" y="0" width="1280" height="2716" fill="white">
            <use xlink:href="#path-1"></use>
        </mask>
        <rect id="path-3" x="3" y="28" width="1280" height="2716"></rect>
        <mask id="mask-4" maskContentUnits="userSpaceOnUse" maskUnits="objectBoundingBox" x="0" y="0" width="1280" height="2716" fill="white">
            <use xlink:href="#path-3"></use>
        </mask>
        <rect id="path-5" x="38" y="38" width="1280" height="2716"></rect>
        <mask id="mask-6" maskContentUnits="userSpaceOnUse" maskUnits="objectBoundingBox" x="0" y="0" width="1280" height="2716" fill="white">
            <use xlink:href="#path-5"></use>
        </mask>
    </defs>
    <g id="Page-1" stroke="none" stroke-width="1" fill="none" fill-rule="evenodd">
        <g id="Home-Page" transform="translate(-497.000000, -2128.000000)">
            <g id="Group-2" transform="translate(0.000000, -5.000000)">
                <use id="Rectangle-465" stroke="#FFFFFF" mask="url(#mask-2)" stroke-width="2" fill="#FFFFFF" xlink:href="#path-1"></use>
                <use id="Rectangle-465-Copy-2" stroke="#FFFFFF" mask="url(#mask-4)" stroke-width="2" fill="#FFFFFF" xlink:href="#path-3"></use>
                <use id="Rectangle-465-Copy" stroke="#FFFFFF" mask="url(#mask-6)" stroke-width="2" fill="#FFFFFF" xlink:href="#path-5"></use>
                <g id="Social-Icons" transform="translate(497.000000, 2132.000000)" fill="#4990E2">
                    <g id="Facebook" transform="translate(0.000000, 1.000000)">
                        <g id="Layer_1">
                            <path d="M45.8666667,51.1605572 L35.2,51.1605572 C34.6112,51.1605572 34.1333333,50.6831183 34.1333333,50.0948455 L34.1333333,30.9120344 C34.1333333,30.3237615 34.6112,29.8463226 35.2,29.8463226 L40.832,29.8463226 L42.2549333,25.5834757 L35.2,25.5834757 C34.6112,25.5834757 34.1333333,25.1060369 34.1333333,24.517764 L34.1333333,18.1234936 C34.1333333,15.1863921 36.5269333,12.794935 39.4666667,12.794935 L42.6666667,12.794935 L42.6666667,8.53208809 L39.4666667,8.53208809 C34.1738667,8.53208809 29.8666667,12.835432 29.8666667,18.1234936 L29.8666667,24.517764 C29.8666667,25.1060369 29.3888,25.5834757 28.8,25.5834757 L23.4666667,25.5834757 L23.4666667,29.8463226 L28.8,29.8463226 C29.3888,29.8463226 29.8666667,30.3237615 29.8666667,30.9120344 L29.8666667,50.0948455 C29.8666667,50.6831183 29.3888,51.1605572 28.8,51.1605572 L5.33333333,51.1605572 C2.3936,51.1605572 0,48.7691001 0,45.8319986 L0,5.33495291 C0,2.39785139 2.3936,0.00639427036 5.33333333,0.00639427036 L45.8666667,0.00639427036 C48.8064,0.00639427036 51.2,2.39785139 51.2,5.33495291 L51.2,45.8319986 C51.2,48.7691001 48.8064,51.1605572 45.8666667,51.1605572 L45.8666667,51.1605572 Z M36.2666667,49.0291337 L45.8666667,49.0291337 C47.6309333,49.0291337 49.0666667,47.5946857 49.0666667,45.8319986 L49.0666667,5.33495291 C49.0666667,3.57226571 47.6309333,2.13781773 45.8666667,2.13781773 L5.33333333,2.13781773 C3.56906667,2.13781773 2.13333333,3.57226571 2.13333333,5.33495291 L2.13333333,45.8319986 C2.13333333,47.5946857 3.56906667,49.0291337 5.33333333,49.0291337 L27.7333333,49.0291337 L27.7333333,31.9777461 L22.4,31.9777461 C21.8112,31.9777461 21.3333333,31.5003072 21.3333333,30.9120344 L21.3333333,24.517764 C21.3333333,23.9294911 21.8112,23.4520523 22.4,23.4520523 L27.7333333,23.4520523 L27.7333333,18.1234936 C27.7333333,11.6588863 32.9962667,6.40066464 39.4666667,6.40066464 L43.7333333,6.40066464 C44.3221333,6.40066464 44.8,6.87810349 44.8,7.46637636 L44.8,13.8606467 C44.8,14.4489196 44.3221333,14.9263585 43.7333333,14.9263585 L39.4666667,14.9263585 C37.7024,14.9263585 36.2666667,16.3608064 36.2666667,18.1234936 L36.2666667,23.4520523 L43.7333333,23.4520523 C44.0768,23.4520523 44.3989333,23.6161719 44.5994667,23.8953884 C44.8,24.1724734 44.8554667,24.5305525 44.7445333,24.8566603 L42.6112,31.2509307 C42.4661333,31.6857411 42.0586667,31.9798775 41.6,31.9798775 L36.2666667,31.9798775 L36.2666667,49.0291337 L36.2666667,49.0291337 Z" id="Shape"></path>
                        </g>
                    </g>
                </g>
            </g>
        </g>
    </g>
</svg>