<?xml version="1.0" encoding="UTF-8" standalone="no"?>
<svg width="51px" height="51px" viewBox="0 0 51 51" version="1.1" xmlns="http://www.w3.org/2000/svg" xmlns:xlink="http://www.w3.org/1999/xlink">
    <!-- Generator: Sketch 3.7.2 (28276) - http://www.bohemiancoding.com/sketch -->
    <title>Instagram-Circle</title>
    <desc>Created with Sketch.</desc>
    <defs>
        <rect id="path-1" x="0" y="5" width="1280" height="2716"></rect>
        <mask id="mask-2" maskContentUnits="userSpaceOnUse" maskUnits="objectBoundingBox" x="0" y="0" width="1280" height="2716" fill="white">
            <use xlink:href="#path-1"></use>
        </mask>
        <rect id="path-3" x="3" y="28" width="1280" height="2716"></rect>
        <mask id="mask-4" maskContentUnits="userSpaceOnUse" maskUnits="objectBoundingBox" x="0" y="0" width="1280" height="2716" fill="white">
            <use xlink:href="#path-3"></use>
        </mask>
        <rect id="path-5" x="38" y="38" width="1280" height="2716"></rect>
        <mask id="mask-6" maskContentUnits="userSpaceOnUse" maskUnits="objectBoundingBox" x="0" y="0" width="1280" height="2716" fill="white">
            <use xlink:href="#path-5"></use>
        </mask>
        <rect id="path-7" x="0.925567084" y="0.945387845" width="35.8888889" height="36.5660377" rx="11"></rect>
        <mask id="mask-8" maskContentUnits="userSpaceOnUse" maskUnits="objectBoundingBox" x="0" y="0" width="35.8888889" height="36.5660377" fill="white">
            <use xlink:href="#path-7"></use>
        </mask>
    </defs>
    <g id="Page-1" stroke="none" stroke-width="1" fill="none" fill-rule="evenodd">
        <g id="Home-Page" transform="translate(-699.000000, -2128.000000)">
            <g id="Group-2" transform="translate(0.000000, -5.000000)">
                <use id="Rectangle-465" stroke="#FFFFFF" mask="url(#mask-2)" stroke-width="2" fill="#FFFFFF" xlink:href="#path-1"></use>
                <use id="Rectangle-465-Copy-2" stroke="#FFFFFF" mask="url(#mask-4)" stroke-width="2" fill="#FFFFFF" xlink:href="#path-3"></use>
                <use id="Rectangle-465-Copy" stroke="#FFFFFF" mask="url(#mask-6)" stroke-width="2" fill="#FFFFFF" xlink:href="#path-5"></use>
                <g id="Social-Icons" transform="translate(497.000000, 2132.000000)" stroke="#4A90E2">
                    <g id="Instagram-Circle" transform="translate(202.000000, 0.000000)">
                        <g id="Instagram-Square" transform="translate(0.944444, 0.962264)">
                            <path d="M43.1324786,2.20262401 C45.677094,2.20262401 47.7478632,4.30386617 47.7478632,6.8859275 L47.7478632,44.3523554 C47.7478632,46.9344167 45.677094,49.0356589 43.1324786,49.0356589 L6.20940171,49.0356589 C3.66478632,49.0356589 1.59401709,46.9344167 1.59401709,44.3523554 L1.59401709,6.8859275 C1.59401709,4.30386617 3.66478632,2.20262401 6.20940171,2.20262401 L43.1324786,2.20262401 L43.1324786,2.20262401 Z M43.1324786,0.641522844 L6.20940171,0.641522844 C2.82478632,0.641522844 0.0555555556,3.45150494 0.0555555556,6.8859275 L0.0555555556,44.3523554 C0.0555555556,47.786778 2.82478632,50.5967601 6.20940171,50.5967601 L43.1324786,50.5967601 C46.517094,50.5967601 49.2863248,47.786778 49.2863248,44.3523554 L49.2863248,6.8859275 C49.2863248,3.45150494 46.517094,0.641522844 43.1324786,0.641522844 L43.1324786,0.641522844 L43.1324786,0.641522844 Z" id="Shape" stroke-width="0.6" fill="#4990E2"></path>
                            <g id="insta" transform="translate(6.000000, 7.000000)">
                                <ellipse id="Oval-87" fill="#4A90E2" cx="28.5033449" cy="9.50949185" rx="1.6055556" ry="1.6358491"></ellipse>
                                <ellipse id="Oval-86" stroke-width="3.2" cx="18.8699769" cy="19.2379447" rx="7.64999991" ry="7.79433953"></ellipse>
                                <use id="Rectangle-503" mask="url(#mask-8)" stroke-width="6.8" xlink:href="#path-7"></use>
                            </g>
                        </g>
                    </g>
                </g>
            </g>
        </g>
    </g>
</svg>