<?xml version="1.0" encoding="UTF-8" standalone="no"?>
<svg width="51px" height="52px" viewBox="0 0 51 52" version="1.1" xmlns="http://www.w3.org/2000/svg" xmlns:xlink="http://www.w3.org/1999/xlink">
    <!-- Generator: Sketch 3.7.2 (28276) - http://www.bohemiancoding.com/sketch -->
    <title>Pintrest-Square</title>
    <desc>Created with Sketch.</desc>
    <defs>
        <rect id="path-1" x="0" y="5" width="1280" height="2716"></rect>
        <mask id="mask-2" maskContentUnits="userSpaceOnUse" maskUnits="objectBoundingBox" x="0" y="0" width="1280" height="2716" fill="white">
            <use xlink:href="#path-1"></use>
        </mask>
        <rect id="path-3" x="3" y="28" width="1280" height="2716"></rect>
        <mask id="mask-4" maskContentUnits="userSpaceOnUse" maskUnits="objectBoundingBox" x="0" y="0" width="1280" height="2716" fill="white">
            <use xlink:href="#path-3"></use>
        </mask>
        <rect id="path-5" x="38" y="38" width="1280" height="2716"></rect>
        <mask id="mask-6" maskContentUnits="userSpaceOnUse" maskUnits="objectBoundingBox" x="0" y="0" width="1280" height="2716" fill="white">
            <use xlink:href="#path-5"></use>
        </mask>
    </defs>
    <g id="Page-1" stroke="none" stroke-width="1" fill="none" fill-rule="evenodd">
        <g id="Home-Page" transform="translate(-630.000000, -2038.000000)">
            <g id="Group-2" transform="translate(-12.000000, -36.000000)">
                <use id="Rectangle-465" stroke="#FFFFFF" mask="url(#mask-2)" stroke-width="2" fill="#FFFFFF" xlink:href="#path-1"></use>
                <use id="Rectangle-465-Copy-2" stroke="#FFFFFF" mask="url(#mask-4)" stroke-width="2" fill="#FFFFFF" xlink:href="#path-3"></use>
                <use id="Rectangle-465-Copy" stroke="#FFFFFF" mask="url(#mask-6)" stroke-width="2" fill="#FFFFFF" xlink:href="#path-5"></use>
                <g id="Social-Icons" transform="translate(497.000000, 2074.000000)" fill="#4990E2">
                    <g id="Pintrest-Square" transform="translate(146.000000, 1.000000)">
                        <g id="Outline_Color_copy_2">
                            <path d="M43.0769231,1.56110116 C45.6215385,1.56110116 47.6923077,3.66234333 47.6923077,6.24440465 L47.6923077,43.7108326 C47.6923077,46.2928939 45.6215385,48.3941361 43.0769231,48.3941361 L6.15384615,48.3941361 C3.60923077,48.3941361 1.53846154,46.2928939 1.53846154,43.7108326 L1.53846154,6.24440465 C1.53846154,3.66234333 3.60923077,1.56110116 6.15384615,1.56110116 L43.0769231,1.56110116 L43.0769231,1.56110116 Z M43.0769231,0 L6.15384615,0 C2.76923077,0 0,2.80998209 0,6.24440465 L0,43.7108326 C0,47.1452551 2.76923077,49.9552372 6.15384615,49.9552372 L43.0769231,49.9552372 C46.4615385,49.9552372 49.2307692,47.1452551 49.2307692,43.7108326 L49.2307692,6.24440465 C49.2307692,2.80998209 46.4615385,0 43.0769231,0 L43.0769231,0 L43.0769231,0 Z" id="Shape" stroke="#4A90E2" stroke-width="0.6"></path>
                            <path d="M36.9261538,21.4606871 C36.9261538,28.7322963 32.9415385,34.1664895 27.0692308,34.1664895 C25.0953846,34.1664895 23.2415385,33.0846464 22.6061538,31.8544986 C22.6061538,31.8544986 21.5446154,36.1256714 21.3215385,36.9499328 C20.5307692,39.8629476 18.2030769,42.7775235 18.0230769,43.016372 C17.8969231,43.1818487 17.6184615,43.1303323 17.5892308,42.9102171 C17.5384615,42.538675 16.9461538,38.8638429 17.6446154,35.8649675 C17.9953846,34.360066 19.9938462,25.7630819 19.9938462,25.7630819 C19.9938462,25.7630819 19.4107692,24.5797672 19.4107692,22.8297728 C19.4107692,20.0822348 20.98,18.0309478 22.9338462,18.0309478 C24.5953846,18.0309478 25.3969231,19.2954398 25.3969231,20.8128301 C25.3969231,22.508186 24.3338462,25.0434143 23.7846154,27.3913104 C23.3261538,29.3582979 24.7569231,30.9631099 26.6676923,30.9631099 C30.1292308,30.9631099 32.46,26.4515275 32.46,21.1063171 C32.46,17.0443319 29.7646154,14.0017457 24.8584615,14.0017457 C19.3184615,14.0017457 15.8646154,18.1948635 15.8646154,22.8797281 C15.8646154,24.4954678 16.3353846,25.6350716 17.0707692,26.5155327 C17.4076923,26.921419 17.4553846,27.0837735 17.3323077,27.5489816 C17.2430769,27.8908628 17.0446154,28.7104409 16.9584615,29.036711 C16.8369231,29.5066025 16.4615385,29.6736403 16.0446154,29.5003581 C13.4923077,28.4434926 12.3030769,25.6054107 12.3030769,22.4176421 C12.3030769,17.1520479 16.68,10.8373937 25.36,10.8373937 C32.3369231,10.8405159 36.9261538,15.9609277 36.9261538,21.4606871 L36.9261538,21.4606871 Z" id="Shape"></path>
                        </g>
                    </g>
                </g>
            </g>
        </g>
    </g>
</svg>