<?xml version="1.0" encoding="UTF-8" standalone="no"?>
<svg width="51px" height="52px" viewBox="0 0 51 52" version="1.1" xmlns="http://www.w3.org/2000/svg" xmlns:xlink="http://www.w3.org/1999/xlink">
    <!-- Generator: Sketch 3.7.2 (28276) - http://www.bohemiancoding.com/sketch -->
    <title>Twitter</title>
    <desc>Created with Sketch.</desc>
    <defs>
        <rect id="path-1" x="0" y="5" width="1280" height="2716"></rect>
        <mask id="mask-2" maskContentUnits="userSpaceOnUse" maskUnits="objectBoundingBox" x="0" y="0" width="1280" height="2716" fill="white">
            <use xlink:href="#path-1"></use>
        </mask>
        <rect id="path-3" x="3" y="28" width="1280" height="2716"></rect>
        <mask id="mask-4" maskContentUnits="userSpaceOnUse" maskUnits="objectBoundingBox" x="0" y="0" width="1280" height="2716" fill="white">
            <use xlink:href="#path-3"></use>
        </mask>
        <rect id="path-5" x="38" y="38" width="1280" height="2716"></rect>
        <mask id="mask-6" maskContentUnits="userSpaceOnUse" maskUnits="objectBoundingBox" x="0" y="0" width="1280" height="2716" fill="white">
            <use xlink:href="#path-5"></use>
        </mask>
    </defs>
    <g id="Page-1" stroke="none" stroke-width="1" fill="none" fill-rule="evenodd">
        <g id="Home-Page" transform="translate(-540.000000, -2038.000000)">
            <g id="Group-2" transform="translate(-12.000000, -36.000000)">
                <use id="Rectangle-465" stroke="#FFFFFF" mask="url(#mask-2)" stroke-width="2" fill="#FFFFFF" xlink:href="#path-1"></use>
                <use id="Rectangle-465-Copy-2" stroke="#FFFFFF" mask="url(#mask-4)" stroke-width="2" fill="#FFFFFF" xlink:href="#path-3"></use>
                <use id="Rectangle-465-Copy" stroke="#FFFFFF" mask="url(#mask-6)" stroke-width="2" fill="#FFFFFF" xlink:href="#path-5"></use>
                <g id="Social-Icons" transform="translate(497.000000, 2074.000000)" fill="#4990E2">
                    <g id="Twitter" transform="translate(56.000000, 1.000000)">
                        <g id="Outline_Color_copy_2">
                            <path d="M43.1709091,1.56227935 C45.7210764,1.56227935 47.7963636,3.66510736 47.7963636,6.24911741 L47.7963636,43.7438219 C47.7963636,46.3278319 45.7210764,48.4306599 43.1709091,48.4306599 L6.16727273,48.4306599 C3.61710545,48.4306599 1.54181818,46.3278319 1.54181818,43.7438219 L1.54181818,6.24911741 C1.54181818,3.66510736 3.61710545,1.56227935 6.16727273,1.56227935 L43.1709091,1.56227935 L43.1709091,1.56227935 Z M43.1709091,0 L6.16727273,0 C2.77527273,0 0,2.81210284 0,6.24911741 L0,43.7438219 C0,47.1808365 2.77527273,49.9929393 6.16727273,49.9929393 L43.1709091,49.9929393 C46.5629091,49.9929393 49.3381818,47.1808365 49.3381818,43.7438219 L49.3381818,6.24911741 C49.3381818,2.81210284 46.5629091,0 43.1709091,0 L43.1709091,0 L43.1709091,0 Z" id="Shape" stroke="#4A90E2" stroke-width="0.6"></path>
                            <path d="M29.2584436,13.3731113 C26.6944,14.3182903 25.0739491,16.7570083 25.2589673,19.4253815 L25.32064,20.4549236 L24.2953309,20.3283789 C20.5625891,19.8456346 17.3001018,18.2068036 14.5309964,15.4525051 L13.1757382,14.0870729 L12.8272873,15.0963054 C12.0887564,17.3444254 12.5605527,19.7206523 14.0992873,21.3173018 C14.9195345,22.1999896 14.7345164,22.3265342 13.3206691,21.8000461 C12.8288291,21.6328822 12.39712,21.5063376 12.3570327,21.5688287 C12.2136436,21.7172453 12.7054836,23.6279129 13.0955636,24.3856184 C13.6290327,25.4370324 14.7160145,26.4650122 15.9062982,27.0758635 L16.9115636,27.5586078 L15.7228218,27.5789174 C14.5741673,27.5789174 14.53408,27.599227 14.6574255,28.0429144 C15.0675491,29.4083465 16.688,30.8597041 18.4934691,31.4893026 L19.7654691,31.9298654 L18.6584436,32.6032078 C17.0179491,33.571821 15.0891345,34.1170565 13.16032,34.1576758 C12.2367709,34.1779854 11.4781964,34.2623485 11.4781964,34.3264019 C11.4781964,34.5357474 13.9821091,35.7121437 15.4375855,36.1761407 C19.8070982,37.5415728 24.9968582,36.9525935 28.8945745,34.6201105 C31.66368,32.9594075 34.4327855,29.6598735 35.7263709,26.4650122 C36.4248145,24.76369 37.1217164,21.6531918 37.1217164,20.1627773 C37.1217164,19.1957264 37.1833891,19.0691818 38.3320436,17.9146573 C39.0089018,17.2428772 39.6441309,16.5070436 39.7674764,16.2961359 C39.9725382,15.8961924 39.9509527,15.8961924 38.9056,16.2539544 C37.1618036,16.8851152 36.9151127,16.8007522 37.7785309,15.8555732 C38.41376,15.183793 39.1738764,13.9636529 39.1738764,13.6074532 C39.1738764,13.544962 38.8670545,13.6496347 38.5170618,13.8386705 C38.1485673,14.0495782 37.32832,14.3651586 36.7115927,14.5526322 L35.5984,14.9088319 L34.5931345,14.2151798 C34.0396218,13.8371082 33.2610036,13.4168551 32.8493382,13.2903105 C31.8024436,12.9950397 30.2020364,13.0372212 29.2584436,13.3731113 L29.2584436,13.3731113 Z" id="Shape"></path>
                        </g>
                    </g>
                </g>
            </g>
        </g>
    </g>
</svg>