<?xml version="1.0" encoding="UTF-8" standalone="no"?>
<svg width="51px" height="52px" viewBox="0 0 51 52" version="1.1" xmlns="http://www.w3.org/2000/svg" xmlns:xlink="http://www.w3.org/1999/xlink">
    <!-- Generator: Sketch 3.7.2 (28276) - http://www.bohemiancoding.com/sketch -->
    <title>Youtube</title>
    <desc>Created with Sketch.</desc>
    <defs>
        <rect id="path-1" x="0" y="5" width="1280" height="2716"></rect>
        <mask id="mask-2" maskContentUnits="userSpaceOnUse" maskUnits="objectBoundingBox" x="0" y="0" width="1280" height="2716" fill="white">
            <use xlink:href="#path-1"></use>
        </mask>
        <rect id="path-3" x="3" y="28" width="1280" height="2716"></rect>
        <mask id="mask-4" maskContentUnits="userSpaceOnUse" maskUnits="objectBoundingBox" x="0" y="0" width="1280" height="2716" fill="white">
            <use xlink:href="#path-3"></use>
        </mask>
        <rect id="path-5" x="38" y="38" width="1280" height="2716"></rect>
        <mask id="mask-6" maskContentUnits="userSpaceOnUse" maskUnits="objectBoundingBox" x="0" y="0" width="1280" height="2716" fill="white">
            <use xlink:href="#path-5"></use>
        </mask>
    </defs>
    <g id="Page-1" stroke="none" stroke-width="1" fill="none" fill-rule="evenodd">
        <g id="Home-Page" transform="translate(-569.000000, -2096.000000)">
            <g id="Group-2" transform="translate(-12.000000, -36.000000)">
                <use id="Rectangle-465" stroke="#FFFFFF" mask="url(#mask-2)" stroke-width="2" fill="#FFFFFF" xlink:href="#path-1"></use>
                <use id="Rectangle-465-Copy-2" stroke="#FFFFFF" mask="url(#mask-4)" stroke-width="2" fill="#FFFFFF" xlink:href="#path-3"></use>
                <use id="Rectangle-465-Copy" stroke="#FFFFFF" mask="url(#mask-6)" stroke-width="2" fill="#FFFFFF" xlink:href="#path-5"></use>
                <g id="Social-Icons" transform="translate(497.000000, 2074.000000)" fill="#4990E2">
                    <g id="Youtube" transform="translate(85.000000, 59.000000)">
                        <g id="Outline_Color_copy_2">
                            <path d="M43.0769231,1.56110116 C45.6215385,1.56110116 47.6923077,3.66234333 47.6923077,6.24440465 L47.6923077,43.7108326 C47.6923077,46.2928939 45.6215385,48.3941361 43.0769231,48.3941361 L6.15384615,48.3941361 C3.60923077,48.3941361 1.53846154,46.2928939 1.53846154,43.7108326 L1.53846154,6.24440465 C1.53846154,3.66234333 3.60923077,1.56110116 6.15384615,1.56110116 L43.0769231,1.56110116 L43.0769231,1.56110116 Z M43.0769231,0 L6.15384615,0 C2.76923077,0 0,2.80998209 0,6.24440465 L0,43.7108326 C0,47.1452551 2.76923077,49.9552372 6.15384615,49.9552372 L43.0769231,49.9552372 C46.4615385,49.9552372 49.2307692,47.1452551 49.2307692,43.7108326 L49.2307692,6.24440465 C49.2307692,2.80998209 46.4615385,0 43.0769231,0 L43.0769231,0 L43.0769231,0 Z" id="Shape" stroke="#4A90E2" stroke-width="0.6"></path>
                            <path d="M33.3738462,30.3009736 C33.1261538,30.3009736 32.9476923,30.3712231 32.8384615,30.5210888 C32.7307692,30.6615879 32.6784615,30.9051197 32.6784615,31.2407565 L32.6784615,32.050968 L34.0538462,32.050968 L34.0538462,31.2407565 C34.0538462,30.9035586 33.9984615,30.6615879 33.8892308,30.5210888 C33.7861538,30.3712231 33.6107692,30.3009736 33.3738462,30.3009736 L33.3738462,30.3009736 Z" id="Shape"></path>
                            <path d="M28.0107692,30.2728738 C27.8984615,30.2728738 27.7892308,30.2962903 27.6815385,30.3493677 C27.5738462,30.4024452 27.4661538,30.4836224 27.36,30.5944606 L27.36,35.5962287 C27.4861538,35.724239 27.6092308,35.8225884 27.7292308,35.878788 C27.8492308,35.9365488 27.9723077,35.9662097 28.1046154,35.9662097 C28.2953846,35.9662097 28.4338462,35.9100101 28.5230769,35.7944886 C28.6123077,35.6820893 28.66,35.5010016 28.66,35.2418588 L28.66,31.0955741 C28.66,30.8255036 28.6046154,30.6178771 28.4953846,30.4789391 C28.3815385,30.3415622 28.2184615,30.2728738 28.0107692,30.2728738 L28.0107692,30.2728738 Z" id="Shape"></path>
                            <path d="M36.6553846,24.0503245 C35.3769231,22.7546106 24.6092308,22.7374384 24.6092308,22.7389995 C24.6092308,22.7374384 13.8430769,22.7546106 12.5615385,24.0487634 C11.28,25.3460385 11.2769231,31.7496755 11.2769231,31.7855808 C11.2769231,31.8339749 11.28,38.2266842 12.5615385,39.5239593 C13.8430769,40.8181121 24.6092308,40.8462119 24.6092308,40.8462119 C24.6092308,40.8462119 35.3769231,40.8181121 36.6553846,39.5255204 C37.9415385,38.223562 37.9523077,31.7871419 37.9523077,31.7871419 C37.9523077,31.7496755 37.9384615,25.3475996 36.6553846,24.0503245 L36.6553846,24.0503245 Z M19.4907692,27.823506 L17.6769231,27.823506 L17.6769231,37.1245468 L15.9230769,37.1245468 L15.9230769,27.823506 L14.1107692,27.823506 L14.1107692,26.2421106 L19.4907692,26.2421106 L19.4907692,27.823506 L19.4907692,27.823506 Z M24.6153846,37.1229857 L23.0630769,37.1229857 L23.0630769,36.2409635 C22.7738462,36.5672336 22.4769231,36.8154487 22.1630769,36.9840477 C21.8523077,37.1573299 21.5523077,37.2385071 21.26,37.2385071 C20.8984615,37.2385071 20.6323077,37.1214246 20.4461538,36.881015 C20.2676923,36.6406054 20.1738462,36.2862354 20.1738462,35.8054163 L20.1738462,29.0926813 L21.7276923,29.0926813 L21.7276923,35.2512254 C21.7276923,35.4416797 21.76,35.5790566 21.8230769,35.6649172 C21.8923077,35.7507777 21.9984615,35.7929275 22.1415385,35.7929275 C22.2553846,35.7929275 22.4015385,35.7367278 22.5769231,35.6227674 C22.7523077,35.5103682 22.9107692,35.3667469 23.06,35.1934646 L23.06,29.0942424 L24.6153846,29.0942424 L24.6153846,37.1229857 L24.6153846,37.1229857 Z M30.2615385,35.4650962 C30.2615385,36.0333371 30.14,36.4673232 29.8953846,36.7717379 C29.6538462,37.0761526 29.2984615,37.2244572 28.8369231,37.2244572 C28.5307692,37.2244572 28.2615385,37.1682576 28.0246154,37.051175 C27.7861538,36.9340924 27.5615385,36.7561269 27.36,36.5079118 L27.36,37.1245468 L25.7876923,37.1245468 L25.7876923,26.2421106 L27.36,26.2421106 L27.36,29.7467827 C27.5707692,29.5032509 27.7923077,29.3143576 28.0261538,29.1894696 C28.2646154,29.0614593 28.5015385,28.9990152 28.7430769,28.9990152 C29.2369231,28.9990152 29.6123077,29.1707363 29.8707692,29.5094953 C30.1323077,29.8529375 30.2615385,30.354051 30.2615385,31.0112746 L30.2615385,35.4650962 L30.2615385,35.4650962 Z M35.6553846,33.3045322 L32.68,33.3045322 L32.68,34.814117 C32.68,35.2371755 32.7307692,35.5306625 32.8323077,35.6945781 C32.9369231,35.8584937 33.1107692,35.9381099 33.36,35.9381099 C33.6169231,35.9381099 33.7969231,35.8694214 33.9,35.7304834 C34.0015385,35.5915454 34.0553846,35.2886918 34.0553846,34.814117 L34.0553846,34.4472583 L35.6553846,34.4472583 L35.6553846,34.859389 C35.6553846,35.6836504 35.4615385,36.3034076 35.0692308,36.7217827 C34.6815385,37.1370356 34.0984615,37.3431009 33.3246154,37.3431009 C32.6292308,37.3431009 32.0784615,37.1245468 31.6784615,36.681194 C31.2784615,36.2409635 31.0753846,35.6352563 31.0753846,34.859389 L31.0753846,31.2548064 C31.0753846,30.5601164 31.2969231,29.9903144 31.7369231,29.5532061 C32.1769231,29.1145367 32.7415385,28.8959825 33.44,28.8959825 C34.1523077,28.8959825 34.7,29.0989257 35.0830769,29.504812 C35.4661538,29.9106983 35.6553846,30.492989 35.6553846,31.2548064 L35.6553846,33.3045322 L35.6553846,33.3045322 Z" id="Shape"></path>
                            <path d="M33.3676923,21.0967211 L31.6153846,21.0967211 L31.6153846,20.1194718 C31.2969231,20.4785251 30.96,20.75484 30.6076923,20.9421721 C30.2584615,21.1310653 29.92,21.2247314 29.5923077,21.2247314 C29.1846154,21.2247314 28.8815385,21.0920378 28.6769231,20.8297728 C28.4723077,20.5659467 28.3692308,20.1725492 28.3692308,19.6433359 L28.3692308,12.2515219 L30.1184615,12.2515219 L30.1184615,19.0329454 C30.1184615,19.2421329 30.1584615,19.3935598 30.2323077,19.4872258 C30.3030769,19.5808919 30.4246154,19.6277249 30.5876923,19.6277249 C30.7153846,19.6277249 30.8784615,19.5652809 31.0753846,19.4419539 C31.2707692,19.3186269 31.4523077,19.1593946 31.6153846,18.965818 L31.6153846,12.253083 L33.3676923,12.253083 L33.3676923,21.0967211 L33.3676923,21.0967211 L33.3676923,21.0967211 Z" id="Shape"></path>
                            <path d="M26.2569231,12.6714581 C25.7923077,12.2421553 25.1969231,12.0282845 24.4738462,12.0282845 C23.68,12.0282845 23.0446154,12.2312276 22.5738462,12.6371139 C22.1,13.0430002 21.8646154,13.5878245 21.8661538,14.274709 L21.8661538,18.8581021 C21.8661538,19.6089917 22.0969231,20.2068935 22.5538462,20.6518073 C23.0153846,21.09516 23.6292308,21.3168364 24.3938462,21.3168364 C25.1907692,21.3168364 25.8138462,21.1014044 26.2707692,20.6705405 C26.7230769,20.2396766 26.9492308,19.6464581 26.9492308,18.8908852 L26.9492308,14.3246643 C26.9492308,13.6518297 26.7169231,13.0991999 26.2569231,12.6714581 L26.2569231,12.6714581 Z M25.1646154,19.026701 C25.1646154,19.2624273 25.0953846,19.4481983 24.9553846,19.5855752 C24.8138462,19.7198299 24.6276923,19.7869572 24.3907692,19.7869572 C24.1584615,19.7869572 23.98,19.721391 23.8553846,19.5886974 C23.7307692,19.4544427 23.6676923,19.2671106 23.6676923,19.026701 L23.6676923,14.2091428 C23.6676923,14.0155662 23.7369231,13.8594561 23.8676923,13.7392513 C24.0015385,13.6206076 24.1753846,13.5612858 24.3907692,13.5612858 C24.62,13.5612858 24.8076923,13.6206076 24.9507692,13.7392513 C25.0938462,13.857895 25.1661538,14.0155662 25.1661538,14.2091428 L25.1661538,19.026701 L25.1646154,19.026701 Z" id="Shape"></path>
                            <polygon id="Shape" points="17.0938462 9.10902529 15.1076923 9.10902529 17.4553846 16.3462903 17.4553846 21.0967211 19.4276923 21.0967211 19.4276923 16.1214917 21.7215385 9.10902529 19.7169231 9.10902529 18.4984615 13.9000448 18.3753846 13.9000448"></polygon>
                        </g>
                    </g>
                </g>
            </g>
        </g>
    </g>
</svg>