<?xml version="1.0" encoding="UTF-8" standalone="no"?>
<svg width="187px" height="187px" viewBox="0 0 187 187" version="1.1" xmlns="http://www.w3.org/2000/svg" xmlns:xlink="http://www.w3.org/1999/xlink">
    <!-- Generator: Sketch 3.7.2 (28276) - http://www.bohemiancoding.com/sketch -->
    <title>cpap</title>
    <desc>Created with Sketch.</desc>
    <defs></defs>
    <g id="Page-1" stroke="none" stroke-width="1" fill="none" fill-rule="evenodd">
        <g id="ABOUT-Page--DR.-CELESTE" transform="translate(-726.000000, -104.000000)">
            <g id="Navbar" transform="translate(0.000000, -1.000000)">
                <g id="Tabs" transform="translate(421.000000, 14.391304)"></g>
            </g>
            <g id="cpap" transform="translate(726.000000, 104.000000)">
                <g id="Group">
                    <path d="M93.5,0 C145.13818,0 187,41.86182 187,93.5 C187,145.13818 145.13818,187 93.5,187 C41.86182,187 0,145.13818 0,93.5 C0,41.86182 41.86182,0 93.5,0 L93.5,0 Z" id="Shape" fill="#367AF3"></path>
                    <path d="M138.34073,71.60043 C137.21125,71.37042 136.03502,71.72011 135.21409,72.53917 L108.61708,99.66165 C105.9355,102.34697 96.92023,100.38534 90.85208,98.01792 C88.48092,91.94977 86.52116,82.93263 89.19526,80.25292 L116.45051,53.78494 C117.26957,52.96775 117.62487,51.79526 117.38925,50.66578 C117.1555,49.53256 116.36075,48.59569 115.29298,48.16933 C98.31338,41.41676 78.99067,45.39799 66.07458,58.30847 C54.67132,69.71173 50.44512,85.7021 53.79242,100.56673 C53.36232,107.93453 46.66398,116.56832 43.20074,120.08953 L16.5869,146.6454 C23.40492,156.49656 32.06302,164.96953 42.06939,171.57437 L67.42098,146.26953 C70.97585,142.76702 80.57643,136.16405 87.89,135.4067 C88.9933,135.47776 91.27657,135.62923 91.78334,135.74143 L91.7796,135.69842 C106.04022,137.77038 120.44483,133.11408 130.69056,122.88144 C143.60665,109.98592 147.59536,90.67069 140.84092,73.70231 C140.41456,72.62519 139.47582,71.83605 138.34073,71.60043 L138.34073,71.60043 Z" id="Shape" fill="#0D47A6"></path>
                    <path d="M138.34073,69.73043 C137.21125,69.50042 136.03502,69.85011 135.21409,70.66917 L108.61708,97.79165 C105.9355,100.47697 96.92023,98.51534 90.85208,96.14792 C88.48092,90.07977 86.52116,81.06263 89.19526,78.38292 L116.45051,51.91494 C117.26957,51.09775 117.62487,49.92526 117.38925,48.79578 C117.1555,47.66256 116.36075,46.72569 115.29298,46.29933 C98.31338,39.54676 78.99067,43.52799 66.07458,56.43847 C54.67132,67.84173 50.44512,83.8321 53.79242,98.69673 C53.36232,106.06453 46.66398,114.69832 43.20074,118.21953 L15.81646,145.5421 C22.4961,155.49237 31.03639,164.08689 40.93991,170.83011 L67.41911,144.39766 C70.97398,140.89515 80.57456,134.29218 87.88813,133.53483 C88.99143,133.60589 91.2747,133.75736 91.78147,133.86956 L91.77773,133.82655 C106.03835,135.89851 120.44296,131.24221 130.68869,121.00957 C143.60478,108.11405 147.59349,88.79882 140.83905,71.83044 C140.41456,70.75519 139.47582,69.96605 138.34073,69.73043 L138.34073,69.73043 Z" id="Shape" fill="#EDEDED"></path>
                    <g transform="translate(26.180000, 71.060000)" id="Shape" fill="#E1E1E1">
                        <path d="M117.55194,12.25972 C117.78943,14.29054 117.90163,16.32697 117.86984,18.35592 C117.73333,13.06382 116.69174,7.74741 114.65905,2.64231 C114.23269,1.56706 113.29582,0.77605 112.15886,0.5423 C111.02938,0.31229 109.85315,0.66198 109.03222,1.48104 L82.43708,28.60165 C79.7555,31.28697 70.74023,29.32534 64.67208,26.95792 C64.46451,26.42684 64.26068,25.87145 64.06059,25.29923 L1.01167,88.35002 C5.21356,92.57809 9.8175,96.40411 14.76178,99.77011 L41.24098,73.33766 C44.79585,69.83515 54.39643,63.23218 61.71,62.47483 C62.8133,62.54589 65.09657,62.69736 65.60334,62.80956 L65.5996,62.76655 C79.86022,64.83851 94.26483,60.18221 104.51056,49.94957 C114.5749,39.90019 119.18819,25.9556 117.55194,12.25972 L117.55194,12.25972 Z M115.92878,4.44125 L115.65576,3.5717 L115.92878,4.44125 L115.92878,4.44125 Z M117.44909,11.41448 C117.37616,10.87218 117.29388,10.33362 117.19851,9.79506 C117.29201,10.33362 117.37616,10.87405 117.44909,11.41448 L117.44909,11.41448 Z M116.84882,8.0223 L116.52344,6.61232 L116.84882,8.0223 L116.84882,8.0223 Z"></path>
                    </g>
                    <path d="M66.07458,58.30847 C78.99067,45.39799 98.31338,41.41676 115.29298,48.16933 C116.29156,48.56764 117.03395,49.42223 117.31819,50.45821 C117.47714,49.92526 117.50706,49.35678 117.38925,48.79578 C117.1555,47.66256 116.36075,46.72569 115.29298,46.29933 C98.31338,39.54676 78.99067,43.52799 66.07458,56.43847 C57.07801,65.43504 52.56757,77.28897 52.70221,89.19152 C53.03694,77.9229 57.54925,66.8338 66.07458,58.30847 L66.07458,58.30847 Z M43.20074,118.21953 L15.81646,145.5421 L16.58503,146.6454 L43.19887,120.08953 C46.66024,116.56645 53.35858,107.93453 53.79055,100.56673 L53.66152,99.89166 C52.64424,106.97522 46.47698,114.88532 43.20074,118.21953 L43.20074,118.21953 Z" id="Shape" fill="#F4F4F4"></path>
                    <path d="M53.68957,126.63079 L24.13235,156.18614 C26.22675,158.5012 28.43522,160.71528 30.75028,162.81155 L60.31124,133.25059 C62.1401,131.41986 62.1401,128.45778 60.31124,126.62892 C58.48238,124.80006 55.51843,124.80193 53.68957,126.63079 L53.68957,126.63079 Z" id="Shape" fill="#CCD0D2"></path>
                    <path d="M53.68957,126.63079 L24.13235,156.18614 L25.03743,157.15293 L53.68957,128.50079 C55.5203,126.67193 58.48238,126.67193 60.31124,128.50079 C60.98631,129.17586 61.40706,130.00614 61.58471,130.87756 C61.88765,129.38904 61.46503,127.78645 60.31124,126.63079 C58.48238,124.80193 55.51843,124.80193 53.68957,126.63079 L53.68957,126.63079 Z" id="Shape" fill="#B8BCBE"></path>
                </g>
            </g>
        </g>
    </g>
</svg>