<?xml version="1.0" encoding="UTF-8" standalone="no"?>
<svg width="187px" height="187px" viewBox="0 0 187 187" version="1.1" xmlns="http://www.w3.org/2000/svg" xmlns:xlink="http://www.w3.org/1999/xlink">
    <!-- Generator: Sketch 3.7.2 (28276) - http://www.bohemiancoding.com/sketch -->
    <title>ICBT</title>
    <desc>Created with Sketch.</desc>
    <defs></defs>
    <g id="Page-1" stroke="none" stroke-width="1" fill="none" fill-rule="evenodd">
        <g id="ABOUT-Page--DR.-CELESTE" transform="translate(-89.000000, -104.000000)">
            <g id="Navbar" transform="translate(0.000000, -1.000000)"></g>
            <g id="ICBT" transform="translate(89.000000, 104.000000)">
                <path d="M93.5,0 C145.13818,0 187,41.86182 187,93.5 C187,145.13818 145.13818,187 93.5,187 C41.86182,187 0,145.13818 0,93.5 C0,41.86182 41.86182,0 93.5,0 L93.5,0 Z" id="Shape" fill="#367AF3"></path>
                <g id="Meditation" transform="translate(48.000000, 19.000000)" fill="#FFFFFF">
                    <g id="Layer_1">
                        <ellipse id="Oval" cx="46.0748967" cy="15.6929906" rx="15.7817223" ry="15.6929906"></ellipse>
                        <path d="M89.474633,114.558831 L65.8020496,94.1579436 L65.8020496,91.0193455 L79.2165135,94.1579436 L81.5837719,94.1579436 C85.5292025,94.1579436 89.474633,91.803995 91.8418914,87.8807474 C94.2091497,83.9574997 93.4200636,80.0342521 91.8418914,76.1110044 L77.6383413,52.5715185 C73.6929107,44.7250232 65.0129635,39.2324765 56.3330162,39.2324765 L37.3949494,39.2324765 C27.925916,39.2324765 20.0350549,44.7250232 16.0896243,52.5715185 L1.88607419,76.1110044 C-0.481184154,80.0342521 -0.481184154,83.9574997 1.88607419,87.8807474 C4.25333254,92.5886446 9.77693535,94.9425931 14.511452,93.3732941 L27.925916,90.234696 L27.925916,94.1579436 L4.25333254,114.558831 C1.88607419,116.91278 0.307901961,119.266729 0.307901961,122.405327 C-1.27027027,128.682523 3.46424642,133.39042 9.77693535,133.39042 L22.4023132,133.39042 L22.4023132,118.482079 C22.4023132,113.774182 26.3477438,109.850934 31.0822605,109.850934 L35.0276911,109.850934 C43.7076383,109.066285 53.1766717,110.635584 61.856619,113.774182 L69.7474802,116.12813 L30.2931744,117.69743 L30.2931744,133.39042 L82.372858,133.39042 C88.6855469,133.39042 93.4200636,128.682523 93.4200636,122.405327 C93.4200636,119.266729 91.8418914,116.91278 89.474633,114.558831 L89.474633,114.558831 Z M46.0748967,65.125911 C42.9185522,65.125911 38.9731216,70.6184577 34.2386049,78.464953 C34.2386049,78.464953 38.1840355,54.9254671 46.0748967,54.9254671 C53.9657578,54.9254671 57.9111884,78.464953 57.9111884,78.464953 C53.9657578,71.4031072 49.2312411,65.125911 46.0748967,65.125911 L46.0748967,65.125911 Z" id="Shape"></path>
                    </g>
                </g>
            </g>
        </g>
    </g>
</svg>