<?xml version="1.0" encoding="UTF-8" standalone="no"?>
<svg width="250px" height="98px" viewBox="0 0 250 98" version="1.1" xmlns="http://www.w3.org/2000/svg" xmlns:xlink="http://www.w3.org/1999/xlink">
    <!-- Generator: Sketch 3.7.2 (28276) - http://www.bohemiancoding.com/sketch -->
    <title>Cobalt-logo</title>
    <desc>Created with Sketch.</desc>
    <defs></defs>
    <g id="WA" stroke="none" stroke-width="1" fill="none" fill-rule="evenodd">
        <g id="WA-Vector" transform="translate(-171.000000, -170.000000)" fill="#0103F6">
            <g id="Vector-Copy" transform="translate(171.000000, 170.000000)">
                <g id="WA-a-over\">
                    <g id="Cobalt-logo" transform="translate(1.000000, 0.000000)">
                        <polygon id="/A" stroke="#0910C4" points="162.005799 1 132.016394 81 151.978138 80.9999962 174.327086 22.998209"></polygon>
                        <polygon id="W/" stroke="#0103F6" points="111.992474 1 82.0098267 81 102.008301 81 131.98979 1"></polygon>
                        <g id="A\" transform="translate(160.000000, 1.000000)" stroke="#0103F6">
                            <path d="M82.1334361,90.8309195 C68.0168473,103 51.2816483,93.0214844 44.0671076,81.7193645 C36.852567,70.4172446 28.0001754,56 28.0001754,56 L33.0392589,56 C33.0392589,56 42.8184449,71.9917221 47.928476,79 C50.4747173,82.4921053 55.6903133,88.0366793 61.900541,90.0455475 C68.1535689,92.0682606 75.4050145,90.5278846 79.0316205,86.0082779 C86.2600095,77 81.5945729,54.0083926 60.9865376,54.0083926 C40.3785024,54.0083926 3.85887301,54.0083926 3.85887301,54.0083926 L4.63652758,52 L68.0168454,52 C83.5592326,52 96.250025,78.661839 82.1334361,90.8309195 Z" id="-o"></path>
                            <polygon id="A\-Top" points="30.0581989 50 25.03582 50 0.159606934 5.01422119 2.0145874 0.0292358398"></polygon>
                        </g>
                        <g id="\W" stroke="#0103F6">
                            <path d="M67.1112485,19.542529 C71.3167537,30.59833 70.2022672,41.7494325 63.1580739,48.7289742 C55.9355914,55.885169 41.1387084,57.3524938 32.5621534,50.8542184 C25.6835305,45.6424305 20.1767774,36.2111693 16.9658079,31.1809444 C9.75126729,19.8788246 0.4379163,3.66982116 0.4379163,3.66982116 L4.84837582,3.66982116 C4.84837582,3.66982116 20.5203481,27.8459405 25.6303792,34.8542184 C28.1766206,38.3463237 32.6400914,44.7218598 39.6030011,46.4782266 C46.5659108,48.2345933 55.2870221,45.1299828 58.8468595,41.1505593 C61.6207813,38.0496846 65.5592771,29.3458165 62.0002294,20.0655621 C60.3572648,15.7815148 59.0083818,13.3404225 54.6662832,9.49826802 C49.2547361,4.70980017 40.6120578,2.85421839 33.9582362,2.85421838 C13.3502009,2.85421836 6.5430221,2.85421838 6.5430221,2.85421838 L5.40796513,0.85421838 L8.36688796,0.85421838 L40.7398725,0.85421838 C48.9067502,0.85421838 62.7291097,8.02237801 67.1112485,19.542529 Z" id="-o" transform="translate(35.003054, 27.927109) scale(-1, -1) translate(-35.003054, -27.927109) "></path>
                            <polygon id="w\-vect" points="136.032645 81.0000011 131.032574 81.0000011 114.960959 52.0331818 116.904229 46.9442805"></polygon>
                            <polygon id="\W-bottom" points="86 81 81.0056371 81 64.0371861 50.3572457 68.5314197 50.3572457"></polygon>
                        </g>
                    </g>
                </g>
            </g>
        </g>
    </g>
</svg>