<?xml version="1.0" encoding="UTF-8" standalone="no"?>
<svg width="20px" height="21px" viewBox="0 0 20 21" version="1.1" xmlns="http://www.w3.org/2000/svg" xmlns:xlink="http://www.w3.org/1999/xlink">
    <!-- Generator: Sketch 3.7.2 (28276) - http://www.bohemiancoding.com/sketch -->
    <title>check-mark</title>
    <desc>Created with Sketch.</desc>
    <defs></defs>
    <g id="Page-1" stroke="none" stroke-width="1" fill="none" fill-rule="evenodd">
        <g id="Home-Page--About-Nav-ACTIVE" transform="translate(-800.000000, -870.000000)">
            <g id="Discription-+-Services" transform="translate(0.000000, 587.000000)">
                <g id="Services"></g>
                <g id="check-mark" transform="translate(800.000000, 282.000000)">
                    <g id="Group" transform="translate(0.000000, 0.600000)">
                        <path d="M20,11.4 C20,16.923 15.523,21.4 10,21.4 C4.4772,21.4 0,16.923 0,11.4 C0,5.8772 4.4772,1.4 10,1.4 C15.523,1.4 20,5.8772 20,11.4 L20,11.4 Z" id="Shape" fill="#2EC0F9"></path>
                        <path d="M20,10.4 C20,15.923 15.523,20.4 10,20.4 C4.4772,20.4 0,15.923 0,10.4 C0,4.8772 4.4772,0.4 10,0.4 C15.523,0.4 20,4.8772 20,10.4 L20,10.4 Z" id="Shape" fill="#6CD4FF"></path>
                        <polygon id="Shape" fill="#2EC0F9" points="14 7.4 8 13.4 5.5 10.9 3.375 13 5.875 15.5 7.875 17.5 8 17.6 16.125 9.5"></polygon>
                        <polygon id="Shape" fill="#ECF0F1" points="14 6.4 8 12.4 5.5 9.9 3.375 12 5.875 14.5 7.875 16.5 8 16.6 16.125 8.5"></polygon>
                    </g>
                </g>
            </g>
        </g>
    </g>
</svg>